<mxfile host="app.diagrams.net" modified="2024-03-03T10:54:09.852Z" agent="Mozilla/5.0 (Windows NT 10.0; Win64; x64) AppleWebKit/537.36 (KHTML, like Gecko) Chrome/122.0.0.0 Safari/537.36" etag="FdSuSD5P2ZV6jbjxnghV" version="23.1.8" type="google">
  <diagram name="‫עמוד-1‬" id="MFjy0CTOxzwj3ZptCUgh">
    <mxGraphModel dx="1500" dy="746" grid="1" gridSize="10" guides="1" tooltips="1" connect="1" arrows="1" fold="1" page="1" pageScale="1" pageWidth="827" pageHeight="1169" math="0" shadow="0">
      <root>
        <mxCell id="0" />
        <mxCell id="1" parent="0" />
        <mxCell id="XX_flJjxw-XXJBpBVuil-6" value="" style="edgeStyle=orthogonalEdgeStyle;rounded=0;orthogonalLoop=1;jettySize=auto;html=1;" edge="1" parent="1" source="XX_flJjxw-XXJBpBVuil-2" target="XX_flJjxw-XXJBpBVuil-3">
          <mxGeometry relative="1" as="geometry" />
        </mxCell>
        <mxCell id="XX_flJjxw-XXJBpBVuil-2" value="start" style="strokeWidth=1;html=1;shape=mxgraph.flowchart.terminator;whiteSpace=wrap;fillColor=#d5e8d4;strokeColor=#82b366;" vertex="1" parent="1">
          <mxGeometry x="320" y="40" width="100" height="60" as="geometry" />
        </mxCell>
        <mxCell id="XX_flJjxw-XXJBpBVuil-8" style="edgeStyle=orthogonalEdgeStyle;rounded=0;orthogonalLoop=1;jettySize=auto;html=1;" edge="1" parent="1" source="XX_flJjxw-XXJBpBVuil-3" target="XX_flJjxw-XXJBpBVuil-4">
          <mxGeometry relative="1" as="geometry" />
        </mxCell>
        <mxCell id="XX_flJjxw-XXJBpBVuil-3" value="" style="verticalLabelPosition=bottom;verticalAlign=top;html=1;shape=card;whiteSpace=wrap;size=20;arcSize=12;fillColor=#dae8fc;strokeColor=#6c8ebf;" vertex="1" parent="1">
          <mxGeometry x="320" y="130" width="100" height="60" as="geometry" />
        </mxCell>
        <mxCell id="XX_flJjxw-XXJBpBVuil-4" value="b" style="strokeWidth=1;html=1;shape=mxgraph.flowchart.document2;whiteSpace=wrap;size=0.25;fillColor=#e1d5e7;strokeColor=#9673a6;" vertex="1" parent="1">
          <mxGeometry x="320" y="220" width="100" height="60" as="geometry" />
        </mxCell>
        <mxCell id="XX_flJjxw-XXJBpBVuil-5" value="stop" style="strokeWidth=1;html=1;shape=mxgraph.flowchart.terminator;whiteSpace=wrap;fillColor=#f8cecc;strokeColor=#b85450;" vertex="1" parent="1">
          <mxGeometry x="320" y="300" width="100" height="60" as="geometry" />
        </mxCell>
        <mxCell id="XX_flJjxw-XXJBpBVuil-9" style="edgeStyle=orthogonalEdgeStyle;rounded=0;orthogonalLoop=1;jettySize=auto;html=1;entryX=0.5;entryY=0;entryDx=0;entryDy=0;entryPerimeter=0;" edge="1" parent="1" source="XX_flJjxw-XXJBpBVuil-4" target="XX_flJjxw-XXJBpBVuil-5">
          <mxGeometry relative="1" as="geometry" />
        </mxCell>
        <mxCell id="XX_flJjxw-XXJBpBVuil-10" value="a" style="text;html=1;align=center;verticalAlign=middle;whiteSpace=wrap;rounded=0;" vertex="1" parent="1">
          <mxGeometry x="340" y="145" width="60" height="30" as="geometry" />
        </mxCell>
        <mxCell id="XX_flJjxw-XXJBpBVuil-11" value="1 מה לא תקין בתרשים? הצע תיקון." style="text;whiteSpace=wrap;html=1;" vertex="1" parent="1">
          <mxGeometry x="480" y="50" width="200" height="40" as="geometry" />
        </mxCell>
        <mxCell id="XX_flJjxw-XXJBpBVuil-13" value="&lt;h1&gt;תיקון&lt;/h1&gt;&lt;p&gt;&lt;font face=&quot;אריאל&quot;&gt;הבעיה היא שהפלט לא הוגדר, התוכנה לא יכולה לפלוט B כי לא הגדרנו לה מה הוא. אפשרי שהפלט יהיה A או שהקלט יהיה B.&lt;/font&gt;&lt;/p&gt;" style="text;html=1;spacing=5;spacingTop=-20;whiteSpace=wrap;overflow=hidden;rounded=0;align=right;" vertex="1" parent="1">
          <mxGeometry x="500" y="145" width="200" height="145" as="geometry" />
        </mxCell>
        <mxCell id="XX_flJjxw-XXJBpBVuil-14" value="" style="edgeStyle=orthogonalEdgeStyle;rounded=0;orthogonalLoop=1;jettySize=auto;html=1;" edge="1" parent="1" source="XX_flJjxw-XXJBpBVuil-15" target="XX_flJjxw-XXJBpBVuil-17">
          <mxGeometry relative="1" as="geometry" />
        </mxCell>
        <mxCell id="XX_flJjxw-XXJBpBVuil-15" value="start" style="strokeWidth=1;html=1;shape=mxgraph.flowchart.terminator;whiteSpace=wrap;fillColor=#d5e8d4;strokeColor=#82b366;" vertex="1" parent="1">
          <mxGeometry x="180" y="40" width="100" height="60" as="geometry" />
        </mxCell>
        <mxCell id="XX_flJjxw-XXJBpBVuil-16" style="edgeStyle=orthogonalEdgeStyle;rounded=0;orthogonalLoop=1;jettySize=auto;html=1;" edge="1" parent="1" source="XX_flJjxw-XXJBpBVuil-17" target="XX_flJjxw-XXJBpBVuil-18">
          <mxGeometry relative="1" as="geometry" />
        </mxCell>
        <mxCell id="XX_flJjxw-XXJBpBVuil-17" value="" style="verticalLabelPosition=bottom;verticalAlign=top;html=1;shape=card;whiteSpace=wrap;size=20;arcSize=12;fillColor=#dae8fc;strokeColor=#6c8ebf;" vertex="1" parent="1">
          <mxGeometry x="180" y="130" width="100" height="60" as="geometry" />
        </mxCell>
        <mxCell id="XX_flJjxw-XXJBpBVuil-18" value="a" style="strokeWidth=1;html=1;shape=mxgraph.flowchart.document2;whiteSpace=wrap;size=0.25;fillColor=#e1d5e7;strokeColor=#9673a6;" vertex="1" parent="1">
          <mxGeometry x="180" y="220" width="100" height="60" as="geometry" />
        </mxCell>
        <mxCell id="XX_flJjxw-XXJBpBVuil-19" value="stop" style="strokeWidth=1;html=1;shape=mxgraph.flowchart.terminator;whiteSpace=wrap;fillColor=#f8cecc;strokeColor=#b85450;" vertex="1" parent="1">
          <mxGeometry x="180" y="300" width="100" height="60" as="geometry" />
        </mxCell>
        <mxCell id="XX_flJjxw-XXJBpBVuil-20" style="edgeStyle=orthogonalEdgeStyle;rounded=0;orthogonalLoop=1;jettySize=auto;html=1;entryX=0.5;entryY=0;entryDx=0;entryDy=0;entryPerimeter=0;" edge="1" parent="1" source="XX_flJjxw-XXJBpBVuil-18" target="XX_flJjxw-XXJBpBVuil-19">
          <mxGeometry relative="1" as="geometry" />
        </mxCell>
        <mxCell id="XX_flJjxw-XXJBpBVuil-21" value="a" style="text;html=1;align=center;verticalAlign=middle;whiteSpace=wrap;rounded=0;" vertex="1" parent="1">
          <mxGeometry x="200" y="145" width="60" height="30" as="geometry" />
        </mxCell>
        <mxCell id="XX_flJjxw-XXJBpBVuil-22" value="" style="edgeStyle=orthogonalEdgeStyle;rounded=0;orthogonalLoop=1;jettySize=auto;html=1;" edge="1" parent="1" source="XX_flJjxw-XXJBpBVuil-23" target="XX_flJjxw-XXJBpBVuil-25">
          <mxGeometry relative="1" as="geometry" />
        </mxCell>
        <mxCell id="XX_flJjxw-XXJBpBVuil-23" value="start" style="strokeWidth=1;html=1;shape=mxgraph.flowchart.terminator;whiteSpace=wrap;fillColor=#d5e8d4;strokeColor=#82b366;" vertex="1" parent="1">
          <mxGeometry x="40" y="40" width="100" height="60" as="geometry" />
        </mxCell>
        <mxCell id="XX_flJjxw-XXJBpBVuil-24" style="edgeStyle=orthogonalEdgeStyle;rounded=0;orthogonalLoop=1;jettySize=auto;html=1;" edge="1" parent="1" source="XX_flJjxw-XXJBpBVuil-25" target="XX_flJjxw-XXJBpBVuil-26">
          <mxGeometry relative="1" as="geometry" />
        </mxCell>
        <mxCell id="XX_flJjxw-XXJBpBVuil-25" value="" style="verticalLabelPosition=bottom;verticalAlign=top;html=1;shape=card;whiteSpace=wrap;size=20;arcSize=12;fillColor=#dae8fc;strokeColor=#6c8ebf;" vertex="1" parent="1">
          <mxGeometry x="40" y="130" width="100" height="60" as="geometry" />
        </mxCell>
        <mxCell id="XX_flJjxw-XXJBpBVuil-26" value="b" style="strokeWidth=1;html=1;shape=mxgraph.flowchart.document2;whiteSpace=wrap;size=0.25;fillColor=#e1d5e7;strokeColor=#9673a6;" vertex="1" parent="1">
          <mxGeometry x="40" y="220" width="100" height="60" as="geometry" />
        </mxCell>
        <mxCell id="XX_flJjxw-XXJBpBVuil-27" value="stop" style="strokeWidth=1;html=1;shape=mxgraph.flowchart.terminator;whiteSpace=wrap;fillColor=#f8cecc;strokeColor=#b85450;" vertex="1" parent="1">
          <mxGeometry x="40" y="300" width="100" height="60" as="geometry" />
        </mxCell>
        <mxCell id="XX_flJjxw-XXJBpBVuil-28" style="edgeStyle=orthogonalEdgeStyle;rounded=0;orthogonalLoop=1;jettySize=auto;html=1;entryX=0.5;entryY=0;entryDx=0;entryDy=0;entryPerimeter=0;" edge="1" parent="1" source="XX_flJjxw-XXJBpBVuil-26" target="XX_flJjxw-XXJBpBVuil-27">
          <mxGeometry relative="1" as="geometry" />
        </mxCell>
        <mxCell id="XX_flJjxw-XXJBpBVuil-29" value="b" style="text;html=1;align=center;verticalAlign=middle;whiteSpace=wrap;rounded=0;" vertex="1" parent="1">
          <mxGeometry x="60" y="145" width="60" height="30" as="geometry" />
        </mxCell>
        <mxCell id="XX_flJjxw-XXJBpBVuil-30" value="" style="endArrow=none;html=1;rounded=0;endSize=14;strokeWidth=6;" edge="1" parent="1">
          <mxGeometry width="50" height="50" relative="1" as="geometry">
            <mxPoint x="31" y="440" as="sourcePoint" />
            <mxPoint x="801" y="440" as="targetPoint" />
          </mxGeometry>
        </mxCell>
        <mxCell id="XX_flJjxw-XXJBpBVuil-32" value="" style="edgeStyle=orthogonalEdgeStyle;rounded=0;orthogonalLoop=1;jettySize=auto;html=1;" edge="1" parent="1" source="XX_flJjxw-XXJBpBVuil-33" target="XX_flJjxw-XXJBpBVuil-35">
          <mxGeometry relative="1" as="geometry" />
        </mxCell>
        <mxCell id="XX_flJjxw-XXJBpBVuil-33" value="start" style="strokeWidth=1;html=1;shape=mxgraph.flowchart.terminator;whiteSpace=wrap;fillColor=#d5e8d4;strokeColor=#82b366;" vertex="1" parent="1">
          <mxGeometry x="90" y="500" width="100" height="60" as="geometry" />
        </mxCell>
        <mxCell id="XX_flJjxw-XXJBpBVuil-35" value="" style="verticalLabelPosition=bottom;verticalAlign=top;html=1;shape=card;whiteSpace=wrap;size=20;arcSize=12;fillColor=#dae8fc;strokeColor=#6c8ebf;" vertex="1" parent="1">
          <mxGeometry x="90" y="590" width="100" height="60" as="geometry" />
        </mxCell>
        <mxCell id="XX_flJjxw-XXJBpBVuil-36" value="n" style="strokeWidth=1;html=1;shape=mxgraph.flowchart.document2;whiteSpace=wrap;size=0.25;fillColor=#e1d5e7;strokeColor=#9673a6;" vertex="1" parent="1">
          <mxGeometry x="90" y="760" width="100" height="60" as="geometry" />
        </mxCell>
        <mxCell id="XX_flJjxw-XXJBpBVuil-37" value="stop" style="strokeWidth=1;html=1;shape=mxgraph.flowchart.terminator;whiteSpace=wrap;fillColor=#f8cecc;strokeColor=#b85450;" vertex="1" parent="1">
          <mxGeometry x="90" y="840" width="100" height="60" as="geometry" />
        </mxCell>
        <mxCell id="XX_flJjxw-XXJBpBVuil-38" style="edgeStyle=orthogonalEdgeStyle;rounded=0;orthogonalLoop=1;jettySize=auto;html=1;entryX=0.5;entryY=0;entryDx=0;entryDy=0;entryPerimeter=0;" edge="1" parent="1" source="XX_flJjxw-XXJBpBVuil-36" target="XX_flJjxw-XXJBpBVuil-37">
          <mxGeometry relative="1" as="geometry" />
        </mxCell>
        <mxCell id="XX_flJjxw-XXJBpBVuil-39" value="n" style="text;html=1;align=center;verticalAlign=middle;whiteSpace=wrap;rounded=0;" vertex="1" parent="1">
          <mxGeometry x="110" y="605" width="60" height="30" as="geometry" />
        </mxCell>
        <mxCell id="XX_flJjxw-XXJBpBVuil-40" value="" style="verticalLabelPosition=bottom;verticalAlign=top;html=1;shape=card;whiteSpace=wrap;size=20;arcSize=12;fillColor=#dae8fc;strokeColor=#6c8ebf;" vertex="1" parent="1">
          <mxGeometry x="90" y="680" width="100" height="60" as="geometry" />
        </mxCell>
        <mxCell id="XX_flJjxw-XXJBpBVuil-41" value="n" style="text;html=1;align=center;verticalAlign=middle;whiteSpace=wrap;rounded=0;" vertex="1" parent="1">
          <mxGeometry x="110" y="695" width="60" height="30" as="geometry" />
        </mxCell>
        <mxCell id="XX_flJjxw-XXJBpBVuil-44" style="edgeStyle=orthogonalEdgeStyle;rounded=0;orthogonalLoop=1;jettySize=auto;html=1;entryX=0.5;entryY=0;entryDx=0;entryDy=0;entryPerimeter=0;" edge="1" parent="1" source="XX_flJjxw-XXJBpBVuil-35" target="XX_flJjxw-XXJBpBVuil-40">
          <mxGeometry relative="1" as="geometry" />
        </mxCell>
        <mxCell id="XX_flJjxw-XXJBpBVuil-45" style="edgeStyle=orthogonalEdgeStyle;rounded=0;orthogonalLoop=1;jettySize=auto;html=1;entryX=0.5;entryY=0;entryDx=0;entryDy=0;entryPerimeter=0;" edge="1" parent="1" source="XX_flJjxw-XXJBpBVuil-40" target="XX_flJjxw-XXJBpBVuil-36">
          <mxGeometry relative="1" as="geometry" />
        </mxCell>
        <mxCell id="XX_flJjxw-XXJBpBVuil-47" value="" style="shape=image;verticalLabelPosition=bottom;labelBackgroundColor=default;verticalAlign=top;aspect=fixed;imageAspect=0;image=data:image/png,iVBORw0KGgoAAAANSUhEUgAAAeMAAACsCAYAAABIDsQ1AAAAAXNSR0IArs4c6QAAAARnQU1BAACxjwv8YQUAAAAJcEhZcwAADsMAAA7DAcdvqGQAAJRxSURBVHhe7J0JXJVV+sd/73sX4LJdkE2QTRARBVRQXHDBzMzUtHFNyxBFrbSZqcw205wcTdPUnMrUHLPln0uLpuVu7mu4gAsgAoECsijbhbuc/3kX4AL3opZLNec7n3e6nHveszznOc85z3mf98oRChgMBoPBYDwwePm/DAaDwWAwHhBsMWYwGAwG4wHDFmMGg8FgMB4wbDFmMBgMBuMBwxZjBoPBYDAeMCyamvGXwFB4Hgf2HMKZK4WotnFHq5h+eLizDzTy9wwGg/FHhi3GjD89xvOL0Lfry9h3w4RaZebs4N//Daz9bAZ6NmMHQAwG495Tlb0fX6z+AlsPnUNG3k3AyRcRcaMx9e+j0cGlaTvEFmPGn57qY6+h+6i9aPlYX0R4mZC55wus252BSijg89R6nPnvULjKeRkMBuNeYLy4FI90/Qd2F5s5BSIcHDpMx5Z989DLUU6yAFuMGX8BTDCZePA1G09jGhY91B4v7SunO9Oh+O+VTXhKnY79O07hqsEOfp37ooufrZwZMFw7ie0HL0Pn0Bo9+kbA3ZiPlOOnkZ5/A5V6ApWDO/zatEdkoBZK+R6RsgvYtTUJ+UZpCnEcD4VaA62nP0Ij28HX4VYeeRXyUk4hJacIpWU6VOkNtCdK2Dp7IjCsPdr5OtQP6jDmIWn7AVyq0CAkth/aexLkHt+Ggxl6OLXpgb7h7nT7QSm9hH07T6NAHYju/aPRXEg0XMXJ7QeRXumINj37wOv6ESRdpvVWVsFAlNC4+qBVRHu0drcRShCpuLQHP5y6Rr+XEwQ4DgqlLRzcWqB1RASCXNXyFxJlF3Zha1I+JJFw4HgF1BotPP1DEdnOF02KxFSE5F17kFwMuLbtgz5tXWr7byo+j717zqJQ4Y2ovp2gSt6Bo1d0UHlGoHePEDjLGU3FKdiz5xyKVP6I6RcDP5tq5Kccx+n0fNyo1IOoHODu1wbtIwOhNR9MWve5XXuRUszBLTwOvdtogZJkbPnv5/jx9FUYmoXhkacnYmi4VmyTIfc4th3MgN6pDdWZcLhLgselfTtxukCNwO79ES0JHldPbsfB9Eo4tumJh+kYNRZBGS7s2oqkfKNkxKmMeYUaGq0n/EMj6+vBHbZTwJiXhO0HLqFCE4LYfu3hSXJxfNtBZOid0KZHX4RLjadqsw87TxdAHdgd/aObi7pkuCrMjXRUOrZBz4fbQpGyC3tTisG5hSOudxtoUYLkLf/F5z+epnOrGcIeeRoTh4ZDK1f+u/SBcif3m4rOYdfeFBRzbgiP6w1JNFvw389/xOmrBjQLewRPTxyK8JrG3WWqdj+H0EHfwmPQSAyKCYDqymYs/3AXsqkNAeeIxz5JxfcJnhbGX0ZYjBmMvxZ6cuzVdkRF1RuqzuRfKQZizFxNhrjzwqwgyoCnyfpco5zXQJLndJLyqnuSRVeMRLd1AvFRiHax7uJsiU/Pl8j3v9bcR0jV3mkkSNkgn3hxhLfzId0mrSUpOjmzBYyZS0icDWfhfhCO1xDfXlPJlxer5Ny0panzSTeV8L2KdJufSgv4lSyNU4v5VeGvkxN6KV/llvGkOU/zqWLJgnSDmKY/O5tEifeqyUNLd5KZHVS1ddXWqXIlkeNWkXNim6vIwZda02W6fh7zi1O5kfajFpNDRTUyqSJ7pwVZvofjiZ1PNzJpbQqxKhLdLvKsv4Lm54i653sko07UpPyr4cSRo+Uo/MmU7ZfJumFehBo1At6VPLz0PB1xiZufDiJ0O0GgDCEvHqSy020lE3yEMuV2iBdHbH16kpe+/5XUVqE/Rl5tpyIc/V4Z9Bz5Zve7ZFCArfh3zX28UwyZdbSSZjaSX5fGEboNoTIOJ6/XCZ6Mby7omIrELkinmkXRnyWzoyRZqx9aTq6a9amWqr1kWpCyth7zi+PtiE+3SWRtjSLdUTsFDCR1fjd5LnQj81PpXPh1KYlTC3lVJPz1E7LsKsmW8c1FmapiFxBJbfTk7OwoeW48RJZfrZLmlTAOyiDy3De7ybuDAoit8LdcN3gnEjPrKC1N4Hfqwx3erz/2KmmnEuaTkgQ99w3Z/e4gEmBrPr944hQzi9SK5m5TepH8cr6kTqdIIfnsCa2kp1TW7V47Xqunlrg3WwQG44FSiV9/LYCRfuKUzeDRjHoafuOw9P3hoIssDFc+x9Qpa5AhZKDzxGQyCR8odOdNrZqiRRT6Dx6GJ8clYMKEcfhbryA4cjrk/LwIia98A+q4iShDHsGESZMxadIk6UqcgPjRAxHjpwGpzMGhFYkYM/eEnLsxpLoSOpNgJxTw7DwcCRMTkZjwNP7WOxiOtA/Z+z5AwlMLcMYg5RfaKuQWPwkf+GYIDHSVPLWsVKRViV/RLXoV9bkpnApqajlFaB+lewXP1hPt+z+BkWOfEeucOH4U+oe7QWkowum1L2DaxxlUdkoE9R2PyYmjEOMheU6KFj3xNO3nxGdGop+Y/zqSvnoJI176gfpHAkqEPDIBkybL8qBX4oR4jB5IPVQNQWXOIaxIHIO5J6rF3I2wiURUuC1tIYEhJQlJOjldwGiENEo8eKU3Ri9dhjH+SnDUU9z1xgS8K2c20nwSNJ/QdUULRPUfjGFPjkPChAkY97deCKKrui7nZyxKfAXf1A5mRzrWsbCn9xgur8CIR17BlhxHRA4cgzGPhIqet+nmcSyZvwGFtOxmgYFwlQSP1DrBC6KncFCpVfT/BUwQh5jCKRRQWLK4yhA8MmESJtfo0aRETIgfjYExftCQSuQcWoHEMXMhiu2O2ilTe/gp6Q/fLBCBUuORlZom6QqlSmo8VRs16tSmtvFQUG+9I5VhrFQ5Vox4BK9syYFj5ECMGfMIQqXKcXzJfGwQK/+d+nCH9ys7TsCEWHsqdwMurxiBR17ZghzHSAwcMwaPhDrTUTPh5vElmC817u7jEIL2Yj012MLRgW5lBKhhaeZu6VTEDHlRZjD+/Oivk4tHd5Ov//030krcEfNEO2AFyazZqhrzyLfxAYQuLXQH70LiFp2je28d2TnFX0zjbB8jq4rkvOYYc8nH/R1E70Ph/yzZZX0rL1G8kzwXInk6qvDX5MTGGFLnka6yp9t1XqrkSYncJHtfkL1SVXsyM0naTzfML3g959+Jkb2eaDInWSjBQNIXxhI1XdE4p2HkyzLxVlJ1ZDppI3jxnB0ZsrZUSjTn5vckXvQgOeIw9DNSIicT/Rkyq8azi3ufZNXIsiqFvNtDI8qE9xhHvruFt1G88zkSIp4iUG+MegiW0ZOkmR3k/nQgM0/X+RHla4dIHhj1eP+xXzotKNoxlYSJJwsc0XR8jRwsM7+/M3nnfJ1E6zCS3I/7EwehLOplP2s+mPmryEAHyZPitTHk5a050pgY0sh7PSXvU+EzkWyjtxjOv0Ni5LGInpMs5jOkLySxano/50SG1QmeTG8j6AJH7IasJRYk3wTFZOdzIbIehJPXjsvyuIN2CvqQOq+rLJOuZB71jGnjyTsx0piqoucQSW3SycJYNb2XI07DviRS66vIkeltxPo5uyFEUpt8smqgNBfAa0nMy1tJjlQ5SXuvpzRGCh8yUarcKrenD9axdn/+qoHS2ApzP+ZlslVqHBXNe6SnaBMUxGfitia88btI8WaS4CudynB23cl8i/pYR5MLNYPxZ6Los2fQsUsfjHh1I1KrODiFx+PDZePhV6Pllek4caZA8rBMxdg7Mx6zP1+GBRuyqSdIvZm2ndHJUoAF74pWQW7irtZUVICCGufLGtru6N9dym/89YqUdkc4IuahrhCDwI1ZuHy51jVugAJ+rQJELwnGDBz+djM2fvIGJi8+Aj01lzaRMegkPxo35eXhutBx3g2eXvJu3RxNMIJ9hAoJqgsLUFxzWGANdSs8HBdCfRdadkkWMgubvkHbvT+6u4kdwq9XMqXERijROjpS9jhTcSapTEqmlFdUSA4eZw9HRyED4NL331j9SjSEdanil/eQED8Z//zoNPR0LJUte6B3S8mjrw8P11ZBEJtCveoC88FUU49Q/KCA/9h5mPOot/QMXuGLTh19xc+m6znIqaBJfq0QIAkeGYe/xeaNn+CNyYtxRE/XYurhx9QJHnmS4OHm6SWXf7to0b1/d6mtxl9xJVPWgztop0UUfmgVIHiQgtocxrebN+KTNyZj8RE9XTVsEBnTifp0Aibk5V0X5wvv5glJbdSgTr+Iwn8s5s15FN5S5fDt1BG+UuXIsVq5xO3pg3Ws3a+uaxzGzpuDR6XGUdF0Qkepcbiek4OmW3c3KMHeOa/h81+pflGZhk35F6aESm2xhqTVDMZfAGO1Xgw24jTd8PK3p3DpxEqMqjXIBpxb+iIWnSqnBkc4cqPb57LjmDv2ZfxUYAKnaomnZk5GW2F1aQQ17iqlaLxIdTVqDtVMuWswMtANLm6BGLkmV1rkRXi6YNiLk4voKqWkO4RzdIBGrFCH8krrC526ZTD8xBWxEFtfH4phifOwI4cabbs2mDAjHoFi9424cu4CSmgxnDIYbcNkg1UPFZWJ9Inoq+sHbVmEg6ODvfSRVEOnE24wIXfNSAS6ucAtcCTW5Jq1m3eEo70oEegqrctEHRWNdtStF/qdnHROlrURhUU3JPlyrvDwqDFb9oh5fQ3+1ceV+kFVuLB+FXbny2M590V0qR9bVgunVEEpDSbocNZiSD1PN3GCAqnQqm0bs4WTh5OTgzT+pBIVwnioWyJYEjwKt76OocMSMW9HDtUyO7SZMAPxkuBhvHIOFyTBI7htmOXF2JSLNSMD4ebihsCRa1BfbI6QxKZDpawHd9ROi6jRMthP2kgVbsXrQ4chcd4OSGozATPiA6XF3XgF5y6U0B5S/Q9uC1Ft6CbpfGoVHUW6eW3VFm3MOsQ7OdGNEf1Ad02VFcIY/159uNP7DUg9nwpJNK3Qtn7j4CQ1DqSyAk1MqbsA1d0Pn8bYpeego/6uS49Z+O+c3nSL3TQ1Ws1g/OnRaOzE54ScgxA1GglPc2NcfQrr1h1HheAxdpmJL2d2gaMwNymcsjn6L9iApYM9rE4IpbJmlTbCIDtTpCIP2TmFKCnMQXYe9dykZBG5aNEw/TY4szKk/3AaD7Ro7gKtS3O08JB+zkQZFAx/8QEfB/uQOIwYE49nX12MDUcOYMmAZlJ/qHf9444z1FRRo9q2J3p53p1pzwkP2OtBPdS8bOQUlqAwJxt5FRYl0qRIeLcoRIkLmRFZp5Mkb576umlpmTRF+D5Aft4pow7D86sWY4jsAdHBR/fZm/CfJ5pbN250LGtHs2YwKeXnz+OK4HwqWqCNWSS3ACGy9Rafw9NvlEEI9peeC3P2IYgbMQbxz76KxRuO4MCSAdKphtCHH3eIz/w5ZVv07GUlkpZUIC87B4UlhcjJzqM6KqcLmClBTfIdtZMWoPFogeYuWrg0bwEPcYenRFCwv/RcmLNHSNwIjIl/Fq8u3oAjB5ZggPxevjHrR+yQGo+2PXtBVJvy8zgvVY4Wbdqi3quzdGCl2qVn5kKbf58+3On95Th//grVc0E0bdC2fuNQJxo1RNHcEwy4/HkCBv99C93c0A1rx7/ji6+nI+o2fn3onjWJwbjf2HQahZeeexbT/jkM7c02xSIVyUgWI7YUaNmjHx6fsRJvx8mGjO5enTyayUdzllDQBdBJmv6kFDdueYZ7b+C94/F1ZhGKizLxdby3lKgJQpAQlUbh2o7HynWrsXzu3/FERJ2RLt69EB8e1IFwGnR9crQV798a1IjVGjv+3hsMdTtERzrSegj055OQJHiupXuxebfweIGDXWQMohqMrXBc+uGHzyBYWF3ownbux224YB781QCF1gVO0mCi9EaxvIAYcDHlEvVkBGPdCu1CzXdyJuplUvmJn21gayf8V4OgIB/Jg+TaYvzKdVi9fC7+/kRE3QJVvBsLPzxIy6QLYtcnMfrOBG+FO20nD+/4r5FZVIyizK8R7y01ThMUJAYz0lLQdvxKrFu9HHP//gQi6hqP3Qs/xEFaEafpiidHtxU3MIaLKbgkVY5W7UKpj12HiXrD4gEJxUaq/P5iuIiUS0L/Ba+9HeqLhnrDdY3D728dlXVBFrLyK2T9ETDh6vdTMTjxS1yuFhbiafi/rQvQ/zY3v/d8bjEY9wvemXqMns3g6kiXVXne1WAqvYky8WVF6kE6OEJBPaqpK+ZhgAc1+8YcrH9hCj5Jk7ykipyzOHrkCI7UXseRD0cIp6fCs9mTOw7jl8vC8d3doyL3LI6Z1Xn8UkFtlGuTKFuhlZ+C9oqgKusyah4rSlQhe8dsjBi3Aql6wLbdFLyd2FpaQG6D6rzzOPLTN/j5siAXauC0rrXv894LjAUXcfzoGfDuLcQ2mq4fxaaPF2Pa4xPwaSZtA++CfiMHwZ22oSLnHI4drZHXMVz2GI3nB3pDwZlQsn82xr25D6VCoRU5OFubT5ZtPuAoDSYyTu7A4V8uo8RUhgvUqxK3a75hCHOW+i/VcQy/ZEjH5Ly9ExzFNVWJVq38aH1U1aqycLm+4FGVvQOzR4zDCknwmPJ2IlrfruCb5E7baRllq1bwkxqPrMuZojdZS1U2dswegXErUqGnW9R2U95Gotz4sgvUK5cqR5hUOc4fOyrK9dgvGbghVQ6npiq/V5RdoF672Dj4hoXBGdXIO39MmsvHfkGG1DjYOznWnoz8Vsq2TkGYTwACWoQicfMNMc1wZiFG0rmWLMQUePbBy2+NgEvGMVnvjuJYyrWm57QcyMVg/Mkxi6RVhpB/Hqh7P1fAmLGI9JTfrayJfhUiazPXDZffKeaJtte75LSunHw13FGKFm3iUvVYSFIvWIuGriL75PcjOdshclpj6qKjm7g4DRm6rly+wxI6sm2ijxQNrmlJYoeMJE8lTCAJY58gD0V6EzteiCDliG3QSLIyuYmQZ0MqmddVjrDtOo+kGnRkx2Q/KfJcbIc9iXtffndWxEDSF8TKUbrdybtpwjcWIndrqNonv0tL2zLkMznRnCpy6OVQy++UChenJF4DlpNkcVhvPUa86xiykXa39v1kC3lqL1UPsvDCwdqoZ83A1aSQynXHFLP+y5ei5VSyRw7F1W2bKOkOHaOWsUPIyKcSyISEseSJhyKJtx0vto+zDSIjVybL791aoZHs5XRK1T75XXbOlgz5jOqBWXT27bbTIrptZKIcPa9pGUuGjHyKJExIIGOfeIhEetsRXpAZrTNo5EpSpzZm0dWagWR1IS1mxxRC94L16oaiJZkqVv579EHgzu6ve2NAQwZKjSNT/Bq+Y64gLafu+Z3R1Ga6T+e++M4/TTs/V36zwcrFOY8k/9fEVGaeMeMvAgcbOxuIjzE5W2hsG6i2rRO0GiV4hQYuzjWHVDz8Ri/DfyZHQktn0Y1Di7FwSynUNmpaWlNwUKptYWPrDK09LVNpD60zrVv+VihXo9VCzfNQal3ktMZwDp7wdBC8WutwSjd4ukleiWVUaN+nD3xsqPWsuIwD3/4fPlu1EqvWbcKuM1dB3CMw+MVV2H/sCySEWT+IFyI+nbX2UPBK2GudYUMFaWtnS+WpgK1rEHpOXI5lk1qaedX0eydn2CtpH+2d4WQrCh42zlo5TQtn2qZaeA20WjV4Wr7WxWLIOmxt5fET4cApVNC4+KB1l8GYsmAzDm16FmHi0SNPZX+LMVKqxMAmXm0jnWg0AadUw1ZxFdcKaX6FAyJiOkB4KGFrK/RfziTA8XAMDoW/7Fap2vdBHx/aZlKBywe+xf99tgorV63Dpl1ncJW4I2Lwi1i1/xi+SAhr4hEIRZa9slb2cjqF12ihVQvvVmvhIkSRG3LvuJ0WUbVHnz4+tC6CissH8O3/fYZVK1dh3aZdOHOVwD1iMF5ctR/HvkhAndoYkCtVDoeIGHRwolXRum3rVw7eMRihYuW/Rx8E7ux+Q+418R1whUMEYqTGUdmYxV5QON4RwaH+v9MzVsCrUyzCqdFQaSPQu4vwyIiDk7s77MWX2y3DqWxg08SKy34Ok/HXoeIKDu08gXyXDujbIwgOcvL/Asbya0i/lI7s3HwUlRugsNPCKzAMEWE+t/zJQcbvwFiOa+mXkJ6di/yichgUdtB6BSIsIgw+f3jBG1F+LR2X0rORm1+EcoMCdlovBIZFIMynwU+xMu45bDFmMBgMBuMBwzY/DAaDwWA8YNhizGAwGAzGA4YtxgwGg8FgPGDYYsxgMBgMxgOGLcYMBoPBYDxg2GLMYDAYDMYDhi3GDAaDwWA8YNhizGAwGAzGA4YtxgwGg8FgPGDYYsxgMBgMxgOGLcYMBoPBYDxg2GLMYDAYDMYDhi3GDAaDwfhLYCgrQnG5Uf7rzwVbjBkMBoNx16lO24rl8/+Necu+RXK5nHgv0X2D+AB3eMS8gWPVctqfCLYYMxgMBuMuY0LeDwvxzxmv4dUX/4UNlw1y+t1Hd3Ixxo1fjMM3feHvo4DC2w8trm3Fm2Oex+dX7q+XXHZpGz54JR6Px3VCZHgkons9jolvf42zN+QMTcD+PWMGg8Fg3GVMyF7SF8F/34NqVRRmnTyCt8KV8nd3kypsndASg1Zdhabt39BXvQUHHAYiKvN7bM8miHzzGI7Pbo97UXNDjBffx8Od/4k9NxsuqTy03f+F3bteRQcbOckCbDFmMP4oVOUh5VQKcopKUaargt5gApS2cPYMRFj7dvB1qDvIqri0Bz+cugaD+ezlOChofge3FmgdEYEgV7X8hYAReUnbceBSBTQhsejX3hOK8nTs33EKVw128OvcF138bOW8gOHaSWw/eBk6h9bo0TcC7gr5CzOM2Yfw3cEsGNSO8ArthC5hHpBqrEL2sR04ekUHlWcEevcIgbPcdFNxCvbsOYcilT9i+sXAz6YMF3ZtRVK+EWJXaB94hRoarSf8QyPRzteh/vGdMQ9J2w/gUoUGIbH90N7TQsME7kCWFmVjKMCF42dxOb8E5VVGKOy08Apsh8iw5rCXbzUWnMehpMsoKq1EFR0IpcYVPq0i0L61O2ptrqkIybv2ILkYcG3bB33autT2x1R8Hnv3nEWhwhtRfWPR0l7+oh4W2laRjROHkpBZrANn546gjp0R6a2RshtycXzbQWTondCmR1+EywNXemkfdp4ugDqwO/pHN4eQargqjHE6Kh3boOfD4XCvJ2gBA66e/AkH0yvhENoL/SLcwVdl4OfNR3GNs4ebfwQ6d/RHjSiNeUnYfuASKjQhiO0XgeoP5MVYGYRR82fjcR8b2Dq6IzA8CuFm41p2YRe2JuXDWKPLgg7wKtg5e6FleHuEeds3fYRblYsjG1fj46Uf4PNjedDDFv5xCZg2dRLGDQpHMysqcrep2jsNYY9+De2jf8NjXYLhWHwI//3PJiTfpLqn8MHELelY0b+J1VhYjBkMxoPGSDKXxBEbTlyTGlwc4TW+pNfUL8nFKiFvFTn4UmtCd/sW8koXp3Ij7UctJoeKjGLpxJBK5ndTid+pus0nqQZaY+ZqMsSdp2kcUQY8TdbnynmJgSTP6URUQlnqnmTRlZp0c4wkY1FPQhdfqU7OnoQ8uZpcENpnzCHrhnkRakAJeFfy8NLzRC/dRG5+OohQc0RXrhDy4kGauWovmRakrG23+cXxdsSn2ySyNkUn3y10Yz7pphK+V5Fu81Pl1IbciSwpFmSj2zOVtFQ0uJdTEMfgAeStHVdpDXqSNLODJKN6eVTENXIcWXVObrNuF3nWX0G/44i653skw0yU5V8NJ45CGxX+ZMrOuj7Ww0LbKtePJlqzvnFqH/LIwuOknGY3/rqUxKmFdBUJf/2ELPdKsmV8c3E8VLELSDotg9Bvzs6Oksf4IbL8qoUx1p8ls6OkutW93ydZNIv+zCwSJcqfXlQe2sgE8nmaUIuBpM7vJpWn6kbmp1aTLDoGtfphdnG8I2k98iNyVuyyjuyZ2pLQ9bJRvpq8wY/NIjuvWdJBASPJ3f8xmT4ihvholESp5OmlJAqnIBL3zCzy5S9FNMd94uZFcup8sVl9VeTwy23keWpDHltVLKdbpskNB4PBuF8QVFfqYBJMkMITnYcnYGJiIhKe/ht6BzsCldnY90ECnlpwhvorSgT1HY/JiaMQ4yFt+xUteuLpSZMw8ZmR6BfuBqXhOpK+egkjXvoBJWIOWoNQttkH3m8clr4/HD60CMOVzzF1yhpkiI/YCEwmupsX4QRHxQI83LuOwpRJCRgV60s9wXJc+uplvPZ1Pky8N0YvXYYx/kpw1DPc9cYEvJukE+8yGmue4fHghXKVIXhkwiRMpm2fJF6JmBA/GgNj/KAhlcg5tAKJY+biRG1ADhGttPip5kMj7kSWEg1lo2zeHv0GD8OYZ+i9ExMwZnBntLAxoTRtK+Y8/RI2FfHwaN8fT4wci2cSJiJx4niM6h8ON6UBRafX4oVpH0uytIlEVLgtlSKBISUJshgkqCwkKVNZNGGJG7UtuCdGjaXtShiOrj50+avOwfZ/vYP1BbSkZoEIdBUKMyArNQ1V4h3Ua6uSPnEqNVTyeJpEAVE4BRQKCw3gXeHqLGUmhQXIEw4XfHvjqckT8fSjbaDljCg5/SleeG0DisRMtQ2l/+Ph2Xcipj83WR7XSUhMGI2+Ic5UJ0pxcf0MzNpYTPOq0OqRCZg8uWb8pWvi+FHoH+kBJSlF2g9zMO71rSiVCm+AARnfL8biDRfRPH4ZXo5VQzvkbbz3qAJH1y7AR7sLavXlnuMYgg6hWjMvnlC566WPCm8EBNpJn60hL8oMBuOBQj2LeV1lz6IrmSe4QDXc3EteaC15j6r2M0lSjZupP0Nm1XgucZLnIlKVQt7toSHUjBLeYxz5rpKmUQ9rXlfZw+o6T/SwRIx55Nv4AMkz4V1I3KJzdD+vIzun+ItpnO1jZFWRnNcaN9eTJ90ED5snzcZsJGVyctGOqSTMhqPpHNF0fI0cLDPzJlWdyTvnzfrYiGKy87kQyatQhZPXjkudNqTOI11lz7jrPGue8R3K0pps6kG97Q/7E7o2UTm5kbGbBD+0ITfJ9/E+ktwchpLPSoQ08z53IDNP1wwe9YzXDiG2QnnKEPKP/TVuegNu0bb8TwYQjVhGEJm2j5ZhOE/eiZHzR88hyUJ+QzpZGKum+sARp2FfyuNTRY5Ml7w2zm4IWVsqJjagnHw13EnUI4XPRLLN3Hk3XCBzu0j1KHwnke26JmRuhv7oDNJWSfPQ8es0J1lOtYLuMJkeJo2Vss10ctiKiEjxCfLd5rOkVCedsggnCGn6fHJ4/RaSLOj+/aQyh5w7epgc+nkbWfevEaSNPdV/TkHcH1lGUuqG3iJN7McYDMYfAscYPNS1mbjjNmZdxi0DU9Wt8HBciBi0YirJQmZhjZdrgcp0nDhTIHlopmLsnRmP2Z8vw4IN2TBSf07VtjM6UWeySeyjEdVG8NBNuJlyGuly+1z6/hurX4mGA7VHFb+8h4T4yfjnR6ehp+UqW/ZA75bCPdbQonv/7nATO/0rrmTepWjcO5VlLTy8u3dBkCjUm8jOlGVWDw2Cg33Eskl1IQqKhRxKtI6OhOSspuJMUpmQUaS8okJyJjl7ODoKGe4cR08POArOK/U2b5TQ+hR+aBVgTyVM+5dxGN9u3ohP3piMxUf0dNW1QWRMJ0iRASbk5V0X+8C7ecKLrqKNUcDNTfL0TCXXcV128kQUvgjwsRHrMZWWoOQ2g5Yrs7NEDxucLbx9vaREayg94dFMqIHC0a2E9Kkx2igMHtiO6pkSXu26I7a1K/ScO7oMewxhdWEQ94WKzS8itktXdOv5KMa+8TXOV6jg3fNlrFk9BW0E3WmC36YBDAbjPsLB0UEjGiOiK0dl41WgAUJ+ORqIVEOnEyy+JQw4t/RFLDpVTg21cFRJXayy45g79mX8VGACp2qJp2ZOBvVkmob3QusQN9GYGDIu4kLN2SjsEfP6Gvyrjyv1matwYf0q7M6Xy537IroI0V6mXKwZGQg3FzcEjlyDXLO+8Y6OUrAU0aHy1p2+Te5UlnVw9vZ0uRUg0FVUCu5dI1QKeYNB9KiWo+vUUdFop6Y10n4kJ52DdOJuRGHRDWlB51zh4fEbTTGtT7rTAIO4IKrRMthP2ogVbsXrQ4chcd4O5NBNh12bCZgRHygGb8F4BeculND66cYouC3CrC3G7tLGhejp5qLepq4KFZXSToazc4DmdppvuooNa7ehiBbDOcZiwMNaIRG5a0YiwM0FbgEjscZcAXSnceai0CkOdiFhCDGPR7SEujte/XYvdq+egNCm9nn3EHVwdzz+2KPo/3AvRAe7QkVHO3fffAyJfgTzjlg+aK/hN2oAg8G4r5g9uLW2tJrDWX7QW5/qU1i37jgqCAebLjPx5cwukpdF4ZTN0X/BBiwd7HFrI2EqB6+QomNJeRouZJi5m+owPL9qMYZ4y9aRc0D32ZvwnyeaS+WSCuRl56CwpBA52Xm0LWIuidou1D0nvis0lCWngUeL5nDRuqB5Cw9orIlOr6devYTKpomo2AbwblGIChT6b0TW6SRcF9cbPdLSMmmK8H2A/JzXArfbtlqUCAr2l54LU487JG4ExsQ/i1cXb8CRA0swoJlUjzHrR+w4Q8eJepNte/aCp8XqeXi4u0jDQIpQQDdStVSnICXNIMpP4ReEYIuLeX10x5Zg0TZhA6BAi2FTMMJb1BhU5GUjt7AEhbnZyDNTgPK9W7BL2ABQGXR5OA7OcvofGWWH57Fm81Zs274Xx1Ov4Oi7feHKE+iv7sbbL38k57KMFQ1gMBj3ElNFAbKy8lFhZt/uHLpI1dou/s4nc0UyksUoIwVa9uiHx2esxNtx8qs3hIeTRzP5SNM6FZc24dX+HTH0k1QpGMqYgYuX6v/8kcJ/LD788BlqsKlZp4vvuR+34YJ5INODhvdG/NeZKCouQubX8RDXCAuQ0jJIPyTFwdbOrm6vcCvU7RAd6UjlSo3y+SQkCeIp3YvNu4Wjbur1RcYgytpidpttM0cTFCQG5QntbDt+JdatXo65f38CES41Nxdj98IPcVBH6DrXFU+Obit60o3h4ezuBluho6Yi5F+vO4su/fkLfCee8Svpgv8Qgm7liVJP/NNZHyNFT+t06I4XXh4AwS+2ThG2fPY9rtIqOafeGDFUOv7/42BCRUEWsvIr6CdrOCJy7FB0EIVLUHUpRUy1xh+rfwzG/wJlWzElzAcBAS0QmrhZTjSnArlnj+HIkSPydRyXCmrPfkWq887jyE/f4OfL0jGeSuta+y7v7WIqvYky8eVODvYOjlBQL3bqinkY4EGXDWMO1r8wBZ+k1RngelDjfHjJaHTqNBzzd2ShWqWGcBIrPLtMu5CJipxzOHa0pv3HcNljNJ4f6A0FZ0LJ/tkY9+Y+K9Gxd5tby9IS1ddSzNovXydSxSNWcDZwaeZ0W8bTWHARx4+eAe/eQjweNl0/ik0fL8a0xyfg00wqW94F/UYOsvCOr3Uqcs7Wtu1EWmGtt16DslUr+CmEjU8Vsi5nSpukGqqysWP2CIxbkSq+j9tuyttIbG19JVW4NYO4hpuo5yo+NK5C9t73MC7xE/F5O6+Nw+QJUVYW8zpubJ+Ld3dSr5h64sHxb2HSLc6RTVlfYdVW4Zk2D89B4zGs+R9rqSrbOgVhPgEIaBGKxM3Cz2sZkfHp8xj31hc4elXWL8M1/PyfL3FSHAAOCt8AMdkqciAXg8G4TxjSF5BY+V1NIfJTTq2LRm3i4jRDybpyHdkx2a/u3UzOnsS9n05LqMFA0hfEypGt3cm7afQbC1G5xoxFpKf8Tmr0nGT5fiPJXDecUM+KpvNE2+tdctrCK7DS+6xSpLRD6Giy7Of/kjHNpIhqt6e+Il8NdxSjcM3bbn7xrmPIxqaivClV+6aRICHylrMlQz6TopfvOJq6iUuSpXxLPXRk+yRfq+++Wn8vuGFEcQU59HKo9ffBOSXxGrCcJFuLErZIOflymAXZ8q5kzCY5dFi3jUz0kd5t1rSMJUNGPkUSJiSQsU88RCK97QgvRF9TmQaNXHnLaGN90kzSQZQ3R9TOnsRTa0uE0AKhTk7lS4auvCi/y9xENLX+DHknxk5sM99sMFlVG/YvYOk+PTn7djShmztCdxbkhX33OyT6VpjNL6qH0vvuevLLzPZiGqewIy7NvYm7o4pwNbJSeJO/rc2UbrfCH2u7wWD8D6Dw6oTYcC1UKi0ieneRUzk4eHrCQfBorMJB6eYJN5rH1s4WHKeArWsQek5cjmWTWkqBOSL0eydn2Ct5KO2d4SScM1JvzllrDyWvhL3WGTZCNbZO0GqU4BUauDjXvAPJw2/0MvxnciS01LLcOLQYC7dY+GFdo5FaGEeEj/sYPx/5As93i0Xn9g7iu8PVJcWwsVXTVjSBUgVavOV2yfAaLbRqHrxSCxc52pizcYbWnrZZaQ+ts7XntnciS/nPenC0/VKkcGM48I6haNfSki9I73PWwl4hyF0LZxs6PkI5tQVx4BQqaFx80LrLYExZsBmHNj2LsFsFJtWDp2PfWLac0h1eYug5RdUeffr4UFkSVFw+gG//7zOsWrkK6zbtwpmrBO4Rg/Hiqv049kXCLaONlS1aIVCKokP1jTzkleioD6iCa7uheHPjPnyZIEXt1/Zd1Dmh73UtrD60Gv89pQOn9kSv6bMx1vcWy44xDT/8eI567rSeHpOR2O0+h0TfEgW8OsUinE4QlTYCvbt40zQlwp6cjkm9/GBHdCi+mouCUj2VGg97v96YsupHrHnKT7rdCuznMBkMxp1juoYzJysQ1KklLP6KI+MBY0T5tXRcSs9Gbn4Ryg0K2Gm9EBgWgTCfBj8xegvKs0/jZHImXVx0oO4xfFp3RMdQs5/8/F0YkTa/B8JmHIZe1RXzUvbjleCmj7D/2BhxI+MUTqX8iqJqNZoFtENUhD8cb6NLbDFmMBgMxgPir7YY/3buZIPEYDAYDAbjHsA8YwaDwWA8MHQXtmDV5mRUaNpiUMJAhP7RHhHfJ9hizGAwGAzGA4YdUzMYDAaD8YBhizGDwWAwGA8YthgzGAwGg/GAYYsxg8FgMBgPGLYYMxgMBoPxgGGLMYPBYDAYDxi2GDMYDAaD8YBhizGDwWAwGA8YthgzGAwGg/GAYYsxg8FgMBgPGLYYMxgMBuMvgaGsCMXlRvmvPxdsMbZCddpWLJ//b8xb9i2Sy+VEBoPBYNwW992G6r5BfIA7PGLewLFqOe1PBPuHIixiQvaSvgj++x5Uq6Iw6+QRvBWulL9jMBgMRtPcPxuqO7kYk5YDk+f1wA8Pd8NCzyW4vNIfH766FaHvLMGYgAfx7yNX4Px3K/D1sauoMNlA27o/Ep7uBo8m3F/mGTMYDAbjT0oVdn+4EOs+fRH9+sxHskIBR91ujO8xFO98uQILPz0Lg5zzflJ9ehHin/wnZs19F+/Om4M33/wvftHLX1rhgXrGVXkpOJWSg6LSMuiq9DCYAKWtMzwDw9C+nS8carcKFbi05wecumaAeWM5TkHzO8CtRWtERATBVS1/QTFcPYmfDqaj0iEUvfpFwJ2vQsbPm3H0Ggd7N39EdO4I/7oKYMxLwvYDl1ChCUEszV/9gbyrUwZh1PzZeNzHBraO7ggMj0K4r4O8iynDhV1bkZRvrG0Xx/HgVXZw9mqJ8PZh8La3st8xFuD8oSRcLipFZRXtl1IDV59WiGjfGu42cp6qy/j5+2PIMVgZIk6J5lGdYJ9yBGkVZnk4DgraBke3FmgdEYmWLmY7UlMRzu3ai5RiDm7hcejdRguUJGPLfz/Hj6evwtAsDI88PRFDw7WWd2pCu4+cRdaNMlRU6GBQ0HZ7N2i3gDEPSdsP4FKFBiGx/dDek+5OjVdx7IefcbncJMpLkJVCbU/vD0Z4h1B4mN1fdmEXtiblwyh2iwPHK6DWaOHpH4rIerphgQclW1QjP+U4Tqfn40alHkTlAHe/NmgfGQjtbTgF93I+WBqP8vT92HGKjrmdHzr37QK/2n9H1oBrJ7fj4GUdHFr3QN8IdzT2LYzIPvQdDmYZoHb0QminLgjzkCusysaxHUdxRaeCZ0Rv9AhxlnXJhOKUPdhzrggq/xgMivETBhq7tiYhXxpoWSc00Hr6IzSyHXwbDHT9edoeglpZ4vZlKWBEXtJ2HLhUAU1ILPq194TCUIALx8/icn4JyquMUNhp4RXYDpFhzVEzpY0F53Eo6TKtoxJVVI+UGlf4tIpA+9buqFVlOt+Sd+1BcjHg2rYP+rR1qZ1XpuLz2LvnLAoV3ojqG4uW9vIX5lgYt4rsE7TeTBTrONi5B6Fj50h4a6Tshtzj2HYwA3qnNujRNxzuonxKcWnfTpwuUCOwe39ENxcSDbgqjHF6JRzb9MTD4e6N57vhKk7+dBDplQ4I7dUPEe48qjJ+xuaj18DZu8E/ojM6+tfYwoZjcx9saA1VuTiycTU+XvoBPj+WBz1s4R+XgGlTJ2HcoHA0s6Ij9wzjZXw0MBrP/XQTKjWPaqp/fItE/JD2MR4xt5ENERbjB4IxkyyJsyEcbYLQjHoXxxONby8y9cuLpErIW3WQvNRa2Thf7cURlVt7MmrxIVJkFG7Qk7Ozo4hK+E7dm7yfRRP1Z8isKFVtfoU2kiR8nkZzChhI6vxuUn5VNzI/tZpkLYkj1LSY1SFdHO9IWo/8iJzV0dt0e8jUlopGeaSLI7xjMHls1k5yTWxTffRJM0kHVeN7VK6RZNyqc0QoXsjTvlEe80tFwl98gzxmY+k76eJUriRs8OvkmzShRKHQY+TVdipR7sqg58g3u98lgwJs640D7xRDZh2tlPI3wGq7m3Ug8avPkZq7DKnzSTcxn4p0m58qplXt/wdppWx4r3BJ/X5qxRn5/iqyd1oQoetX47xUN+x8upFJa1NEGVnigclWt5VM8GmoDxyx9elJXvr+V2JBDeq4p/PB0ngYSebqIYTaV1q+kgQ8vZ7k1jTQkEzmdJLmirrnInLFUsONGWRRT3VtnZx9CHly9QWxfcacdWSYFy+m864Pk6XnpVlGyE3y6SAbMV0Z8qKYUrV3GgmyohO8nQ/pNmktSakd6Ibz1CCnN+BOZClgSCXzu0n9VXWbT4RidXumkpaKhvcqiGPwAPLWjqtUenqSNLOD1JZ6eVTENXIcWXWuRid2kWf9BZ3gqCzfIxlmsiz/ajhx5Og9Cn8yZadlbW48bpVk/WitWd9ouT6PkIXHy+l3RvLrUtluqcLJ6ydkuVduIeObC+OhIrEL0qkUKfqzZLZsD9UPLSdXLYyx/uxsEiXWrSa9388S+3xmlmxX6cUptCQy4XOSJlZz/22ohJHk7v+YTB8RQ3w0SqJU8vRSEoVTEIl7Zhb58pcimuN+YiR568cQHwVHlAFPkX8O9yJ0K0EULRLJj5aHuBbFLArt+P3HVIC9n3yAnb+aoPDsjGGjBiC2Uwe0DXBG+a+ZyC+4gmPbjsFmUDx6etmCVNJdqxuH7PM5KCcKtOj5FEb374zwYDe6I8vCteu5OLfzJxR0HI/HW9vCcPZrLNmWASPviKhRiejTwg5cZSlUHs1QmZmO/JJrOP3zNbSZMBzt7AiKDqzG8p2/wqRogb7PJaCvvy2MnDvadIxCdHQ0otqHwKU8G1eu38T18weQHzoJIyKdYKrUwSm4I6JoHiFfdHRHRLbygCk/E3nF13Fp/y4UR03E4JAGWyJSgqwsIIB6FDGdo9Ge3mO4lolrhbk4vfsC3EePRVdPHroyOwR0kNoQHR2FENWvOP9rObVm/oh75kmMGDII0W42sDFm40IOTVd4oeuoJ/Fop1bwUpYgJycPuRcP4JsfCxE99jG0svdCoH4fVv10BbriJGz6YjsulLogcsBQPBSoR1bGdeh0V3G6qDUmjIyAvOGuQ263P213F9ruDq29YLp2BVev5yBp13m4jRqLLi7UwhcdwOrlO/GriY5V3+eQEOuKqmNrMOfrc6hSBaPf+OHo26kjImi/jfT+a4VXcWbHCdgMpuNNd/82pBIVTsHoGCXJNapDBEK8bXAzJweFhdk4te0Q+P7xiPO2sO19ULK11SH3wlXYtYlB15hOiAh0RNmvWSi4fgVH9uQhPOEJhNnJbWzIPZ4PjcejGZwju8Pnwtf4LvkGis/tR5rv3zC8A/XcTHm0LR9j71XaloD+mDauC5yp9a8HpwKnuwmlVyDsrqci+3o+kg/kIuSZ4Yj0CkePgMvY8M1ZlJRn4GCSDR59sgeVWSVOrluI71ON4N1jMfP5h8HRtbmywgnB8jyLjuqAiBBv2NzMQU5hIbJPbcMhvj8mxXnTShvO0/GIdbXgNd2JLKkeUOHgwOrlUv4WffHc+Fg001/FxV/VaN2lK7pQPW3TQoXizBxcz0/F/p3X0C7+CbSpykIWAtCpSww6R7dHKw8DrmVeQ2Huaey+4I7RY2PgonJC3q4PsPlSNUi5J3pNHYpQumIJ6M98hXc3nYeec0XMuOcxILDx8YmleVRdkI1yrw7oFGyD/NRfUVKSjmMFrTBjVAeoC37Giv/7BWWmKjTv8wKGt6PLoeEc1r+7HmcrFQga+A+Mi3EGZ7qGPZ+swD46xspWg/Hi09Fo5JgbzuLrJduQYeThGDUKiX1awI6rRKnKA80qM5GeX4Jrp3/GtTYTaD2299+Giuhx9oNxmLwqE8ET38NTdjuR0nEW3gk5g7Vf/oirrZ7C012bNfb67xVle/HayFexq6gZHn9/HZ649im++qUMnFMUxkwbhOCmTsjkRfn+Q3ej87rKu9Gu88TdaA03975AWou7ZRVpPzNJ9l7pTu3MrNqdWpy4U5OoSnmX9NBwNJ0nHuO+E9OEXaeTuOv0IRO3mW9JDOTC3C7SDk7hSyZtF76ju7p5XeVdXVcyz8qOW390Bmkrt6vTnGQ51TK6w9NJmJhXSdpMP1y3C2+Cm9/H0x0VvYdzIEM/K5FTzakk38d7ijstvnkC2VLrhiaTd2IET4B6RNFvk7M1AiOl5Pjb3aXdN2dP+n6QKSXnryIDHQR50XK0MeTlrTnSbtmQRt7rKXnJCp+JpJ7YmuDmd88QuiaKdQxZK7XbkDqPdJV39F3nSZ5Y3ocPizvlem2nVO7/Z+14d513UU61TPHO50iInDf8teNy6q25b7KtB921f9yfOMjez7O7mhDoPZ4PjcdDwpj3LYkPkDwT3iWOLDpHNVW3k0yRvTnbx1aRIjmvNW6uf5K4CR4234yM2VgmpxaRHVPDiI0oHw3p+NpBUqZPIjM7yH3s/I6czwrFO8lzIZL3rwp/TU68vXl6x7JsIn8dRpL5YX9CNyW0n25k7CbBE23ITapDPnRrRL0/h6FEUjMzD1rVgcw8XatApHztEGIrlKcMIf/Yb9lCWBs3iXzyyQCNOF+VQdPEFMP5d0iMnD+a2iihK4b0hSRWTfWBcyLDvpTHp+oImd5GkC9H7IaspdpsgfKvyHAnQY8UxGfitnonUYYLc0kXsR4F8Z20nX73AG1o8Qny3eazpFS3l0wLUoqnG2n6fHJ4/RaSbGZn7j1V5NSsaGLHccQpbhE5b6gkPyQ0v23P+L5tGO4Ex5iH0LWZ0DQjsi5fvuUDeHWrhxFHLTTdEqMkK1NMU7i5QSsUYSrB9evmT84V8A3wATUS9LtSuqu8/XfSKrOzkGeiHzhbePt6SYlWUHrS3aPsTXBcQ7fCMprgYPgIbSbVKCwolhLNMRUhM7OY9pL2wssHLeRdlunaLuxMojtv2rfgPv0gikLEAR0Tn0Z3O2G6VuKXo6ekZLUadNJQFPAfOw9zHvWWngkqfNGpo6/42UQ93ZwKIfHWaIKD6tqdXyQlWsCgl0aSlF3Gpcy6dw9sO1IvUiMOCHIyqUvbBNru/dGdWn5BN369Io317XDfZFsPHq6tgiA2l5ZfUPDb3n+8G/PBGpXpJ3CmQOg1zV28FzPjZ+PzZQuwIZu2lXq/bTt3gqP4rXXso6PQRlSam0g5nS63zwV9/70ar0Q7UHNfgV/eS0D85H/io9N0LnJKtOzRW8xlFW139O/uJno0xl+vSGl3gTuVZR08vLt3QZAo1pvIziwQdaU+GgQH+4htJtWFKCgWcijROjoSogNvSMWZpDIho0h5RQV1hugHzh6OjkKGO8URnh6OEGdO6Q0xReHXCgH2QooRGYe/xeaNn+CNyYtxRE/XYptIxHSSAwNMeci7LrSPh5unl2wPGqBwg5tkRFFy/Tr1QetQ+AbARzKiKC0pobXdHvfEhmqjMHhgOzhQvfJq1x2xrV2hpx55l2GPIaw2DuLeY0z/BDPePwWdTQe8MP9ZhFo4tGuK36IB9x7OEQ6icSbQlVdaUPoGCPnlMxZSrRP/q3BzhzjniJ4a38J6ZVRVVEqTkLOj9dymCExXsWHtNhTRgjjHWAx4WEvTcrFmZADcXNwQMHINcs0q0Z0+g4uChtI6QsJCQD3CW6NSSIsi7be+2oKZIGUorxRmL8XOHuKcoxgyMpAjBsDwaO7rS6d/HbxzC/iIZ4wmlBVJC6Uh9TxSq2h+amxbtW1jNhF5ODlR40k/UU8RFZW3lLyEWlVbp8FgbVrSSd+5C0JU1BUo3YuXu3TDmwfkBZnXQCNObIKqykr6XxNy14xEoJsL3AJHYo25YHlHOIoBHVQ3xLy3yX2SbUM4JZWN2LVqVP/Wdx/vwnywiOEclr64CKfKqaFWUPlQJ6js+FyMffknFJg4qFo+hZmT29brsyV4r9YIEXccBmRcvIAqKZmu0jF4fc2/0IeuRKTqAtav2o18udy5L3YRs5hy12BkoBtc3AIxck2uWd94ukDZ0/+nfdDdwTjfijuVpRmcvb382IbeS22IrC31UFE5ilC7Uy0HB6qjotFOTeskOiQnnYOkBkYUFt2Q6udc4dHUOy9NoFDI9xlknVa3RLCfuGNA4dbXMXRYIubtyKEjY4c2E2YgPlBqn/HKOVwoobXTBSy4bZjVxdhdMqLQFxag0FxYVRWolIwo7Bw04jjdknttQ9Xd8eq3e7F79YQ7Xgh/P0X4btZc7LpBN+3j5+PFTk1Falnmt2nAfaBuI2RJ5RvCmeWX4D3c4SKmERQV5JtNumqkpKRBnCcKPwQFC2rIQePRAs1dtHBp3gIe4mStj+7YEizaVkLLUaDFsCkY4U1FR3f8edm5KCwpRG52HuqCbsuxd8suUXk5TRc8HOcsp/9eiLSTFqAdrm2l0Vi7MzXoG1h8UyUqRXvMQWkjbRPLz5/HFWEiKVqgjVl0pwAhsqToQq1W3V31UMe8hrXLxiKC7raJ0hdBtc/I6EJFd+5iG5VCGkFFXjZyCktQmJONPPNo5rpe18nirnB3ZNsI2p+aXhqtblRuze+dD5aoPrUO645T74yzQZeZX2JmF8nLEvvTvD8WbFiKwbexSJjKeSjE8GSC8rQLyDDb66jDnseqxUNQ82ifc+iO2Zv+gyeaS+WSijxk5xSipDAH2Xm0LWKqRF2X7+pAN5Ylp4FHi+Zw0bqgeQsPWJj+Enp9rXeosrl9Y8u7RSFKXASpN346CaJDSktKS8sUdYt3C0CgpWffFE7jgRbNXaB1aY4WHo0iOBqjDEKwv0qUHWcfgrgRYxD/7KtYvOEIDiwZIDkoQjt+3IEzdJw4ZVv07OVpeSHgPeAuGVGQogK6kRI/ilSnpCBNMqLwCwq2vJg34I9hQ+8RugP4fvs1GOnGAWfew+gBAzBgwFDM3lEsapmp8Ce8NXQUFhyyvjm2rAH3AFNFAbKy8lFhNqB3DJ2UtWPFN9103tkdbraCIplQlH+91qCi9Gd88Z10PKUMicNDQcIk4eEd/zUyi4pRlPk14gUlMcd4BZ/O+hgpwlEPNSYvvDwAdE9nnaIt+Oz7q7RODk69R2CoeD5671B4esFNnDNGpJ07B3M/ovrMMfxSKghdgYCQYPpfAy6mXIKOCpJTtUK7UPP9pol6wzpZxjawtRZs9JtxQIdJa3Hy0ins3fERnq6Ri74MZfKipnFwEJP+KNyZbBujoAbeSbyfoPSGdAx+17iD+WCJiuRkZAgTQ9ESPfo9jhkr30aci1QO4Z3g0exWZ3wVuLTpVfTvOBSfpEorsDHjIi7V27MIj0I+xIfPUINN5UAqzuHHbRfQhL9+/+G9Ef91JoqKi5D5dTwaTv8aSGkZXSIEODo37Oo2C7dC3Q7RkY7UylAP83wSkgT5lO7F5t3CUTf1LCNjEGVlNeO94/F1ZhGKizLxdbwQxHYrNAgK8qFSp3BtMX7lOqxePhd/fyIC8tACxbux8MOD1AbQ+db1SYxua+Xsg3eGu5ut2E9TUT6u1xlR/PzFd7gsGVHEPRQk1dcUf3AbeudQW1mQhaz8CmlOm6pRVU1no+kmUg/8iG3bttHrRxzLkuwpqczE0W3f4KdfLDwik7k/PSzbiilhPggIaIHQxM1yohkVuTh77AiOHJGv45dQUHvWJVCNvPNH8NM3P+OyoBDUa9O61ry7aAWFG5qJ2meiu27peUdV9l68Ny4RnwhaxGsRN3kCoqzooTk3ts/Fuzvpjk440ol/C5OaPAMxIeurVdgqbH95TwwaPwyyE3DPULTshhjxaMqIaxvnYu7ua+Jmw5C3D3NnrMRF+gdHd8z9B0bS1DJcOH+F5qT3+YYhjG44q/PO49hRQfZ0ccmQjs54eyc43oZs7gTTjQwk0XpOpFdApcvAMXm8D+9LRq54FEwnnouLlPkPwh3JtiIHZ0U51l3H8wFH4YiS3p9xcgcO/3IZwulgk9yL+dAIE0pvlknvcXP2cHBUUC92KlbMGwAPnsCYsx4vTPkEabUGuD6mosNYMroTOg2fjx1Z1VCp1ZLRLk3DhcxS5Jw7hqM17T92GR6jn8dA6h5zphLsnz0Ob+4rlQq619xSlpapvpYizwmz60SqeMQKzgYuzZxuS97Ggos4fvQMePcW4oJlun4Umz5ejGmPT8CnmVS4vAv6jRwE99sevArknK2R7QmkFZo/yRVQolUrPyiEjU9VFi5nCtpaR1X2DsweMQ4rUul9tu0w5e1EtLZqzhRwayadnJmo5yqG3lRlY+9745D4ieDQ8NDGTcaE2zCif3QbeqeUbZ2CMJ8ABLQIReLmG1SWXTF+1muY8coreKX2egmjOkinTbxzFEZPfxOTH3KXCrCEHMh1TzGkLyCxYuQdxEg3KbEugtH6xRHN0HWkXLeDTParexeNs48j76ebResZ0smCWDkasvu7UppZ5CandiaenlpiKzwUE8rgVMR36EpysS6w0Tr6M+SdGDsxYpFvNpisEt5ZrsFSFKb+LHk7Wi1FOLZ6gey7g2i+piMnKYYL5N9d6vqZVisCAzn/fh8inP6K/eVVxMnNnTipebEdQn/9xnxFcoSmm0VRagauJoVER3ZM8RMjQEXZyJei5VSy5zajqS2121I0de07kFYvNen3YZ5wt/XIzKp9YsSk0H7bIZ/Jibfmfsi29r1RsS9WLlUPsvCyWX9quMfzwdJ4ZCzqKb+TGk3mJMv3GzPJuuFSRDDdsJJe75628D63PJZipLQDCR29jPz83zGkmSAj3o089dVaMtxRnmsWL564jtkoltSwXXW9qCL75HfNOdshctqdR1Nbv2RZyrfUR0e2T/JtNCdqL6vvBTdsXwU59HKo5fflhYtTEq8By0ny7bxqUUP5l2SYBdnyrmPkDLT12ybKbw5oSMvYIWTkUwlkQsJY8sRDkcTbTtJbzjaIjFyZLL/Xbw2zSHBOTZw9PYnWViHpPZWfyncoWVlrRJsYm/toQ+8PBpK+IFbqK9Xbmt9RaMwfMJpa4dUJseFaqFRaRPSWAjfoJIanp4O4g7MK3UW5ebrRPLaws+XAKWzhGtQTE5cvw6SWZjsr+r2Tsz2UvBL2zk5SmrIFWgXKASDVN5CXVwId3YiqXNth6Jsbse/LBLPIWOtUH1qN/57SUV30RK/pszHWt2mRGdN+wI/n6BZS5YoekxPR7Q6i+TgbZ2jtFeCV9tA6W3gmxdnBWauBQuin1hniKbyIAqFTP8eGWYPQSojKNOlx83oBblbTnaWtD3o8uxrbVoyUjt8MubhWSM2hwgERMR3gRPdttra29Z8xcjwcg0PhfxvysYbUF2W9vihtbKRgJitwNoEIDxMOrzjYOGthr+ShtNfCWQzukuE10GrV4KkMtC63ivOt437IllfbQHSCm4BTqmFrKdM9ng+WxsPWSQsNlbFC4wLnmkcSvB9GL/sPJkfS+YobOLR4IbZIgbr1MFKXmnMMx7iPf8aRL55Ht9jOaO/A05GrRkmx0XIfzVCqqCmjNGxX3V08NFot1DzVAW3NaUkTemHOnchS/rM+tB5b87aYw4F3DEW7lpYmh9w+RU37FHRu0XJqCxLGTAWNiw9adxmMKQs249CmZxF2W9GdMjwd+0ay5aB0r4tMVrXvgz4+tF5SgcsHvsX/fbYKK1etw6ZdZ3CVuCNi8ItYtf8YvkgIQ9PmSYkWrQKlXxwj1biRl4cSyYii3dA3sXHfl0ioNaLWx+Z+2tD7gwJenWIRrlVBpY1A7y7WHh/w4vwTdFhNddihKX2k/LX/oYjybJw+mYzMglLoqA/g7NMaHTuG1v/Zxt+DMQ3ze4RhxmE93QzOQ8r+VxBseXbfN0xlWTh9/AwuF+igdPFFu+goBNX7yca7jzFtPnqEzcBhvQpd56Xg0CuWn5/+2XkQsv2jYrp2BicrgtDJ4m84Mh44xnJcS7+E9Oxc5BeVw6Cwg9YrEGERYfBp8BOjTVOO7NMnkZxZgFIdgdqZbiQ6dkTo3TKif0Ab+qBg/2rT74Epksj/ymLMYDDuMsyG1nInWyQGg8FgMBj3AOYZ/y50uLBlFTYnV0DTdhASBobe4hnMXxTdRWz9dDPOlmnQbvB4PNb6f1IKDAbjjmE2tAa2GDMYDAaD8YBhx9QMBoPBYDxg2GLMYDAYDMYDhi3GDAaDwWA8YNhizGAwGAzGA4YtxgwGg8FgPGDYYsxgMBgMxgOGLcYMBoPBYDxg2GLMYDAYDMYDhi3GDAaDwWA8YNhizGAwGIy/BIayIhSXG+W//lywxZhx76lOw9bl8/HvecvwbXK5nMhgMP7KVKdtxfL5/8a8Zd/ivkx73TeID3CHR8wbOFYtp/2JYL9NzbjnmLKXoG/w37GnWoWoWSdx5K1w/G/+K8AMxv8KJmQv6Yvgv+9BtSoKs04ewVvh92bW604uxqTlwOR5PfDDw92w0HMJLq/0x4evbkXoO0swJuA+/ZuMpgLsX7EE36fr0HBV5ezaYdSrzyBKIydYQliMGYx7iTHrfRKnBlVPFYmadYbo5XQGg/FXxUiy3o8jarrEQBVFZp25V7NeR35I8CY89Ssd2g4jQzrYErcew8gjfmrCcSrSfuYv98/e6HaQKX4KYRlufKmiyZxkg5zRMswzZvw2DFdx8qeDSK90QGivfohw51GV8TM2H70Gzt4N/hGd0dHfQXwOUucZKxE0aj5mP+4DG1tHuAeGIyrcFw7yw5KyC7uwNSkfxhqN5DjwvAp2zl5oGd4eYd72tc9VKrJP4FBSJop1HOzcg9CxcyS85V2nIfc4th3MgN6pDXr0DYe7uDEuxaV9O3G6QI3A7v0R3VxINODqye04mF4JxzY98XC4u4XnNkbkJW3HgUsV0ITEol97TygqsnHiUBIyi3V0x+uOoI6dEVlXOY5vO4gMvRPa9OiLcKlylF7ah52nC6AO7I7+0c0h1n71JLYfTEelYxv0fJi2s+ICdm1NQr4sAI7joVBroPX0R2hkO/jWCMoiFbi05wecumYQZ38NHKeA0tYBbi1aIyIiCK7UOtZSno79O07hqsEOfp37ootf3T9eZ7gmtO0ydA6tqQwjZBnWx5h9CN8dzIJB7Qiv0E7oEuYBqfgqZB/bgaNXdFB5RqB3jxA4y003Fadgz55zKFL5I6ZfDPxsynBh11Yk5RuldgtjrlBDo/WEf2gk2vlKOlSLMQ9J2w/gUoUGIbH90N7TQsMoVXkpOJWSg6LSMuiq9DCYQOXgDM/AMLRvV6dzEhbG2FCAC8fP4nJ+CcqrjFDYaeEV2A6RYc1hL99rLDhPdfAyraMSVQYCpcYVPq0i0L61O2ykLLTDRUjetQfJxYBr2z7o09altj+m4vPYu+csChXeiOobi5b28hfmWOhvU7r/u/SvnkwEhPnxkzg/HEJ7oV8EnR9VGfh581Fc4+zh5h+Bzh39a2VpzEvC9gOXUKEJQWy/CFR/IHvGyiCMmj8bj/vYwNbRHYHhUQivHdcG408R9J5X2cHZqyXC24fBu0bg1qjKxZGNq/Hx0g/w+bE86GEL/7gETJs6CeMGhaOZZRW5+1TtxJRW/fHRr2oEdO6FNq6c/AXtk10nTFs1G49o5QRLiEsyg3GH6M/OJlEqYf6oSe/3s+g+WE/OzIoiKnknyCm0JDLhc5JGt6XGrCWyZ9zg4nji2Hok+eisjpaoI3umtiR03jTORy+OdyTBj80iO68Zad5Ksn60llBVl7/niNrnEbLweDn9zkh+XVqzIw8nr5+Q98WVW8j45jzNqyKxC9KJuEfVnyWzo1RiGeqHlpOrQtENMaSS+d2kPKpu80kqvbFy/Wii5czapvYhjyw8TsTaf11aewoQ/voJeVdeSbaMb05377SM2AUkXaqcnJ0ty0v9EFlOK6/aO40EKevKrbs4wtv5kG6T1pIUQVSWqDpIXmqttHBvzcURlVt7MmrxIVIk99OYuZoMcRdkwhFlwNNkfW6NAAwkeU4nuW09yaIrlgRjJBmLekpyFi7OnoQ8uZpcqBK+yiHrhnmJ/QXvSh5eer7WO7n56SBCFyq6coWQFw/SzFV7ybQgy+3meDvi020SWWvWaUPqfNJN1DsV6TY/VU5tgDGTLImzMdMPs4vqnMa3F5n65UUiNFXEwhjr9kwlLRUN71UQx+AB5K0dV0V9T5rZoVbf6/KoiGvkOLLqnNxm3S7yrL/gLVEd7fkeyTATZflXw4mjoEcKfzJlp+WBbdzfpnT/9+lfI8znR+/3SRbNoj8zS5739KLy0EYmkM+FSU51JnV+N6k8VTcyP7WaZC2R52GDS5jLrUd+RKRpv4dMbWnFmxT03jGYPDZrJxGnvUWMJHf/x2T6iBjio1ESpZKnl5IonIJI3DOzyJe/FNEc9wnqGU/2pX1R+JLJO6xNVOvcYsvBYFiGd3WFs7jxIygsyIMJSvj2fgqTJz6NR9towRlLcPrTF/DahiLwnn0xcfpzmDxpEiYJV2ICRvel3hJnQunF9ZgxayMtR4VWj0zA5MlyHvmaOH4U+kd6QElKkfbDHIx7fSv1cZUI7jkKYxMmImF4V/hQC1Cdsx3/eme90DI0CwyEq6DZhiykplUJjaRUoUr8yEGlVtH/FzDBJEx7CqdQQGFlNtSeHckflME9MWpsAiYmDEdXqXJs/9c7WF9Aa28WiECpcmSlptFaJaqkyqmtVkMlVQ5TXeVQ0MqVIY9gwqTJdf1PnID40QMR46cBqczBoRWJGDP3hHRPQ6j30Xf8ZCSOioGH6Ako0KLn07SciXhmZD+EuylhuJ6Er14agZd+KBFv4f3GYen7w+FD8xuufI6pU9YgQwxEJbRt1JUU4QRn1QI83LuOwpRJCRgV60s9wXJc+uplvPZ1Pky8N0YvXYYx/kpw1DPc9cYEvJukE+8yGmsiXan3I5SrDMEjEybV6cakREyIH42BMX7QkErkHFqBxDFzcaI2IIeIllr8VPOhIaQalTqTmE/h2RnDqZ4kUp17+m+9EewIVGbvwwcJT2HBGYOUn9JojJu3R7/BwzDmGTrOExMwZnBntLCh+pq2FXOefgmbinh4tO+PJ0aOxTNC+RPHY1T/cLgpDSg6vRYvTPtYkqVNJKLCbakUCQwpSZDFIEFlIUmZysKqJW7Y36Z0//fpXyN4V7hKkxyksAB5wumCb288NXkinn60DbScESWnP8ULr21AkZiptqX0fzw8+07E9Ofq9DkxYTT6hjhTnSjFxfUzMGtjMZ32rej4TzYbf+GaiPGj+iPSg+5MS9Pww5xxeH1rqVx2QwzI+H4xFm+4iObxy/ByrBraIW/jvUcVOLp2AT7aXVArvz888qLMYNwZ5V+R4U4c1XMF8Zm4jfq1dRguzCVdxN2zgvhO2l7vu1r0R8mMtpJHpOo0R060gu4wmR4m5VW2mU4O17o0AvnkkwEa0VNQBk0TUwzn3yExsjcRPSdZ9IIN6QtJrJq2l3Miw74sE/ORqiNkehuhXI7YDVlLSqXU+lCvaV5X2WvqOk/0mszJ/2QA0QiWVhlEpu2jDTOcJ+/EyPmj5xDxMZEhnSyMVdM2csRp2JdEqr2KHJnehihpPs5uCFlrsXKZ4p3kuRBZVuGvyYmWqfNc1CROPLGQqEp5l/TQCOPFE49x38mpFGMe+TY+QDqR4F1I3KJztGU6snOKv5jG2T5GVhXJea1xcz150k3wsHnSbMxGuX+EFO2YSsJshDo5oun4GjlYZuZNqjqTd843EGY9isnO50JE+QgnHK8dl3w8Q+o80lUe267zrHjGTYzZzb0vkNbi6YPwPDFJ8hxvMcYSRpL5YX9C1yYqJzcydpPkidbnJvk+3keSm8NQ8lmJkGbe5w5k5umaMwI6hdYOIbai7oSQf+yvp9S1NN3fxrp/d/WvnHw13EksX+EzkWyrP8nJ3C5SPQrfSWS7jnrG87rK/exK5lkWIp32M0hbWf6d6NxsCt3h6SRMzKskbaYfrjvJaEjxCfLd5rOkVCedsginG2n6fHJ4/RaSXCnnuR/UeMa8lsQ88zp5/bU3yKx5y8kXuy+Skttwz63uxxiMJlG4wU0rqI8JJdevQy+liih8A+BjI+yoqSdRUgKLb/1VZiNL2GpTn8HW21dKs4bSEx7NpB264KbJn2Qc4enhKKaZSm+IKQq/VgiwF1KMyDj8LTZv/ARvTF6MI3q6FlNPJaaT/GzUlIe860IbeLh5elHf/M5x9PSAo1Q5bpTQshR+aBVgL7bHmHEY327eiE/emIzFR/TU6tkgMqYTpNpNyMu7LnpGvJsnvJqqXNsd/bu70VbSMn+9IqXdIepWDyMuRIhmpeOVlSklClSm48SZArEdMBVj78x4zP58GRZsyKbS46Bq2xmdqDfZJPbRiGojuOMm3Ew5jXTZ4XTp+2+sfiUaDnQ9rvjlPSTET8Y/PzpNdYWDsmUP9G4p3GMNLbr37w43qdO4klnnxf4eHGMeQtdmYqHIunyZ+lW3Cw/v7l0QJIrwJrIzZZnVQ4PgYB9xnEh1IQqKhRxKtI6OlE9qUnEmqUzIKFJeUSE5k5w9HB2FDHdKY92/u/qngJubVuyPqeQ6rtef5AjwsZHrLkHJbb7aW5mdJXrY4Gzh7eslJVpBSedW3bSXP1hCG4XBA9tRPVPCq113xLZ2hZ5zR5dhjyGsLgzi/iAKpARH17yDd+b+C7NmPIcnH2qH1nFvYldBY40x57doAINBJ6Mb3EWjRqAvLEChuZ5VVaBStHIc7Bw0FpTMhKsb1mJbEb2Jc0TsgIfFtNw1IxHg5gK3gJFYk2tWoO40zlwUZjstLyQMIeZBSJTaIzaDbFrVLRHsJy08hVtfx9BhiZi3I4caXju0mTAD8YHSImC8cg4XhAWUTuLgtmG/aTGmlcv9M8AgGiQ1Wgb7ia9umQq34vWhw5A4bwdyaNPs2kzAjPhAMXiGVo5zF0poC+nCFNwWYbRyU+4ajAx0g4tbIEauyRUNpQRPjbUUvEZ0lVLSnULl7CAHCJHqmrNSA84tfRGLTpVTQy0cVVI3rew45o59GT9Rw8GpWuKpmZNBPZmm4b3QOkTaLBgyLuJCzdko7BHz+hr8q48r9ZmrcGH9KuzOl8ud+yK6CONoysWakYFwc3FD4Mg1MB923tFRCpYiOlRWmn3xexDkoBEsJoGuvNJMxreGs7eny60AvbeiUnDZGqGi+iBC9Kg2SDnUUdFop6Z10n4kJ52DdOJuRGHRDal+zhUeHrIO3yGNdP936F9j6GLs3kzSOz3dXNSf5KiQJjk4Owdobqf5pqvYsHYbpGkfiwEPa+XxDxDHP6DB+OtOn4E07e0QEhYiBwc2gbo7Xv12L3avnoDQpvZ59wpVOEa99hbmzFuEpR8sxYK3nseQtnQzQ3Uh7+d/Y+KsPXJGy/w2DWAweA+4u0i7VVJUAGpja6lOSUGaaIgU8AsKbrzI6Y5hyaJtEB3JFsMwZYQ3TaTeU142cgtLUJibjbyKOlNXvncLdgmGgNOgy8NxcJbTraIMQrC/9FyYsw9B3IgxiH/2VSzecAQHlgyAuIcQPKMfd0B4bMgp26JnL0/Lk4HW6dGiOVy0LmjewgOiHW8SJYKC/aXnctTjCYkbgTHxz+LVxRtw5MASDJAqhzHrR+yQKkfbnr3gSZNJRR6ycwpRUpiD7DzqNYk5JWqrrX0ud6dYePZbfQrr1h1HBeFg02UmvpzZRfLyKZyyOfov2IClgz1ubSRM5eAVUnQsKU/DhYyahYGiDsPzqxZjiLdsHTkHdJ+9Cf95orlULqlAXnYOCksKkZOdR9si5pKo67TFhe+3UicHudTbHWO9vvYESGVTGy99S3i3KESJG0Cqc6eTIB7G0JLS0jJpivB9gPyctzGcxgMtmrtA69IcLTyaekm1ht+uf43h4eHuIg0DKUJB/UmOlDQpcl/hR+fbbexkdceWYNE2YQOgQIthUzDCm1Yqjn+uOP659ca/HHu37BI3+ZymCx6Ou+Wsf/Dwnug16U288co/MPW5qXhp1jJs3L0Uj4tja0T2nu1SPitY1gAGowGmigJkZeWjomY+8s5wdxMCU+h3Rfm4LnqFAqX4+YvvcFmwx0q6ED4UJO3EazHiyqez8HGKcGxGDfMLL2NAU+H+KMKWz77HVVo+59QbI4ZKx4BNo0FQkI9UL9cW41euw+rlc/H3JyLgUnNz8W4s/PAgdHQh0nR9EqOtuX+8N+K/zkRRcREyv46HYD9uhSYoSAyKopWj7fiVWLd6Oeb+/QlE1FWO3Qs/xEEdoYamK54c3Vb0ZO4KdLGutWfWo4IkKpKRLEYZKdCyRz88PmMl3o6TX70hPJw8mslHmtapuLQJr/bviKGfpEpHvsYMXLxU/+ePFP5j8eGHz1CDTbWFGt9zP27DBfNApgfNbY4xKS2jS4QAB1s7u7q9wq1Qt0N0pCOVK4H+fBKSBPGU7sXm3cJRNwe7yBhEWVnMeO94fJ1ZhOKiTHwdL2xab83d0z8ezu5usJUmOfLrJjlKf/4C30mTnC74DyGo/iRvDPXEP531MVKER0UO3fHCywPQ9LTfgs++v0qtBQen3iMw1OcWunzfMaGiIAtZ+RXS6YYVeGdf+MhBcKg9kbLMH62HjD8iZVsxJcwHAQEtEJq4WU5UwK2ZZLhNdFcrPk+qysbe98Yh8RPhWRwPbdxkTIhqMM1vbMfcd3eixCQcj8XjrUmhDRbr+piyvsKqrcKzLR6eg8ZjWHOhxgrknD2Go0eO4MiRE0grNH+YJaBEq1Z+UAi2vyoLlxs8b6zK3oHZI8ZhRSq9z7YdprydiNa3MiZmVOScxbGjQt1HcCKtsN7zcgFlq1bwkypH1uVMaZGqgcpox+wRGLcild5ni3ZT3kbinVRulWrknT+Cn775GZcFm8mpoHV1bnKCm0pvokx8p5mDvYMjFNSLnbpiHgZ40GXDmIP1L0zBJ2l1Brge1DgfXjIanToNx/wdWahWqSGcxArPztMuZFIZnauV0ZEjx3DZYzSeH+hNx8SEkv2zMe7NfXTbdh+oyMXZYzXtoNfxSyioPUa3TvW1FLP2y9eJVPGIFZwNXJo53ZbxNBZcxPGjZ8C7txD13HT9KDZ9vBjTHp+ATzOpbHkX9Bs5yMI7vta4le7fXf1TuDWTNrCmEhRKkxzZe9/DuMRPxA03r43D5AlRt9xM3tg+F+/upF6x8Ego/i1MavIc2YSsr1Zhq3CEQL3NQeOHQZz2fyDKtk5BmE8AAlqEInGz9Ly++tw3WLHxBK7WPgUqwNEPF+GbLHFCwr5teyndGnIgF4NhFUP6AhIrRnRCjFSUMIsS5dTE2dOTaG0VYuQlVTyi8h1KVl6sixyV0JMz78QQOzEitRkZvKou2pfWYiEaU0/Ovh1NqJEn1MKQF/bJoZHlX5JhjkKUrlBX3cW7jpG+p+i2TSTUOxC2/qRl7BAy8qkEMiFhLHnioUjibceL7eRsg8jIlcnkzgIuy8mXwxzlfppdvCsZs0kuSbeNTPSR3i3VtIwlQ0Y+RRImJJCxTzxEIr3tCC/0h7MlQSNX1ov2bBg5WxePWkX2TQuSIl9th8hpDRAiOc1+/YezjyPvSy+UShjSyYJYOcq2+7tikjFjEekpv5NaE3UuRg2vGy7JDjzR9nqXnLYQDi+9zypFSjuEjibLfv4vGdNMiqh2e+or8tVwCzIyu4Sx2ij0vYlI5qp98nvXVFZDPpOil+80mtr6Rcdm6Drx3fDG6Mj2Sb5W33m3/l5wQx2uIIdeDpUiwi1dnJJ4DVhOkq2GCVvgNnT/t+qfJfRJM0kHUd4cUTt7Ek+tLRFCC4Q6OZUvGbryohSRbnH+yujPkHdi7ER94JsNJquEF5ZrsDT++rPk7Wgh+htE2eoFUjPt/zgYSPqCWKmvVA+l97+NJPeDh4iayom3cSYePt7E3UFVOwc4hyjy5iHL2lbDH2y/wfgjovDqhNhwLVQqLSJ6d5FTlWjRKlAOsKnGjbw8lOjoDlDlinZD38TGfV8iQYzeNaP6EFb/9xR0nBqevaZj9ljfpr0LYxp++PEc3cGr4NpjMhK7yYemvC3sRDfMHOppu9dFZ6ra90EfIdqTVODygW/xf5+twspV67Bp1xlcJe6IGPwiVu0/hi8Swm55FFsfHrZ2dMrJf9XAKd3hJYb+UlTt0aePD4S3eiouH8C3//cZVq1chXWbduHMVQL3iMF4cdV+HPsioV60J2fjDK29ErzSHlpnKVJVgodGq4Wa56HUushpDeCoTGw5cApbuAb1xMTlyzDJPFqZfu/kbA8lr4S9s5OUZusErYbWp9DAxdlOSqN1+Y1ehv9MjoSWWpsbhxZj4RY5Utcco5FaGEeEj/sYPx/5As93i0Xn9g7iu8PVJcWwsW0so3ooVVIsAfUynbVyu7TOVGbityK8Rgutmqfy0MJFjjZuKCOLcA7w9HQQT0asQj00N083K6cyHG2/ufzN4cA7hqJdS0u+IL3PWQt74Z1xey2cbRSwFcqpLUgYHxU0Lj5o3WUwpizYjEObnkXYLSOTzLgN3f+t+mcJZYtWCJQmOapv5CGvRAejMB/bDcWbG/fhy4QQ2SuW+66s6XtdG6sPrcZ/T+nont0TvabPxljfJmc9nfY/4Mdz1AuntqTH5ETUTPs/Dgp4dYpFOJ0gKm0EencRHh/wcAnvjihPunOpuoH8nFwUlAmP4lRwixyBud9vxqyuTT/zZz+HyfgdlCP79EkkZxagVEegdqZGpmNHhLrffnBLHUakze+BsBmHoVd1xbyU/XgluKmjrNvAWI5r6ZeQnp2L/KJyGBR20HoFIiwiDD5N/rTk3cCI8mvpuJSejdz8IpQbFLDTeiEwLAJhPg1+4vHPiOkazpysQFCnlrD0K46MB83d07/y7NM4mZyJglIdqHsMn9Yd0THU7Cc/fw90wz2/RxhmHKZb7q7zkLL/Ffzeaf9AMZQgIykJKdnXoeMd0ZzKKuo2ZcUWY8YfhHuwGDMYjD82f7XF+Hfwp9+gMxgMBoPxZ4d5xow/DLoLW7BqczIqNG0xKGEgQv9wz4oYDMbdRYcLW1Zhc3IFNG0HIWFg6B3GcPx1YIsxg8FgMBgPGHZMzWAwGAzGA4YtxgwGg8FgPGDYYsxgMBgMxgOGLcYMBoPBYDxg2GLMYDAYDMYDhi3GDAaDwWA8YNhizGAwGAzGA4YtxgwGg8FgPGDYYsxgMBgMxgOGLcYMBoPBYDxg2GLMYDAYjL8EhrIiFJcb5b/+XLDFmNEE1Ujbuhzz/z0Py75NRrmcymAwGLeiOm0rls//N+Yt+xbJ98N46L5BfIA7PGLewLFqOe1PBFuMGdYx5eGHhf/EjNdexYv/2oDLBjmdwWAwmsSEvB8W4p8zXsOrL/4LG+6h8dCdXIxx4xfj8E1f+PsooPD2Q4trW/HmmOfx+ZUH4CUb83H8s1mYMLQPYjpEIDK6BwaMnYGvzje9Q2CLMYPBYDD+pFRh94cLse7TF9Gvz3wkKxRw1O3G+B5D8c6XK7Dw07O4rz5ExWl88EQ0YsfNxqpv9+BY0lmcOXkA2z5fjI9+uka3KNZh/4Ti/yCGqyfx08F0VDqEole/CLjzVcj4eTOOXuNg7+aPiM4d4e9A92mmbCzpG4y/76mGMmgU5s9+HD42tnB0D0R4VDh8hTwCZRewa2sS8o01qsSB43mo7Jzh1TIc7cO8YV+z7avIxolDScgs1oGzc0dQx86I9NZI3xlycXzbQWTondCmR1+EuyvE5NJL+7DzdAHUgd3RP7o5hFShD9uFPji2Qc+Hw2kfxKz1MOYlYfuBS6jQhCC2X3t40hsbpZHfXqcmYz92nLoKg50fOvftAr/af4jVgGsnt+PgZR0cWvdA37bAJdrny0WlqKwygCg1cPVphYj2reFuI98i0ECOHMdDodZA6+mP0Mh2dfK2SAUu7fkBp67R8uUUAY5TQGnrALcWrREREQRXtfyFQHk69u84hasGO/h17osudR2A4ZrQ18vQObRGj75URySx1MOYfQjfHcyCQe0Ir9BO6BLmAan4KmQf24GjV3RQeUagd48QOMtNNxWnYM+ecyhS+SOmXwz8bMpwYddWJOUbpXZzHHiFGhqtJ/xDI9HO16G+x2DMQ9L2A7hUoUFIbD+0FwbVAlV5KTiVkoOi0jLoqvQwUCuotHWGZ2AY2rfzRX1RGpGXtB0HLlVAExKLfu09oTAU4MLxs7icX4LyKiMUdlp4BbZDZFjzWl02FpzHoaTLtI5KVBkIlBpX+LSKQPvW7qgdVlMRknftQXIx4Nq2D/q0dantj6n4PPbuOYtChTei+saipb38hTkW+luRfYLWm4liHQc79yB07ByJmil0d+eQAVdP/oSD6ZVwCO2FfhHu4Ksy8PPmo7jG2cPNPwKdO/rXyrL+3IpA9Qd9Efz3PahWBmHU/Nl43McGto7uCAyPQnjtuDYYf4qg97zKDs5eLRHePgzetcbDClW5OLJxNT5e+gE+P5YHPWzhH5eAaVMnYdygcDSzrCL3gCoce7MLer2ThCpVIAbNXIxZT3WFD/Jx/shR3Gg7FoPbmk/4BgiLMeN/CT05OzuKqOjQQ92bvJ9lpElnyKwolTAX6MURhTaSJHyeRvTGLLIkTi2nm18c4R1bk5EfnSU6WqJuz1TSUtEwj3xxPHEMfozM2nmN0JpI5frRRMvVfc+pfcgjC4+Tcvqd8delJE4tpKtI+OsnaEsFKsmW8c0JnY5EFbuApBuENPM+PESWXxVKboiBpM7vJuVRdSPzU4UbG6f99jr1JHP1EEINGO2jkgQ8vZ7k1jTDkEzmdJLkqe65iKSdmkk6qIQ6zC+OqFwjybhV50QZClTtnUaClA3zSXl5Ox/SbdJaklKTuSFVB8lLrZUW7q25aH1u7cmoxYdIkdxOY+ZqMsSdF79TBjxN1td1gCTP6ST3tSdZdMWSfI0kY1FPQhdfqXzOnoQ8uZpcqBK+yiHrhnmJ8gPvSh5eel6WKyE3Px1EqDmiK1cIefEgzVy1l0wLstxujrcjPt0mkbVmnTakzifdRFmqSLf5qXJqA4yZVG9tCGehTEEfNb69yNQvLxKhqSKGVDK/mzReqm7ziaAqFnWaU1BdHkDe2nGV9l5PkmZ2kGRUL4+KuEaOI6vOyW3W7SLP+ivodxzVhfdIhpkoy78aThyFuaDwJ1N2Wh7Yxv2tJOtHa836Rsv1eYQsPC7MoLs8h/RnyWzZLqh7v08kUzGLRNXoMpWHNjKBfJ4m1NJwblWTrCVxdfphdnG8I2k98iNyVuiybg+Z2lKQT+N8ot47BpPHZu0k1yypoIiR5O7/mEwfEUN8NEqiVPL0UhKFUxCJe2YW+fKXItHu3BdKNpAxHnQ+UR0Ie+mAaNPuhFtsORh/PXi4ujpT35VCClGQJ7gMvuj91GRMfPpRtKErpbHkND594TVsKPFE34nT8dzkSZg0SbgSkTC6L0KcOZhKL2L9jFnYSHf8qlaPYMLkyXIe+Zo4HqP6R8KD2tnStB8wZ9zr2FpKqwruiVFjEzAxYTi6+tCpW52D7f96B+sLaMuaBSLQVVBJA7JS0+g+U6KqSvrEqdRQiQ2nXoVJmK8U6vkpFFbUuPbQh4izW6RB2m+vUwm/cUvx/nAf6mUYcOXzqZiyJoP6WBRionnFnDQvB4VHe/R/YiTGPkP7nTgR40f1R7ibEoai01j7wjR8nCE911KGUDlOMpNj4gTEjx6IGD8NSGUODq1IxJi5J8S8jaDeR9/xk5E4KgYeoiegQIueT9NyJuKZkf2k+q4n4auXRuClH0rEW3i/cVj6/nD40PyGK59j6pQ1kJpCaPtrOyB0wQI83LuOwpRJCRgV60s9wXJc+uplvPZ1Pky8N0YvXYYx/kpw1DPc9cYEvJukE+8yGmue4VHvRyhXGYJHJkzC5FrdScSE+NEYGOMHDalEzqEVSBwzFydqH7fVjaXVMz1SjUqdScyn8OyM4QkTkZiYgKf/1hvBjkBl9j58kPAUFpypO8CsUwvpg7J5e/QbPAxjhDGbmIAxgzujhY2J6vJWzHn6JWwq4uHRvj+eGDkWzwjli/oeDjelAUWn1+KFaR9LsrSJRFS4LZUigSElCbIYJKgsJClTWVi1xA37q0Rwz1EYS+tMGE69LnEKbce/3lkv5rmrc4h3hSud6wKksACSqeiNpyZPxNOPtoGWM6Lk9Kd44bUNKBIz1baU/o+HZ9+JmP5cnT4nJoxG3xBqe0yluLh+BmZJxoOO/2Sz8RcuaY5EetCdaWkafpgzDq8LxsMiBmR8vxiLN1xE8/hleDlWDe2Qt/HeowocXbsAH+0uqJXfvabq0I/YWygIqTWGjIxBzWHFbSMvyoz/IYQduZO4I/chE7eZ78gN5MLcLtLuVuFLJm23tFvXk6Mz2hKlkEfVicxJFrfZVtCRw9PDpLzKNmT64VpfRCT/kwFEI7RDGUSm7aPfGc6Td2JkDyV6DhGLNqSThbFq6glwxGnYl6RMvLOKHJneRiyXsxtC1paKiQ2gO/V5XeWdelcyr8Yzbpj2O+s05n1L4gOknT3vEkcWnaP90O0kU2RvyPaxVaRIylqPm9/HE7oI0l20Axn6WYmcaoXineS5EMl7VIW/Jidaps5zUZO497NqvYKqlHdJDw1H03niMe47OZVizCPfxgcQuh5T++lC4hadoz3VkZ1T/MU0zvYxsspSB8y5uZ486SZ42DxpNmajLC9CinZMJWE2Qp0c0XR8jRwsM/MmVZ3JO+eb0p1isvO5EFnPwslrxyUfz5A6j3SVPcWu86x4xtTTnddVHtOu80RPt4abe18grcXTBxVpPzNJ8hybyF+HkWR+2J/QtYnKyY2M3WTJ77lJvo/3keTmMJRIw2re5w5k5umaMwI6D9cOIbai/oeQf+yvPzdqaLq/+eSTARrRS1YGTZOS7uocKidfDXcSy1f4TCT1TcUFMreLVI/CdxLZrrM03xqjPzqDtJXl32lOspxqGd3h6SRMzKskbaYfrjvJaEjxCfLd5rOkVCedsginG2n6fHJ4/RaSXCnnuecYyZXFvcSTAE7dg/xj2evkmYE9SXTHjiSmz9/I1MU7SWbd0FvE6n6M8ddF4eYGrTDyphJcv66XEkUU8A3wgY2wGaa715KSGi/GnEpkZ+WJO3rO1hu+XqIbZgUlPD2aSV64BQ/L0dMDjnJdN0poiQo/tAqwF/MbMw7j280b8ckbk7H4iJ5quA0iYzpBeqppQl7edbENvJsnvKgF+M38zjor00/gTIGQSnMU78XM+Nn4fNkCbMimsuNUaNu5E6gz1ghNcDB8hDGgXlxhAfUQmkLbHf27u1Ffg7bx1ytS2h2ibvUw4kKo6aU9KMnKlBIFKtNx4kyB2C/aAeydGY/Zny/Dgg3Z1MvnoGrbGZ0sdcAc+2hEtRH0wISbKaeRLjucLn3/jdWvRMOBrscVv7yHhPjJ+OdHp6Gn5Spb9kDvlk3pjhbd+3eHm9RpXMm8O2E4jjEPoWszsVBkXb5M/arbhYd39y4IEkV4E9mZsszqoUFwsI84TqS6EAXFQg4lWkdHQnJWU3EmqUzIKFJeUSE5k5w9HB2FDHeKI51fjqLumkpvSEl3dQ4p4OamFftjKrmO+qbCFwE+NnLdJbBoKixQmZ0letjUeMDb10tKtIKS2odmQgUUzvLxjIQ2CoMHtqN6poRXu+6Ibe0KPeeOLsMeQ1hdGMQ9hs6r4pvCzoGO/X4snvoO1mz5GSdOncLR3Rux7J8D8PALP6Kpmf5bNIDxJ0fh5g7RHhE9XQgK6xmVqopKyUBxdnDQNFYP09UNWLutiN7DwTGWKpiWpuWuwcgAN7i4BWDkmlyz8nQ4feaieHTL2YUgLMQ8eoiiUMgKaIBBnMxqtAz2o+aLllm4Fa8PHYbEeTuQQxtk12YCZsQHioEnMF7BuQslYhuUwW0R9nsW499Tp+Eclr64CKfKhcdnCijoolN2fC7GvvwTCkx0IWv5FGZObiuW3QgVzS9+INBXS0uCKMdAQY6BDeTIU2NtLxl5XaWUdKdwjnCQA4RIdc1ZqQHnlr6IRafKqaEWjiqpm1Z2HHPHvoyf6AaDU7XEUzMng3oyTcN7oXWItFkwZFzEhZqzUdgj5vU1+FcfV+ozV+HC+lXYnS+XO/dFdBHUwZSLNSMD4ebihsCRa5Brpoy8o6MULEV0qKw019LfgSAHjWDYCXTllWYyvjWcvb189EjvpfNEMLwNUVE9EKFzq9og5VBHRaOdmtZJ+5GcdA7SibsRhUU3pPo5V3h4NJ5rt0Pt8bKhZltxN+cQXYzdm0l6p6ebC+EItpYqVFRKdXJ2DrBgKhpjuooNa7ehiBbDOcZigGQ86PgHiOMf0GD8dafP4KJkPBASFiIHBzaBujte/XYvdq+egFB5GO4neoO8W1H44OE31mH/+Sxknv0G/+zkAI5uulM/+w++lTfulvhtGsD4U8N7uMNF3GgSFBXkmxmkaqSkpEG0IXSHHRTccIbqcGzJImwTvdgWGDZlBLypBpGKPGTnFqKkMBfZeXS3L+dG+V5s2SUs9hw0Xahn5iynW0VJ6/SXnmlRbyEkbgTGxD+LVxdvwJEDSzBA3EFQO5L1I3YIz/voTrhtz17w/F1a/NvrrD61DuuO0/5Sj6PLzC8xs4vkpdBMUDbvT73LpRh8B0ZWlGOOIMec+nKkSOVSap/L3SmNTyZoB7Bu3XFUEA42XWbiy5ldpJMKCqdsjv4LNmDpYI9bGwlTOXiFFB1LytNwIaNmYaCow/D8qsUY4i1bR84B3Wdvwn+eaC6VSyqQl52DwpJC5GTn0baIuSTqOm1x4fut1MlBLpXTwKNFc7hoXdC8hQfEtdoSej316iVUNk1ExTaAd4tCVKDQf+qNn07CdXHC6ZGWliluVHm6iZWe8zaG03igRXMXaF2ao4XH7TyFvJtziIeHu4s0DKQIBXQjVUt1ClLSpMh9hV8QGpkKC+iOLcGibcIGQIEWw6ZghGQ86PjniuOfW2/8y7F3yy4I6z+n6YKHb208Hjh2trJOKNpgyHOjERvqC792gzE9visE8ZDKi0hONZsbDbCsAYy/DqYKFGRlIb+ibiLxzu5wsxWmmAlF+ddFgyBS+jO++E46ulOGxOGhoPrbS+OVTzHr4xToqfF26P4CXh5Ad7ZNULTlM3x/lZbOOaH3iKHSsewt0AQFiQFF9Ca0Hb8S61Yvx9y/P4EIl5qbi7F74Yc4qKPeqKYrnhxtxfO8A35rnRXJyVKQjqIlevR7HDNWvo04+R7CO8Gj2X07I6uDLta19sx6VJBERTKSpQ6gZY9+eHzGSrwdJ796Q3g4eTSTjzStU3FpE17t3xFDP0mVTlSMGbh4qf6PGyj8x+LDD5+hBpvqHDW+537chgvmgUwPGt4b8V9noqi4CJlfx4sbTEuQ0jL5V+g42NrZ1e0VboW6HaIjHalcCfTnk5AkiKd0LzbvFo66OdhFxiDKymLGe8fj68wiFBdl4ut4bzm1ae7eHOLh7O4GyVQUIf96raWgpuILfCf+kIeSLvgPoYGpaAz1xD+d9TFS9EKYRHe88PIANGk9irbgs++vUtvEwan3CAy9HeNxXzGhoiALWfkV9JMAD3cPNykokeTj6tUae8vDxkYtpXNqqFXW+/FH6yHjrlKGrVPC4BMQgBahidgsP1aCwg3NxIlpol7YdXG3X5W9F++NS8QnwgTjtYibPAFR9WboDWyf+y52Uq+YUwYj/q1JTR8FmbLw1aqtohfAew7C+GGSJ1SRcxbHjh7BkSNHcCKtsNbTqEHZqhX8FILRrkLW5UzJwNdQlY0ds0dg3IpUep8t2k15G4mtb2UFbs1vq9OE0ptlEF8Jph6Ig6OCOoFTsWLeAAhvNxhz1uOFKZ8grc5+3WOqkXf+CH765mdcFurkVNC6Ojc5wU2lN1EmdQD2Do5QUC926op5GEC9eWLMwfoXpuATax2gxvnwktHo1Gk45u/IQrWKGhrRaJci7UImHedzteN85MgxXPYYjecHekPBUZ3bPxvj3twHa/Gxd5WKXJw9VtMOeh2/hILaY3TrVF9LMWu/fJ1IFY9YwdnApZnTbRlPY8FFHD96Brx7C/F42HT9KDZ9vBjTHp+ATzOpbHkX9Bs5yOJ78papQM7ZYzgqtukE0gobzqC7O4cUbs0gmYoSFIoPjauQvfc9jEv8RPxFPl4bh8kTom65Ib6xfS7e3Um9YuqJB8e/hUlNGw9kfbUKWyXjgUHjh6H5bcvn/lC2dQrCfAIQ0CIUiaJh5eHasSNaCYIwXMSOrRcluZuuYdtPJ1FNpxnv0gGd2jQhKTmQi/FXxJBOFsRKEY9179pS9ElkZgcpnVM7E09PLbEVHngK+TgV8R26klxsEPmnP/MOibGTonGbDV4lvnNYQ8OIT6EW/dm3SbRayK8krV7YR6SgxnLy5TBHMTpTrKvm4l3JmE1y2KNuG5noI0Uia1rGkiEjnyIJExLI2CceIpHedoTuMGkbbUnQyJW3iJS8zWhqgd9Up9l7tqrouqhyYyZZN1yKqKWWivR693Tte8TmWIqStSRHiSqyb1qQFPlqO0ROa4BuB5nsV/e+JmcfR96XXiiVMNMFVfd3xSRjxiLSU34nNXpOslyfkWSuGy5FetOx1vZ6l5y20AHpfVZhfDniEDqaLPv5v2RMMymi2u2pr8hXwy2Ms9nFu44hGwVZNhHJXLVPfu+ayn7IZ1L08p1GU1u/6FgPXWflXVAd2T7JVxpDS5fV94Ib6lcFOfRyqBQRbunilMRrwHKSbDVM2ALlX5JhjvJcNbsEedZy1+aQYCpq3pHniNrZk3hqbYkQWiDUyal8ydCVF+V3mZuIptafIe/E2In6wDcbTFbVNx6Nx19/lrwdLUR/gyhbvUD23aKN9x8DSV8QK/WV6mHt++76c2R+dwex3ZytH+kxMp482TeEOIq/ReBAOs8+btEW1PAH228w7ioKL3SKDYdWRb2kiN7oUvPcTtkCrQLlgKDqG8jLK4GObtJVru0w9M2N2PdlAsTA21qqcWj1f3FKx0Ht2QvTZ4+Fb5OaY0TaDz/iHN1Iq1x7YHJiN/m4k4etnbrR8R6ndIeXGDZLUbVHnz5CRDdBxeUD+Pb/PsOqlauwbtMunLlK4B4xGC+u2o9jXyT8hkhJDjbOWtgreSjttXAWw8Ypv7FOWyctNLQshcYFznZyIu+H0cv+g8mRWqhwA4cWL8SWmhMJMzgbZ2jtFeCV9tA6S8+apDRlbVqdnHhotFqoedpurYuc1gDOFna2HDiFLVyDemLi8mWYZB6tTL93craHklfC3tlJSrN1glZD61No4FLXAfiNXob/TI6kekM9mkOLsdBSB4xGanEcET7uY/x85As83y0Wnds7iMdx1SXFsLFtPM71UKrE52iCl+mslduldZYi+WV4jRZaNU/loYWLHG3cUEYW4Rzg6elAvXD5b0tQD83N000KZmoE1RNbc/mbw4F3DEW7lpY8HFm/FDX6pYCtUE5tQcL4qKBx8UHrLoMxZcFmHNr0LMJuGZlkBk/HWTyCMIeD0t0sMvkuziFli1YIlKLoUH0jD3klOjq7VXBtNxRvbtyHLxNCZK/YytyiVB9ajf+e0oFTe6LX9NkY27TxgDHtB/woGQ/0mJyIbnc8z+81Cnh1ikU4nSAqbQR6d5EfHyjb4u9rVmBStBuUVVnY/3+f4oudl1BmG4hHXv8KG16LrvtlNguwn8P8X6U8G6dPJiOzoBQ66t85+7RGx46h9X+e8TYxps1Hj7AZOKxXoeu8FOx/JdiKkbtdjCi/lo5L6dnIzS9CuUEBO60XAsMiEObT4OcRrUI3BPN7IGzGYehVXTEvZT9eCW6qVXejzv8hTNdw5mQFgjq1hKVfcWQ8aO6ePpdnn8bJ5EwUlOpA3WP4tO6IjqFmP/n5ezCmYX6PMMw4rKcO9Tyk7H8FTU7TPwXlyP7lKH65XAzi4IO2naMR7GJp81Yfthgzfjd3fzG+G9zpYsxgMO47f8nF+LfBNvwMBoPBYDxgmGfM+P3oLmDLqs1IrtCg7aAEDAz9Yzzk0V3YgtWbk1Fu3w6Dxz+G1n+4Z08Mxv86OlzYsgqbkyugaTsICQNDb/k63V8VthgzGAwGg/GAYcfUDAaDwWA8YNhizGAwGAzGA4YtxgwGg8FgPGDYYsxgMBgMxgOGLcYMBoPBYDxg2GLMYDAYDMYDhi3GDAaDwWA8YNhizGAwGAzGA4YtxgwGg8FgPGDYYsxgMBiMvwSGsiIUlxvlv/5csMWYwfhfozoNW5fPx7/nLcO3yeVyIoNxd6lO24rl8/+Necu+xX1RM903iA9wh0fMGzhWLaf9iWC/Tc1g/I9hyl6CvsF/x55qFaJmncSRt8LlfyCewbhbmJC9pC+C/74H1aoozDp5BG+F3xst051cjEnLgcnzeuCHh7thoecSXF7pjw9f3YrQd5ZgTMD9+TcZiw98hAXfpaHa4orKQenVG/Neekz+uzFsMWYw/sdgizHj3nO/FuMqbJ3QEoNWXYWm7d/QV70FBxwGIirze2zPJoh88xiOz25/H/S7GgdfDEfvRZdgkFMawtn/DaayDfJfjWGLMeMvRhXyUk4hJacIpWU6VOkN1CwoYevsicCw9mjn61Dv2YwxLwnbD1xChSYEsf3aw5Mrwrlde5FSzMEtPA6922iBkmRs+e/n+PH0VRiaheGRpydiaLhWKsdUhORde5BcDLi27YM+bV1qyzcVn8fePWdRqPBGVN9YtLQ34uqxH/Dz5XKYhFnHceAVati7eiM4vANCPWykGy1iQO7xbTiYoYdTmx7oG+4Ocb9fegn7dp5GgToQ3ftHo7mQaLiKk9sPIr3SEW16Poxw1wIkbT+ASxUahMT2Q0T1B/JirETQqPmY/bgPbGwd4R4YjqhwXziIHfgd9blbePplzKvXhvaeVbi05wecumaAuQHiOAWUtg5wa9EaERFBcFXLX4gYkZe0HQcuVUATEot+7T2hKE/H/h2ncNVgB7/OfdHFr+4f4DNcO4ntBy9D59AaPfpGwL2Rg2RE9qHvcDDLALWjF0I7dUGYR02FVcg+tgNHr+ig8oxA7x4hcJa7ZSpOwZ4951Ck8kdMvxj42ZThwq6tSMo3Sn2Rx1Wj9YR/aOStdc5CuwrOH8HZrBsoq6iAzqCAhupIq4j2aO1eoyNCnkNIukz1vLIKBqKkeXwa5BHUMxm79iSjGK5o26cP2rrUaieKz+/FnrOFUHhHoW9sS9jL39RhwNWTP+FgeiUcQnuhX4Q7+KoM/Lz5KK5x9nDzj0Dnjv6yvjTsVwSqP5AXY2UQRs2fjcd9bGDr6I7A8CiEm8mk7MIubE3Kh7FGEQT58SrYOXuhZXh7hHnb15NfI6pycWTjany89AN8fiwPetjCPy4B06ZOwrhB4WjWSL73AhNyN76CZ1cn1/eMSTHO/3wUVyoIFH6TYcj8UP7CAsJizGD8VTBmLiFxNpwwHRpdHK8hvr2mki8vVsm5DSR1fjeiEr5XdSPzUw2E6I+RV9upCEfTlEHPkW92v0sGBdiKf9eUwzvFkFlHK6UidLvIs/4Kms4Rdc/3SIZRShYo/2o4ceToPQp/MmWnjpCq/eQfrZS15ZhfnMqVRD61gpyRi22E8VeyNE4t5lWFv05O6KXkyi3jSXOelqGKJQvSafsp+rOzSZRKKFdNHlp+lRhS55Nu4t8q0m1+KjFmURmp6+quvTieOLYeST46S9v6O+qzRMM2kKqD5KXWlmUhXRxRubUnoxYfIkU1MjWkkvndVOL3qm7ziTBcxszVZIg7L+ZXBjxN1ufWZibJczpJY6vuSRZdMRuYGowZZFFPqY/CxdmHkCdXXyCidhhzyLphXoQuAgS8K3l46Xkii4Dc/HQQocsdgTKEvHiQ5q7aS6YFWRlX3o74dJtE1qZQmYpY0LmG6JPIzA5SP+uVpWpGOsSvJucEHbGah+rRuFXknFydbtezxF9Bv+PUpOd7GaROCuXkq+GOol4r/KcQQT0boT9LZkdJdah7v0+y6M36M7PksRbKVBBtZAL5PE2QTMN+VZOsJXGEbm3qtU+4ON6RtB75ERHUjLaQ7JnaktD1slG+mrzBj80iO69ZGD8RI8nd/zGZPiKG+GiURKnk6aUkCqcgEvfMLPLlL0Vmfb7/VO7/J2mtFOyRkoT8Y7+capkmNxwMxp8NUl0Jneh2KuDZeTgSJiYiMeFp/K13MBxRiex9HyDhqQU4U3OWVHswRMTZD2VHTJgQC3tqpQyXV2DEI69gS44jIgeOwZhHQkXvyHTzOJbM34BCIb9NJPUmbSGsuYaUJCTphEQZo5HulwV4utOn/zFcw9UCI103VAjuNwGTJk3CxPhR6B/uBoWhCKfXTUPCwjOWj7n4ZggMdBU9BENWKtKqpGRUVVEfjkLLVKtoowVMJqkvtFUKheAWyH0TPtEPvGdfTJz+HCbT+oU2TEpMwOi+1PPjTCi9uB4zZm38nfVZon4bQL2lvuMnI3FUDDzEWxRo0fNp2p6JeGZkP4S7KWG4noSvXhqBl34oETKI1A2X9IH3G4el7w+HDy3DcOVzTJ2yBhliMC2hzZKkL7SLOluN4d3RddQUTEoYhVhfuryWX8JXL7+Gr/Ppfbw3Ri9dhjH+SnCmIux6YwLelQfXSMdVgo6rUK4yBI9MmFQnz0mJmBA/GgNj/KAhlcg5tAKJY+biRE1QUUOdawjvgfb9n8DIMc+I+jsx4UkMiHSH0lCIX9ZMw9SPL8NYk2esnGe8pEdKQY/WvoBpH2dQ31lQT+qF2tJGEgNSkpJQXz1l+VDltLgQ8K5wdZYERwoLkEezK31746nJE/H0o22g5YwoOf0pXnhtA4rETOb94uHZdyKmPzdZlskkOg9Ho2+IM5VnKS6un4FZG4tpXhVaPTIBkyfXyE66xP5EetAlrBRpP8zBuNe3olQqvAEGZHy/GIs3XETz+GV4OVYN7ZC38d6jChxduwAf7S6wLOP7gSkfG5esBd1vgbPrggmTuspfWEFelBmMvwSG1Hmkq+yBdZ2XSvfrNdwke19oTZSCpVC1JzOT5N38vK7ybr4rmVfjpeSvIgMdJO+a18aQl7fmSOUY0sh7PSUvWeEzkWwTd/Z6kjSzg1xGBzLzdI3/RH2PtUMItYOiB/WP/VXEmPcheVjwSPnmJGGLmQtcuZ/8U/YSVV3nkYsWnCWhreffiZHriSZzkoVMBpK+MJaoaR2c0zDyZZmUs+rIdNJGSfNxdmTI2tJGMrGI/iiZ0VZuQ6c5NOG312cJa22o87TUJO79rFovpirlXdJDI4wBTzzGfSclUs94XlfZM6ZyqnUqjXnk2/gAybviXUjconPUu9WRnVP8xTTO9jGyqkjOa4Wb658kboLHzzcjYzbKHaMU7ZhKwsSTFo5oOr5GDpaZj3dn8s55i4MlU0x2Phci61w4ee14Ezp3K25+R57xlk5g7IesJSVycj1ufk/ifaQ8DkM/k/KYedCqDjNJnXqWk7VDJF1WhvyDUPW0gOA9OzXQdxnDBTK3i1SuwncS2a67vX7pj84gbQVdoXrQaU6ynGoF3WEyPUzSSWWb6eSwxTZSik+Q7zafJaU66YRCODVJ0+eTw+u3kGRrJ033Af25d0iMraTDzf62juTdwkW3uCFiMP56OCLmoa5oJmi8MQuXL1sLs6Co1XS/LqCA/9h5mPOot/S8VOGLTh19xc+m6znIqRASlWgdHQlX0YVMxZmkMiFRpLyiQnIWOHs4OtIMBr3k9ZIyXL6Uidq3L2w7olOEhvpvtNycTGRZbJoCfq0CRI8dxgwc/nYzNn7yBiYvPgI9NZc2kTHoJD8uNeXl4brg9PBu8PSSenJLKrORJbg+tBW23r70v/e4vlugbvUw4kKEsBsTSrIypURrVKbjxJkC6RTCVIy9M+Mx+/NlWLAhm3qHHFRtO6OTo5jTKvbRUWgjDuxNpJxOrz2dcOn7b6x+JRrC3qzil/eQED8Z//zoNPS0XGXLHujdUtQMK2jRvX930EWeyvBXXMlsQuduhSYYQT5CQQTVhfkosvQqLc0TXJunAMWCQJStER0pn3CknkGdepajokLyzDl7Rwjq2RgF3Nyk2AhTyXVc10upInQuBPjYSDpbWoISS+2xQGV2luhhg7OFt6+XlGgNpSc8mgk1UDhOrMsi2igMHtiOjpESXu26I7a1K/ScO7oMewxhdSEE95ky7Fq2Aid0VMLKQIx+big8LMq4jlt8zWD8deAcHaARZjTRobxSNN0WMaSeR2oVnUScCq3atpEXZgEeTk4OolGg7iwq5DLUUdFoR91FodzkpHPyImtEYdENaYHgXOFBZyLv1hldQlTUbynF3pe7oNubB+S8PDQaybCRqkpUChbSAuqWwfAT16dCbH19KIYlzsOOHGrg7dpgwox4BIrrghFXzl1ACa2YUwajbdjtLI4mXN2wFtuKhJscETvgYTH13tV3G9B2OMgRRaTa/HC1IQacW/oiFp0qpy6wAgoFddvLjmPu2JfxU4GJDmFLPDVzMqg31iS8V2uEiKumARkXL0hH8SL2iHl9Df7Vhy5opAoX1q/C7ny53LkvoosQ72XKxZqRgXBzcUPgyDXIldRChHd0hL1QLNWNyiZ07tbQDWJNHwwG8Qi6MSraf+kT0VfDIOqRGlHR7SCpZzKSzslbQGMhim5I7eFcPawsFHQxdm8mLhJEX4iCQvP2V1H9lzYXnB2dV7ezkpiuYsPabZDULBYDHtYKichdMxIBbi5wCxiJNebC053GmYtCTznYhYQhpF4wnwXU3fHqt3uxe/UEhDa1R7oPmLK/wJL/kzaDtlHjMaWnRv7GOrcjQgbjL4LZ7lo0VBw0Hi3Q3EULl+Yt4CGu1NRnOH8eVwQ7o2iBNmbR0QKEyMZCfGYqfcO7RSFKXJmMyDqdJHmJ1HdKS8sUjSbvFoBAwXVWx+C1tcswNoJ6G0QJ36DA2lcuqqv1kpeiVEJZ28j6KIOC4S8+p+VgHxKHEWPi8eyri7HhyAEsGSAZTcHr/3GH8NyZem5te6KX521Mcd0xLFm0TVxQFS2GYcoIbzH5ntV3W1h5ztuQ6lNYt+44KgRvvctMfDmzCxzl+zhlc/RfsAFLB3vc0tCZynkoxLBggvK0C8gwd2LVYXh+1WIM8ZYtPOeA7rM34T9PNJfKJRXIy85BYUkhcrLzaFvEXBK1fbDyfPiew8MtKkraONGxOp10Xdog6tOQlilqJ10EA6WTnUbw8HB3kbpAilAgPEuvoToFKWlSJLzCLwjBt7EH0x1bgkXbSmj9CrQYNgUjvCV5V+RlI7ewBIW52cgzE1753i3YJWwAOA26PBwHZzn9j081Tn60HDuFzQ6vxSOTx9/W5uBWOspg/IExoaIgC1n5FZKBuWN4eMd/jcyiYhRlfo140TgYcDHlEoTTJU7VCu1CzbfjtL5KnWxUbWBrJ36gxrodoiMdaWkE+vNJSBKcj9K92LxbODqlu/rIGETJxsqhwySsPXkJp/buwEdP+8gTUI+yMsn74zQOcLC2CGmCECREKlG4tuOxct1qLJ/7dzwRUbdhKN69EB8epG2kBqzrk6Nv6REKG4grn87Cxyl0MyAsMi+8jAGCwyJwT+prADFbpMQotzukIhnJYsSWAi179MPjM1bi7Ti5fYSHk0czNH1SWYFLm15F/45D8UmqtAIbMy7iUu0zBAmF/1h8+OEzdNGhg0MX33M/bsOFphz2PxDqdtGIFM6hiR7nk5LE05jSvZuxu0BY6OwQGRNldvpjDg9ndzcI8V/CK3z51wU5S5T+/AW+Ex/1KBES9xCCbrXYGK/g01kfI0VP6F6mO154eQBq1MwyRdjy2fe4SqvknHpjxNCaufJHoQnbU7QZSz9NBu0q3aiMwJThXrfV9j9W/xiMO6Bs6xSE+QQgoEUoEjffkFPrqMg9i2NHjuCIfB2/VGB2/GiNMlw4f0X0aBW+YQij2/HqvPM4dlQo4xh+yZCOnnl7JzjShcdYcBHHj54B796CLgd0il4/ik0fL8a0xyfgU8Hz4F3Qb+QgiK/emm4gI+kojpxIR4VKh4xjctsO70NyrvSOKufkgtpXQRuibIVWfgq6vBNUZV1G/UeQVcjeMRsjxq1Aqh6wbTcFbye2FtvUJDe2Y+67O1Fiop5tcDzemhRad8+9qK+WauSdP4KfvvkZlwVhcypoXZ3v2CCZSm+iTHxBlXrvDo5QUC926op5GOBBt0bGHKx/YQo+SRMqaIyp6DCWjO6ETsPnY0dWNVRqtegFmkrTcIGOXUXOOXncpbG/7DEazw/0hoIzoWT/bIx7c5+VCN8/CkYUXDyOo2d4uLcQtRPXj27Cx4un4fEJn0JSz34YOcjdqtwVbs0kfTRRz1V8aEzHfe97GJf4CYS1mNfGYfKEqFv+qMaN7XPx7k7qFXNKBMe/hUm3cBVNWV9h1VbBi+fhOWg8hjW/U824t1i3PUakrVmGb65R4XJqtH/mWTzU+AVuy8iBXAzGnwwDSV8QK0VvQn53VUitjdpt4uI0ZOi6cjF/I6qOkOlthAhOjmgGriaFREd2TPFr9B6kouVUskdXRQ69HCpFy1q6OCXxGrCcJMtRoMZfl1p+v9fsUvf7sImoSx3ZNtFHihDWtCSxQ0aSpxImkISxT5CHIr2JHS9F/doGjSQrzcJIrUdT68mZd2KInbDa8s3I4FV10cwSv60+SzRqg24HmewnRP5K/ebs48j78nvLIoZ0siBWjgLu/q6c1jia2pixiPQUZaoi0XOSqVYIGEnmuuGEOvU0nSfaXu+S043eozWSX5fGiZHh1FUjoaOXkZ//O4Y0EyOq3chT3xTWvodb08aGF+86hmwUum0typtStW8aCRIjzW3JkM8EnfuN0dRN1FFLwzwVh8jLoZbffxYuTulFBixPlt6rtoI+aSbpII4bR9TOnsRTa0uEx/Li/SpfMnTlRfn96yb6pT9D3omxE2XJNxtMVgkvLNdi6T49Oft2tDQ2ylbkhX0PMCTaIpZtj0j5XvKC/FsCnPMAsuLXW4RQm/HH2m4wGLeNAl6dYhGuVUGljUDvLtJzTs7BE54OgjdnHU7pBk83KztzQy6uFVITrvj/du4opIk4jgP492637tzc7iaIwbIwra1LlwmVSib4Wg16KxCKpFLpIQjUlx58Uwx6kIKgGVIYBY1oFr30UNaMQCFLsdBAhNKiUGzjms36TzdbuaWlbVN+n5fBbtz//7/9d7//7+63S4djz06Y2Z4kSfr1/iXHw5RnxyaBZ9vEqG0cOJ0eBosVtmInalo88LproUaudAsixHg3hEM4ETkFKpS4v0o9CisqYBXZWcr/Fk/u3MQ11xW4rrvxsO89vmc64DzrQtfzDlRFlZFyogzFKIAXjFDkn09nQsCLtvZeaGwFn1Veh8bK7N8ypH9rL5YFfeAkpEmh4yUhI3cfTlxsxanoymS23SwbIfACjLI5/J4IWQm/p8hg3WIpuRmKge1XZ4BFjtw34LHxSCsuVe8Amx6Y9F7A+c6FV06CLKPmTAU4evkxnnWcRune3ShM59m3GMDEpymI0lymHJfA5l7oNVa/wniDAmUdz8atwDJbssxBlBUY2dwRjArk6A8vV7gfukg/2LGV2P7nW2ATVadnx8lqQ7GzBi0eL9y1Kv5UFyVs2IKcuQo0BCbHMT6hsdxPj4z8Qzh3+xFuVG0NZ8XxxxXwtqG9V2OJYhbK6xpRmb1I2AkO4d6DV5gOtVNWjZOlSSuJjiP2uSfk69NbuDsyw84xJmw7dgaHZ6vbl4Yeh0nIKhP0jWH4zTBG333AZ9836NIUrM9R4VCt848mXEmJbi9RZsb60OPPxa7NS72OmEQsQDWXqWjoZiGqpAkDXfXIi7OeXGm+0Rfo6R/BxykNLD2G1VaEInsmopZ1yxDEUHMZ1IZuTOtL0DTQhfpEDSzFUDAmhJBUl8Rg/H9RMI5YxetaQgghZG2gzJgQQlKehtf3r8Lz8gsM+U4c329b5C9bq4c22AmXpx9+w3YcrDoA+1oZ2F+iYEwIIYQkFfADrVF/hN3aUycAAAAASUVORK5CYII=;" vertex="1" parent="1">
          <mxGeometry x="277" y="490" width="483" height="172" as="geometry" />
        </mxCell>
        <mxCell id="XX_flJjxw-XXJBpBVuil-50" value="" style="shape=image;verticalLabelPosition=bottom;labelBackgroundColor=default;verticalAlign=top;aspect=fixed;imageAspect=0;image=data:image/png,iVBORw0KGgoAAAANSUhEUgAAApwAAABKCAYAAAAWs4S+AAAAAXNSR0IArs4c6QAAAARnQU1BAACxjwv8YQUAAAAJcEhZcwAADsMAAA7DAcdvqGQAABl5SURBVHhe7Z3ZyxW3G8ePv3t3r8SKqL0QLYo7rRYUqqKlVCpVWymCUpeWgku1ar2yWhVqobhTwQuLSvVG3AUFFcEVpYoFF4qIVy7V/gHv73zjfE9j3sxMZnvPa/1+IGROZjJJnjxJnkkyczq01KkJIYQQQghREf+LfCGEEEIIISpBBqcQQgghhKgUGZxCCCGEEKJSZHAKIYQQQohKkcEphBBCCCEqRQanEEIIIYSoFBmcQgghhBCiUmRwCiGEEEKISpHBKd5oNm7cWOvQoYPxhfAB/YATogykT+J15OjRo7VJkyY19Ldbt261GTNm1G7cuBFdkY4MTiGEEEII4WXhwoW1KVOm1E6cOFEbPnx4beLEiSZ8//79tSFDhtT27dtnfqchg1MIIYQQQrTi/PnztW3bttW6du1aO3fuXO3y5cu148eP154+fVrbvn27uQYG6ZMnT8xxEjI4hRBCCCFEKzZv3mz87777rjZmzBhzTObNm2dmO589e1Y7cOBAFBpPosFpr9fTIWzHjh2x1iysYVi7/fv3b8QZMWKE2SOXZAHjHK6x4yEt31Qt9hLwPEEY0kE47hG3J4979lyHuMg38p8F5AEO+xnceyIsSV4sB5wvXYThnF3OEBAPeyt4b8gDZbt//350xUt4f9vx2jg5+PKEY/c+cQ7ElctXryAuvEyWL1/eyKPrQvZ3okyQG3UQjntc4mRJsug+oLzt+9r6h/Oh+2p87QFlWLVqVSt9IcgvdJr5gAstK86H6CbS4DUEZWJcpId4vnaVhE92kDNlj7LHyY758TmC++I30rFheJpz4/mIS8O+T2h9uPjunUdH0GZxD1un4dL6F7afODkgHOezlqsqfPlpC32KG8dcF9J3oR5xLXTG156Yln0vOw065DHNNvDFg6ygq6HLsjbIE9K1+z+4NP3kdTZxukWdTAr3lS1N15GeL+9wCEuTpxsnNF5WcE/w7rvvGt9l/Pjxxn/+/LnxE2lJoG65tuASn+vatWvL9evXoytfcu7cOe+1dL444PHjxy3Dhw/3xoFbsGBBdOW/9OvXz5xD3L1797aKA+eLt2HDBu+1tsP9QkmSke1QPuTVZfr06eY8yuOe3759uzmHNEKJkwWcK/+0+vLJj3HsPIXKAA747gFYN5CJDcN9+SlKiD7gmjR88Wznlonk0X3KG3Ikbh2grn365pJWfl9bSKvvuHrKopsA98G5I0eOmHO4xo0X167icGXny5MrO/e8z5E43WZ4mnPj+YhLI06PsrQb373z6EhIu/LFQz3zPPo/F+oA66/ZNEufQuQLF9J3IW8cT339FMco+152Gq6La5MsS5LL2sdT/nHO168Anrdx65LwWvc+DL93715q2ZL68TQXJ0/ftbbL2jfmhf10iK4lGpwuyDwaFJUTBbKxhY5KIBgw2BlCAexzgILHOVwLkBYNLji382GDo4+4VBT4+I1wn7K5IC2kayuAm8c4cH9cy3zgHoTyYl58SodreH7lypVR6EvsMoZgyx9psQzII+XvM2xtcC0VCI71QZiGXc447PzYIA2EIS82ceXNKgdci04S5bfLgjyH6AOhPoSkyzRsvbH1As6tX8A0sug+41DfbWzd9w3YIdhtAfeyywR4ztbntLLm0U3GwfXsc1gmxGe8LOV0ZYe4yDfShWM6PmPIxS4TYRjSyQJlFxIvJA23PnAcQmj+03SEads6AlDfNGDg3HiAcX33ZbxQcG0ZfUEclEF70yfmK2u9w7l9vltGH5Al6w3OrfckcF+7bkJkRZg3Nw7KYPcrLkzLhnrp3st3LYgLJ5CJXS5Xrjhvt1O7jqE7yAf78lB5sh6yxssL8sm0QtpTeMu1iGtIvgZD7Di2EJBJxnErBLAyXKVBRTEenNsYMOAhPLTBESqwzzhIwqc0xJYL5OCCcvO8XQ42gNABldejobnYihHSoJEmrnXlzrL4yumSpA++cMrQrTOWK7QucS3yjfLCRzw2fIT56sAHdcGnly64Ds4H6xdp2+TVfebL1XkSJ8esUO5up8X0ffen3sDZxkJe3UTZeT83Pco1RBdJqOxC2j/12y5TlvZhkyfdkDR431C9z5r/OB1hum6dEdZD3HkaC3Y+2F7cdpQEri+jL4iD5Whv+sR8hfRdhGOmKxf8RniIQYH2i2vhssqWsvL1EXEkyd/uV9zzzKMN03d10net3XenETeWEqbrq2PWP1wWeeaNlxW2/1D9zPXSUPfu3WtffvmlOT579qzxQceOHaOj1iDODz/8YI5PnjxpfIDX7EG9MmqTJ082xzbTpk0zfn3wemUvRN++fRuv5sN3N7O+9957xr927ZrxQ5k9e7bxr169avwyQN5QPnD79m3jx4H0sfcCjnIaPXq08dPAJwrAkiVLjG8D+WOfDNi9e7fxk8BmYAC5x+2DKZvff//d+L179zY++fvvv40/aNAg44eAfKO8d+/erS1btqy2devWWn2gCd7cbNOpU6foKB/Q63rHZ9K2dTiv7ocStKcmga+//tr4dnsFXbp0iY5aA72hrl+6dMn4IK9usp+B/ObMmWOOyahRo4xvp1MWWdo/8l8WnTt3jo7KgTKD7p06dcocl0mcjqQxdepU458+fdr4Nuj7KFO0EexH4zGYMGGC8UMpsy/IS7P0KU/fBbl89dVX5hj9Dn6j/Q0ePNiEJQE5h451Luzvrly5YvyiQI7UlQsXLhg/K9iLDFgm8s8//xi/bhwbP4kiY2kW28Emb7wsYH8q+nXoBtpUCLnfUufgbwvQVkgOkPbG1Q8++MD4EDxhh4MNtj5gWJKHDx9GRy/hZlV2XjZsaDRWQunVq1d0VC5x5YOc8H0rAtmsXr3aODR0KE1IQ7cNkrgy9OnTx/joeENgY3r06JHxq4Ivg7CjGTlypPFdsnSekJvbCD777DPjh7xQA72lIdOzZ0/jF8FXpiK6H0LRh6YBAwYY326vYOjQocbHwxwfjmzqT73Gf/DggfGL6CY3qmPgcAdi/kY7aQYcxOx6ygt1wX3YKgpkxAdz1keZxOlIGgMHDoyOWvP55583jEuwYsUK80LJ+vXrze+PP/7Y+KEU7QvairL0KU/fhZdv1q1bF/16+YAIQ3/RokXmNx8IQ4jrz9Ioox25sK/KCmQInZs1a5b5HfeQE/pwUGQszSvPvPFCgLHJTyWdOXMmuO5yG5xxgz87t7Fjx5q3pnbt2mV+g9DKicPtMDl7SUM2BN8bdz7sDq9K2KBRcStXrjTHqEhW5sGDB01YmYQODkXrKwmUDaAu8OFYPint3bu3lfKyLrIYfkmNLeQpkwY/ZkJCGhPLw9mYsqnCWEgjrv5pBKLOevToYZxNkVk6Vzdv3bpl/KxGRtXAUKEBtHTpUuOnwTdJXTCwQcdhGGUZ2KsAMyMtLS3mO3shlN1HYEaJ7R0PLhio0Q5nzpzZaI9ZZVS0L2gLsuoTHuKgS3gj2SVr3wXjCl/pAJA3Hxjnz59vJgEQtmbNGhOWBXdWMSnPLvZDahVAx+Fs2G9BFujTqHOwadzyZ304qGIsjetPXPLO7vqArqD+bGMzZEKMlP4dzt9++62hsMB+YndnQrLiDmRYxkGhQyu9vYHOjrN6hw4dqq1du/YV2SEsS2WGQuOomXDGD4Pshg0bjKF5586dVoMJB4S2rGcMemxQoR0t841OGp0APslRJmUvtRYBRgnqC3UH6JMiS/mubqJDA5xJK4sXL15ER37SdG3u3LlmMILuFtFL6DdmC0DIVpf/OocPHzY+BnkY4r/++qv5DRAWunTX1rQXfcrTd3GrBeLgQWPLli2NNs2wKicf2gv2rDuMddTF9evXveX/66+/jF/F+NxeobGJB0I8hMB2yVr+0g1OVAw6Cj5B2AYEFZvTy4DL4nHLvPYTqK0QCEcDjVt+fR3g9DrkgUEcoLFz0D127JjxQ2B8ELf8ykbSHmTGbRAoO/ZVQU98nRr3WGXdt5UXNCouo+zZsye4o0Xnjk6KQDfTyKv77QHUF/KNNu7mn/s1ue2miG7ygaysjn3YsGHGv3nzpvHj4BK/D6yOcOYHulsEGJvQFaxu2HIqC+gzZwzLXq6vAur8N998Y3zUOwZ+gGViu020B9qTPuXtu7h6gv4LceD48APdvHjxojn+r4P2x7EX+y5RF75+B3KGjQNC36943UG7e/vttxt6CiM8z4NR6QZnHFgy4JM8nuYIl+ewlOabRqfBAUWwO2TuUeGg/TrCwdfuGHCMzgJgT02WpQVuZ/DNlNiNxLfnta3hNggYJ3FltJeZvvjiC+NXDTZYo5PFE77vRZ44UG+YfeGDVshMTF7db8+gjaM8yLMtvzy6iU4O92LcMnjnnXeMv3PnTuO7MDzpBTXut/S9AJUVGoPuC1FlwS1NqI8sW4+aBR9e7C1bGPgxyKFdcgxpL7Qnfcrbd/Fhz15FQX/DLV4wYtFG3wQ4QcYtBj64ZQE6+SbMcKLusfKKMuOhpMiMd+kGJzoEvtkFMGjgCW7cuHGNSuJbWwCKzQHlo48+asRFIbEfjhX/448/Gp/88ccfxm/2Uzs3nXM/adIbvC58suRTMkFnwaV1vrUewvfff298DGKoB84GII+YCmdnxLcBmwmejtihod6hI8wv6546A/3I0oEWgftdqtxwTfLqfrNBPu36Agjj3h7AhyaSRzf//PNP4xdZYnSB0YV0YMhicGE+4OM3wtMGbBqJRV8wtB8yyiwjQHlQR9Qh/C1d3kGiLYH8gbuFgkvrkH1V+6Tz0J70KW/fxTy7RvHixYtN3tE2+db6fx3sn8XDGeoE/ZJty7CvYh/3888/Gz8vRWyHtmTTpk2NmU2s5BXqR1py4vs+GL73hLA4V8+w95tQCMM5Xxy4ulUdXfkvvJ7f19oQfcvKdXb+AK+D78P+flUa9re46OK+mYl84DzzC/jdM19eIJO64pvzuC4U+ztorsP9Qr6lRnx59tV7HCGyRN3yGp+L05kkEM+Xv5C8Uz9CypcFnyxBHt1372XL2XZllIH3sqHexjnooI+suum2j7hywmUB6bBtuS6kjfBaty4B8+iTPeMRuzxZiEsjTo98OlQmTMcmtJ+1y4C24LsX4T1RR3VDLgpNxk2DJNVTVpqhT77wvH2XO5baMB04ftPTDgtxvK8vzy5unDRwL8ZJcnF66COpPuni+rg4mE+WC2m498xiOwDGi4PxQsvO+rHTsttkmgtJp9QZTli+eJmgrsBRyMulnHrBTfjly5e91jHCME1bz7B5oiKM51ue5N6uZi414rujdlkx3Zxl9pCfrfHN0kImeZbW8VRdV5ZXXj6CTJE3yKy9LQGgblHHqGubNJ3JA78T256eJPPofrPB8i/0CW2boB0gjDM9PrLqJttH3H/45gXpID27DPDbaxsJhX0iQHkgZ8i7PeqQD34v0G4HNmUurZfZF7zu+kS98X0F5E1cWrfr09ZF9lVJfVwoRW2HtqLsb3h2gNUZHQshKgJLMVimgQHQzIck0Tz4CZOiXS4ePvHZOTyU4GFFvHlIB8TrSJu9NCSEEEIIId5MZHAKIYQQQohKkcEphBBCCCEqRQanEEIIIYSoFL00JIQQQgghKkUznEIIIYQQolJkcAohhBBCiEqRwSmEEEIIISpFBqcQQgghhKgUGZxCCCGEEKJSZHAKIYQQQohKkcEphBBCCCEqRQanEEII0SQ2btxY69Chg/FfN86fP2/yPmnSpChEiHhkcAohhBBCiEqRwSmEEEIIISpFBqcQQgghhKgUGZxCCFEQ7GODs3ny5ElQOPfBhTju87t//77ZNzdixIhXznfr1q02Y8aM2r59+8x1LnFp9e/fPzFemXDPoutQloULF5o8ZmHVqlVGFiiD7744h2sgM5ejR482rvOlm3WPou961Ddki3DUD/LiY/ny5Y28uM7e34l7I8zNL+oO6SANxsO1aboQWjbA+7qcOHGicc51offn9eTGjRsmLsvrujSd9ZVvx44djfiQk2/fLM/bhLblNKBvyI+rq/gdp/tx5fc5wjju/dzr45yN7zxkhzQgT8ggmBYhhBCFQFfqdqfnzp0zYV27do1CXsLwfv36vfI7xG3YsCE4zoIFC8y1NnnjlQnK4EvXdnv37o2uTifkfnCoh+vXr0ex/mX69OnmPOrj8ePHUehLtm/fbs5NnDgxCkmG8uX1uN/w4cMbeaBjPYKQ/NvX494IQ1ok7R7Ig1s2N68h8H4kRJ9C78/rbez7JLkkXbfT9+XXli1guA3jpbXlNELq2tV91neIIz4dAe71cc7Gd952Pt2KQzOcQghRkPpAZHzfLNrIkSOjo1fBrAYYM2YMenivqw8c5pr6QGV+L1u2zPwm9c6+Vu/sG9ffu3fPXAu2bdvWavYnLq36wFSrD9rmGl+8JDDTgRkPzHRgxogzbCgfZnRcUAY3fZThyJEjjfLOnDnTK0sf06ZNq9UNSVMGYt8b94Wcnj17Vvvkk0+iK/5ly5Ytpv4gu02bNkWhL3n+/Lnxx48fb/w81I0RkzfkpW7AmrCdO3caH/jkQUd5hGLrA/y68WLKduXKFVNPZZOku9TDIkBuKIfbDuDSdN0H84t7Ut/Xr19vfFKkLYeCtFkOOOhv/cHHnHN1//jx469cS+fT9zTs+K6z72fjuxb5heypW6tXr46uTkYGpxBCFIQD0aNHj4yfxK1bt6Kj4nTv3t040rdvX2PAcCDevXu38dPAQLx169ZGvJ9++sn4ocCYg0GDwRuD6cqVK2tPnz6tTZkyxbtM6IIyTJ482QyuNC527dpl/DRQ5sGDB0e/WsP70qh0jWCkvWfPHnO8bt26V/J77do143fu3Nn4WcG9YQhBvmDevHnGRz6yLEUOGjQoOkrG1gf4WHI+c+aM+Q3DIMuDRFkMGzYsOsoO5MbyuLi6nkVncU/oO4Du2rRFW+7Tp0909BLoL+qGun/gwAHjNwM8tKSB/EL2hw4dMr9h8IfoswxOIYSogGPHjhkfA6MNZ82KDMRpcODC3rosYLYQwDjJw507d2pr1641jgP65s2bjR/K7NmzjX/16lXjlwGNL3Dz5k3jx4H0MXjCnTx50oSNHj3a+GVy+/bt6CidTp06RUd+kgxiGAeczTt79qzx25K8xnooRXUWpBlLbdWWp06davzTp08bvxnEGfg+8ECAGXwQos8yOIUQokSwHIalZcyWgffff9/4LlUOxEkzfkm4A2oW9u/f/8pgRQMvqyHQq1ev6Khc3FklghlNzMQSzD5iiRAOs18YUPPKswgwgi5dumSOe/bsafw4Bg4caPy7d+82lmNtI+rDDz80fug2hTKg0dS7d2/jV0URnSVxxlJbt2XWYzO4cOGC8bPKM8t2AhmcQghRkC5duhh/7NixxkDBG8cAS8s0vEhbDcQ+YFxhf2XIfr6QpXCbuIEKBpwNBnDkwfeGsE3W2dm8LFq0yPhYckd9ASwRwiHs4MGDJqytocGL2ck0I2DAgAGNLQPQP8jXNqLSZkjLBsvDqD/kxdX/toL7NbGdIguvS1vOA9o9dMNt2/giAPeyLl261PgE18OlQYM1CRmcQghRkKFDhxqfRgteDsHgj6VlF8xCARgJorlgBoszsNiPhvriyxsAYXlmN9OWaEHSrCX2mdLgXbNmTRQaD2aWsVeT++8Qr2PHjuYYvHjxIjqqHsgUn/gBoXuI2xNvYlueO3euebjBftgyZozjkMEphBAFsd8mxsCEl0N8HTdmFjB4YTBrxjKteBW+GAJDjS/28K11wL17odDwCNlGEDeww1idNWuWOcbLTKF76qBPly9fNrN6eGHL1q/Dhw8bv8p9wwTGJowXGGuU6evEm9aWsdIAfUUbwItAVSKDUwghCoIBB8tvGGjjlophSHD5li9xiOby8OFD49tGHY7j3lpPA3GhB8D3RjjDkt4ExlI4947iDfuiIE3MloJPP/3U+FXCrRBz5swx/uvGm9aWuS1gyZIlxq8SGZxCCFECv/zyi/Gx5wuzPNgXRbBEOmrUKDOTgBmRxYsXR2dEUShnfqKGs5MhPHjwwPjuzB8MPS6t8631UL799lvjQwdsoxPHXGpOGty5Fy7LyxjIH/YX2jqHY6SH7zoCzDhWPRNnG+dFl2axNI9ywXHpuuo33smb1Jb5gFDVy3o2MjiFECIQvvDi20QPIwUf2gaYURoyZEjjWrwFzeU37LULXSYV6YwbN87IeP78+eb3hAkTjB8CP2vjM2SSPgifBJZgMeuFGTIYe9QBHCMM58p+kebixYvmKwG2zuGYM5tI07cHsT1z6tSpWo8ePYxDHYCin6fiSzN0cVTdluP+xhQvKv2XkcEphBAlAUMC/9iB2TF7pg1LqNiQj+9Uvs77vbICGdhyqALbwMT+uxUrVkS/0uG3Pn1vGRdZWsc3SGGw2EvnOEYYv09aJphxg35xOR/gGHoIfawizap56623GuWBDqF8bdl21JbLp0MLdhgLIYQQQjQJzPABmSTVgRleLKHDkG7GC12a4RRCCCGEEJUig1MIIYQQQlSKDE4hhBBCCFEpMjiFEEIIIUSl6KUhIYQQQghRKZrhFEIIIYQQlSKDUwghhBBCVIoMTiGEEEIIUSkyOIUQQgghRKXI4BRCCCGEEJUig1MIIYQQQlSKDE4hhBBCCFEpMjiFEEIIIUSlyOAUQgghhBCVIoNTCCGEEEJUigxOIYQQQghRKTI4hRBCCCFEhdRq/wdfRZacfVhtRQAAAABJRU5ErkJggg==;" vertex="1" parent="1">
          <mxGeometry x="316" y="690.81" width="444" height="49.19" as="geometry" />
        </mxCell>
        <mxCell id="XX_flJjxw-XXJBpBVuil-51" value="" style="edgeStyle=orthogonalEdgeStyle;rounded=0;orthogonalLoop=1;jettySize=auto;html=1;" edge="1" parent="1" source="XX_flJjxw-XXJBpBVuil-52" target="XX_flJjxw-XXJBpBVuil-53">
          <mxGeometry relative="1" as="geometry" />
        </mxCell>
        <mxCell id="XX_flJjxw-XXJBpBVuil-52" value="start" style="strokeWidth=1;html=1;shape=mxgraph.flowchart.terminator;whiteSpace=wrap;fillColor=#d5e8d4;strokeColor=#82b366;" vertex="1" parent="1">
          <mxGeometry x="530" y="790" width="100" height="60" as="geometry" />
        </mxCell>
        <mxCell id="XX_flJjxw-XXJBpBVuil-53" value="" style="verticalLabelPosition=bottom;verticalAlign=top;html=1;shape=card;whiteSpace=wrap;size=20;arcSize=12;fillColor=#dae8fc;strokeColor=#6c8ebf;" vertex="1" parent="1">
          <mxGeometry x="530" y="880" width="100" height="60" as="geometry" />
        </mxCell>
        <mxCell id="XX_flJjxw-XXJBpBVuil-54" value="a,b" style="strokeWidth=1;html=1;shape=mxgraph.flowchart.document2;whiteSpace=wrap;size=0.25;fillColor=#e1d5e7;strokeColor=#9673a6;" vertex="1" parent="1">
          <mxGeometry x="530" y="970" width="100" height="60" as="geometry" />
        </mxCell>
        <mxCell id="XX_flJjxw-XXJBpBVuil-55" value="stop" style="strokeWidth=1;html=1;shape=mxgraph.flowchart.terminator;whiteSpace=wrap;fillColor=#f8cecc;strokeColor=#b85450;" vertex="1" parent="1">
          <mxGeometry x="530" y="1050" width="100" height="60" as="geometry" />
        </mxCell>
        <mxCell id="XX_flJjxw-XXJBpBVuil-56" style="edgeStyle=orthogonalEdgeStyle;rounded=0;orthogonalLoop=1;jettySize=auto;html=1;entryX=0.5;entryY=0;entryDx=0;entryDy=0;entryPerimeter=0;" edge="1" parent="1" source="XX_flJjxw-XXJBpBVuil-54" target="XX_flJjxw-XXJBpBVuil-55">
          <mxGeometry relative="1" as="geometry" />
        </mxCell>
        <mxCell id="XX_flJjxw-XXJBpBVuil-57" value="a,b" style="text;html=1;align=center;verticalAlign=middle;whiteSpace=wrap;rounded=0;" vertex="1" parent="1">
          <mxGeometry x="550" y="895" width="60" height="30" as="geometry" />
        </mxCell>
        <mxCell id="XX_flJjxw-XXJBpBVuil-60" style="edgeStyle=orthogonalEdgeStyle;rounded=0;orthogonalLoop=1;jettySize=auto;html=1;entryX=0.5;entryY=0;entryDx=0;entryDy=0;entryPerimeter=0;" edge="1" parent="1" source="XX_flJjxw-XXJBpBVuil-53">
          <mxGeometry relative="1" as="geometry">
            <mxPoint x="580" y="970" as="targetPoint" />
          </mxGeometry>
        </mxCell>
        <mxCell id="XX_flJjxw-XXJBpBVuil-68" value="&lt;font style=&quot;font-size: 18px;&quot;&gt;&lt;b&gt;.3&lt;/b&gt;&lt;/font&gt;" style="text;html=1;align=center;verticalAlign=middle;whiteSpace=wrap;rounded=0;" vertex="1" parent="1">
          <mxGeometry x="640" y="790" width="60" height="30" as="geometry" />
        </mxCell>
        <mxCell id="XX_flJjxw-XXJBpBVuil-69" value="" style="edgeStyle=orthogonalEdgeStyle;rounded=0;orthogonalLoop=1;jettySize=auto;html=1;" edge="1" parent="1" source="XX_flJjxw-XXJBpBVuil-70" target="XX_flJjxw-XXJBpBVuil-71">
          <mxGeometry relative="1" as="geometry" />
        </mxCell>
        <mxCell id="XX_flJjxw-XXJBpBVuil-70" value="start" style="strokeWidth=1;html=1;shape=mxgraph.flowchart.terminator;whiteSpace=wrap;fillColor=#d5e8d4;strokeColor=#82b366;" vertex="1" parent="1">
          <mxGeometry x="310" y="790" width="100" height="60" as="geometry" />
        </mxCell>
        <mxCell id="XX_flJjxw-XXJBpBVuil-71" value="" style="verticalLabelPosition=bottom;verticalAlign=top;html=1;shape=card;whiteSpace=wrap;size=20;arcSize=12;fillColor=#dae8fc;strokeColor=#6c8ebf;" vertex="1" parent="1">
          <mxGeometry x="310" y="880" width="100" height="60" as="geometry" />
        </mxCell>
        <mxCell id="XX_flJjxw-XXJBpBVuil-72" value="b,a" style="strokeWidth=1;html=1;shape=mxgraph.flowchart.document2;whiteSpace=wrap;size=0.25;fillColor=#e1d5e7;strokeColor=#9673a6;" vertex="1" parent="1">
          <mxGeometry x="310" y="970" width="100" height="60" as="geometry" />
        </mxCell>
        <mxCell id="XX_flJjxw-XXJBpBVuil-73" value="stop" style="strokeWidth=1;html=1;shape=mxgraph.flowchart.terminator;whiteSpace=wrap;fillColor=#f8cecc;strokeColor=#b85450;" vertex="1" parent="1">
          <mxGeometry x="310" y="1050" width="100" height="60" as="geometry" />
        </mxCell>
        <mxCell id="XX_flJjxw-XXJBpBVuil-74" style="edgeStyle=orthogonalEdgeStyle;rounded=0;orthogonalLoop=1;jettySize=auto;html=1;entryX=0.5;entryY=0;entryDx=0;entryDy=0;entryPerimeter=0;" edge="1" parent="1" source="XX_flJjxw-XXJBpBVuil-72" target="XX_flJjxw-XXJBpBVuil-73">
          <mxGeometry relative="1" as="geometry" />
        </mxCell>
        <mxCell id="XX_flJjxw-XXJBpBVuil-75" value="a,b" style="text;html=1;align=center;verticalAlign=middle;whiteSpace=wrap;rounded=0;" vertex="1" parent="1">
          <mxGeometry x="330" y="895" width="60" height="30" as="geometry" />
        </mxCell>
        <mxCell id="XX_flJjxw-XXJBpBVuil-76" style="edgeStyle=orthogonalEdgeStyle;rounded=0;orthogonalLoop=1;jettySize=auto;html=1;entryX=0.5;entryY=0;entryDx=0;entryDy=0;entryPerimeter=0;" edge="1" parent="1" source="XX_flJjxw-XXJBpBVuil-71">
          <mxGeometry relative="1" as="geometry">
            <mxPoint x="360" y="970" as="targetPoint" />
          </mxGeometry>
        </mxCell>
        <mxCell id="XX_flJjxw-XXJBpBVuil-77" value="&lt;span style=&quot;font-size: 18px;&quot;&gt;&lt;b&gt;.4&lt;/b&gt;&lt;/span&gt;" style="text;html=1;align=center;verticalAlign=middle;whiteSpace=wrap;rounded=0;" vertex="1" parent="1">
          <mxGeometry x="420" y="790" width="60" height="30" as="geometry" />
        </mxCell>
        <mxCell id="XX_flJjxw-XXJBpBVuil-78" value="" style="edgeStyle=orthogonalEdgeStyle;rounded=0;orthogonalLoop=1;jettySize=auto;html=1;" edge="1" parent="1" source="XX_flJjxw-XXJBpBVuil-79" target="XX_flJjxw-XXJBpBVuil-80">
          <mxGeometry relative="1" as="geometry" />
        </mxCell>
        <mxCell id="XX_flJjxw-XXJBpBVuil-79" value="start" style="strokeWidth=1;html=1;shape=mxgraph.flowchart.terminator;whiteSpace=wrap;fillColor=#d5e8d4;strokeColor=#82b366;" vertex="1" parent="1">
          <mxGeometry x="530" y="1150" width="100" height="60" as="geometry" />
        </mxCell>
        <mxCell id="XX_flJjxw-XXJBpBVuil-80" value="" style="verticalLabelPosition=bottom;verticalAlign=top;html=1;shape=card;whiteSpace=wrap;size=20;arcSize=12;fillColor=#dae8fc;strokeColor=#6c8ebf;" vertex="1" parent="1">
          <mxGeometry x="530" y="1240" width="100" height="60" as="geometry" />
        </mxCell>
        <mxCell id="XX_flJjxw-XXJBpBVuil-81" value="b" style="strokeWidth=1;html=1;shape=mxgraph.flowchart.document2;whiteSpace=wrap;size=0.25;fillColor=#e1d5e7;strokeColor=#9673a6;" vertex="1" parent="1">
          <mxGeometry x="530" y="1330" width="100" height="60" as="geometry" />
        </mxCell>
        <mxCell id="XX_flJjxw-XXJBpBVuil-82" value="stop" style="strokeWidth=1;html=1;shape=mxgraph.flowchart.terminator;whiteSpace=wrap;fillColor=#f8cecc;strokeColor=#b85450;" vertex="1" parent="1">
          <mxGeometry x="530" y="1410" width="100" height="60" as="geometry" />
        </mxCell>
        <mxCell id="XX_flJjxw-XXJBpBVuil-83" style="edgeStyle=orthogonalEdgeStyle;rounded=0;orthogonalLoop=1;jettySize=auto;html=1;entryX=0.5;entryY=0;entryDx=0;entryDy=0;entryPerimeter=0;" edge="1" parent="1" source="XX_flJjxw-XXJBpBVuil-81" target="XX_flJjxw-XXJBpBVuil-82">
          <mxGeometry relative="1" as="geometry" />
        </mxCell>
        <mxCell id="XX_flJjxw-XXJBpBVuil-84" value="a,b" style="text;html=1;align=center;verticalAlign=middle;whiteSpace=wrap;rounded=0;" vertex="1" parent="1">
          <mxGeometry x="550" y="1255" width="60" height="30" as="geometry" />
        </mxCell>
        <mxCell id="XX_flJjxw-XXJBpBVuil-85" style="edgeStyle=orthogonalEdgeStyle;rounded=0;orthogonalLoop=1;jettySize=auto;html=1;entryX=0.5;entryY=0;entryDx=0;entryDy=0;entryPerimeter=0;" edge="1" parent="1" source="XX_flJjxw-XXJBpBVuil-80">
          <mxGeometry relative="1" as="geometry">
            <mxPoint x="580" y="1330" as="targetPoint" />
          </mxGeometry>
        </mxCell>
        <mxCell id="XX_flJjxw-XXJBpBVuil-86" value="&lt;span style=&quot;font-size: 18px;&quot;&gt;&lt;b&gt;.5&lt;/b&gt;&lt;/span&gt;" style="text;html=1;align=center;verticalAlign=middle;whiteSpace=wrap;rounded=0;" vertex="1" parent="1">
          <mxGeometry x="640" y="1150" width="60" height="30" as="geometry" />
        </mxCell>
        <mxCell id="XX_flJjxw-XXJBpBVuil-95" value="" style="edgeStyle=orthogonalEdgeStyle;rounded=0;orthogonalLoop=1;jettySize=auto;html=1;" edge="1" parent="1" source="XX_flJjxw-XXJBpBVuil-96" target="XX_flJjxw-XXJBpBVuil-97">
          <mxGeometry relative="1" as="geometry" />
        </mxCell>
        <mxCell id="XX_flJjxw-XXJBpBVuil-96" value="start" style="strokeWidth=1;html=1;shape=mxgraph.flowchart.terminator;whiteSpace=wrap;fillColor=#d5e8d4;strokeColor=#82b366;" vertex="1" parent="1">
          <mxGeometry x="310" y="1150" width="100" height="60" as="geometry" />
        </mxCell>
        <mxCell id="XX_flJjxw-XXJBpBVuil-97" value="" style="verticalLabelPosition=bottom;verticalAlign=top;html=1;shape=card;whiteSpace=wrap;size=20;arcSize=12;fillColor=#dae8fc;strokeColor=#6c8ebf;" vertex="1" parent="1">
          <mxGeometry x="310" y="1240" width="100" height="60" as="geometry" />
        </mxCell>
        <mxCell id="XX_flJjxw-XXJBpBVuil-98" value="a" style="strokeWidth=1;html=1;shape=mxgraph.flowchart.document2;whiteSpace=wrap;size=0.25;fillColor=#e1d5e7;strokeColor=#9673a6;" vertex="1" parent="1">
          <mxGeometry x="310" y="1330" width="100" height="60" as="geometry" />
        </mxCell>
        <mxCell id="XX_flJjxw-XXJBpBVuil-99" value="stop" style="strokeWidth=1;html=1;shape=mxgraph.flowchart.terminator;whiteSpace=wrap;fillColor=#f8cecc;strokeColor=#b85450;" vertex="1" parent="1">
          <mxGeometry x="310" y="1410" width="100" height="60" as="geometry" />
        </mxCell>
        <mxCell id="XX_flJjxw-XXJBpBVuil-100" style="edgeStyle=orthogonalEdgeStyle;rounded=0;orthogonalLoop=1;jettySize=auto;html=1;entryX=0.5;entryY=0;entryDx=0;entryDy=0;entryPerimeter=0;" edge="1" parent="1" source="XX_flJjxw-XXJBpBVuil-98" target="XX_flJjxw-XXJBpBVuil-99">
          <mxGeometry relative="1" as="geometry" />
        </mxCell>
        <mxCell id="XX_flJjxw-XXJBpBVuil-101" value="a,b" style="text;html=1;align=center;verticalAlign=middle;whiteSpace=wrap;rounded=0;" vertex="1" parent="1">
          <mxGeometry x="330" y="1255" width="60" height="30" as="geometry" />
        </mxCell>
        <mxCell id="XX_flJjxw-XXJBpBVuil-102" style="edgeStyle=orthogonalEdgeStyle;rounded=0;orthogonalLoop=1;jettySize=auto;html=1;entryX=0.5;entryY=0;entryDx=0;entryDy=0;entryPerimeter=0;" edge="1" parent="1" source="XX_flJjxw-XXJBpBVuil-97">
          <mxGeometry relative="1" as="geometry">
            <mxPoint x="360" y="1330" as="targetPoint" />
          </mxGeometry>
        </mxCell>
        <mxCell id="XX_flJjxw-XXJBpBVuil-103" value="&lt;span style=&quot;font-size: 18px;&quot;&gt;&lt;b&gt;.6&lt;/b&gt;&lt;/span&gt;" style="text;html=1;align=center;verticalAlign=middle;whiteSpace=wrap;rounded=0;" vertex="1" parent="1">
          <mxGeometry x="420" y="1150" width="60" height="30" as="geometry" />
        </mxCell>
        <mxCell id="XX_flJjxw-XXJBpBVuil-104" value="" style="edgeStyle=orthogonalEdgeStyle;rounded=0;orthogonalLoop=1;jettySize=auto;html=1;" edge="1" parent="1" source="XX_flJjxw-XXJBpBVuil-105" target="XX_flJjxw-XXJBpBVuil-106">
          <mxGeometry relative="1" as="geometry" />
        </mxCell>
        <mxCell id="XX_flJjxw-XXJBpBVuil-105" value="start" style="strokeWidth=1;html=1;shape=mxgraph.flowchart.terminator;whiteSpace=wrap;fillColor=#d5e8d4;strokeColor=#82b366;" vertex="1" parent="1">
          <mxGeometry x="90" y="945" width="100" height="60" as="geometry" />
        </mxCell>
        <mxCell id="XX_flJjxw-XXJBpBVuil-106" value="" style="verticalLabelPosition=bottom;verticalAlign=top;html=1;shape=card;whiteSpace=wrap;size=20;arcSize=12;fillColor=#dae8fc;strokeColor=#6c8ebf;" vertex="1" parent="1">
          <mxGeometry x="90" y="1035" width="100" height="60" as="geometry" />
        </mxCell>
        <mxCell id="XX_flJjxw-XXJBpBVuil-115" value="" style="edgeStyle=orthogonalEdgeStyle;rounded=0;orthogonalLoop=1;jettySize=auto;html=1;" edge="1" parent="1" source="XX_flJjxw-XXJBpBVuil-107" target="XX_flJjxw-XXJBpBVuil-113">
          <mxGeometry relative="1" as="geometry" />
        </mxCell>
        <mxCell id="XX_flJjxw-XXJBpBVuil-107" value="a" style="strokeWidth=1;html=1;shape=mxgraph.flowchart.document2;whiteSpace=wrap;size=0.25;fillColor=#e1d5e7;strokeColor=#9673a6;" vertex="1" parent="1">
          <mxGeometry x="90" y="1125" width="100" height="60" as="geometry" />
        </mxCell>
        <mxCell id="XX_flJjxw-XXJBpBVuil-108" value="stop" style="strokeWidth=1;html=1;shape=mxgraph.flowchart.terminator;whiteSpace=wrap;fillColor=#f8cecc;strokeColor=#b85450;" vertex="1" parent="1">
          <mxGeometry x="90" y="1390" width="100" height="60" as="geometry" />
        </mxCell>
        <mxCell id="XX_flJjxw-XXJBpBVuil-110" value="a" style="text;html=1;align=center;verticalAlign=middle;whiteSpace=wrap;rounded=0;" vertex="1" parent="1">
          <mxGeometry x="110" y="1050" width="60" height="30" as="geometry" />
        </mxCell>
        <mxCell id="XX_flJjxw-XXJBpBVuil-111" style="edgeStyle=orthogonalEdgeStyle;rounded=0;orthogonalLoop=1;jettySize=auto;html=1;entryX=0.5;entryY=0;entryDx=0;entryDy=0;entryPerimeter=0;" edge="1" parent="1" source="XX_flJjxw-XXJBpBVuil-106">
          <mxGeometry relative="1" as="geometry">
            <mxPoint x="140" y="1125" as="targetPoint" />
          </mxGeometry>
        </mxCell>
        <mxCell id="XX_flJjxw-XXJBpBVuil-112" value="&lt;span style=&quot;font-size: 18px;&quot;&gt;&lt;b&gt;.7&lt;/b&gt;&lt;/span&gt;" style="text;html=1;align=center;verticalAlign=middle;whiteSpace=wrap;rounded=0;" vertex="1" parent="1">
          <mxGeometry x="200" y="945" width="60" height="30" as="geometry" />
        </mxCell>
        <mxCell id="XX_flJjxw-XXJBpBVuil-116" value="" style="edgeStyle=orthogonalEdgeStyle;rounded=0;orthogonalLoop=1;jettySize=auto;html=1;" edge="1" parent="1" source="XX_flJjxw-XXJBpBVuil-113" target="XX_flJjxw-XXJBpBVuil-114">
          <mxGeometry relative="1" as="geometry" />
        </mxCell>
        <mxCell id="XX_flJjxw-XXJBpBVuil-113" value="a" style="strokeWidth=1;html=1;shape=mxgraph.flowchart.document2;whiteSpace=wrap;size=0.25;fillColor=#e1d5e7;strokeColor=#9673a6;" vertex="1" parent="1">
          <mxGeometry x="90" y="1210" width="100" height="60" as="geometry" />
        </mxCell>
        <mxCell id="XX_flJjxw-XXJBpBVuil-117" value="" style="edgeStyle=orthogonalEdgeStyle;rounded=0;orthogonalLoop=1;jettySize=auto;html=1;" edge="1" parent="1" source="XX_flJjxw-XXJBpBVuil-114" target="XX_flJjxw-XXJBpBVuil-108">
          <mxGeometry relative="1" as="geometry" />
        </mxCell>
        <mxCell id="XX_flJjxw-XXJBpBVuil-114" value="a" style="strokeWidth=1;html=1;shape=mxgraph.flowchart.document2;whiteSpace=wrap;size=0.25;fillColor=#e1d5e7;strokeColor=#9673a6;" vertex="1" parent="1">
          <mxGeometry x="90" y="1310" width="100" height="60" as="geometry" />
        </mxCell>
        <mxCell id="XX_flJjxw-XXJBpBVuil-118" value="" style="shape=image;verticalLabelPosition=bottom;labelBackgroundColor=default;verticalAlign=top;aspect=fixed;imageAspect=0;image=data:image/png,iVBORw0KGgoAAAANSUhEUgAAAiAAAACnCAYAAAAoo+dVAAAAAXNSR0IArs4c6QAAAARnQU1BAACxjwv8YQUAAAAJcEhZcwAADsMAAA7DAcdvqGQAAHLdSURBVHhe7Z0HYFRF1/f/29ITNpUUOmmQBiQ06SCggoqICIgoIoqiPCAivfnSRamiFBGUothApCkEBClJgARIAiEJKUBCGoGQtsnunnd29ybZ3WwaJaLO7/3u95DZuXdmzjlz5szcmauIGOBwOBwOh8OpR8TC/3I4HA6Hw+HUGzwA4XA4HA6HU+/wAITD4XA4HE69wwMQDofD4XA49Q4PQDgcDofD4dQ7PADhcDgcDodT7/AAhMPhcDgcTr3DAxAOh8PhcDj1Dg9AOBwOh8Ph1Ds8AOFwOBwOh1Pv8ACEw+FwOBxOvcMDEA6Hw+FwOPUOD0A4HA6Hw+HUOzwA+Sdzdz+m9e2Bl1ZGQikkcTgczn+Hu9g/rS96vLQSkY+7E6xvf62+hV3v9Ub/ucegEJIeN3gA8g9GXZiEs8f/wl+X0ngAwuFw/nuoC5F09jj++usS0h5zJ1hv/jr/In7bcwF3YIGClHDE3mLhhyoDp34+jGuPtOB7uPTDMsya+zXC7wlJNcADEA6Hw+Fw/iXk/Pp/eP3FLug4bAPSLB3gLL6Mj58OQa9h47DyxKNZC1Hd+hOfDAlB55enYuHizTiepRJ+qR4RMYR/cx4V6rtIOheFhKy7yC9SoFSphsjMBk6NW6Ntm+aQS4V8AuqsKBwIvYI8tUY1IojEEpjbOKGRTxCCPB1gpssGdfrn6NdsAs51nYbVb/pDJhJDaimHm3dbtG/losunzkX0H6FIlHfCgI4eKCuq+NoJHLgABD3dDS0sdGnK62fwW3g+vPr0hp+8cmyq/f1MNhp3fwbBDfV/VyH97H6cymqCF5/2w82w/Tid6YKO/TqhsbmQRUNJKk7tj0CRdx/0ai1n0W8BEo4dwiVJG7zQrQXLoEJa+G84ecsNXZ7pAHdW2cKkUGzb8gvCUxWwDxiIMW89B18b3eOgSkP4bydxy60LnungztrGZkOh27Dll3CkKuwRMHAM3nrOF2XZmWARdSAUV/LU0EqWyUtizvTQyAdBQZ5wKBOsKdRpCNtzHNeK9bqLSASxxBw2jh7wCmoDb0fDB6gzI7H/zyRYB/ZFLx9bIVWH8mYY9p3JQ8vefeBvz2RZkIBjhy5B0uZpdCtTiDF1sqM6ypJRkHAMhy5J0EZrE2rcSbqA2NRs5ObeRaHKDHauLREU7AfX8uqxPJd+x6GYXGhNVYNGJlIL2Do3ReugADQzNm4j1Glh2HP8GgzFqtOLo4cXgtp4w0Cs6kxE7v8TSdaB6NvLBwZSVd5E2L4zyGvZG3387U3MrtTIPLcPofGFkNk2QlCXTvCUS3Q/ae7dfxqZLh3Rr1NjGJrtKeyPKIJ3n15ozfpFbftnnaijjzDUFbv9ThIuxKYiOzcXdwtVMLNzRcugYPhVKAvq21cRduEasu8UoLhUBZG5HVw92yDEz5XNlctQ4vqZ33AmuzG6PxMMw26ejrP7TyGrSXc8HeQsJBpSe9mokRv9B0IT5eg0oCM8ytpXfA0ndI6poh8or+PMb+HI9+qDJ/3khn2lWS4+79cME851xbTVb8JfprE/S8jdvNG2fSu4aAt8gLKM0fjTI6FIsO2EZzt5QFJuU0VM5o0Q+ETHCpti6OupWW4t/DXDUIYM1qckMivYszYFBfvCRd84TaJERsQufLF8CVb9GI27kobo/NpkfDTxTTzL2lS5XzwIaqQfnINXxizDSVEHdHG4iGNXgrDsyjF82KJCDlWiCUA4j5bS87MpSKYd84wuEZm7daJx26+QQsiroWjvaGIdv3J+kYyc2o2iDRcKdBmzv6KB1iIT+czJo8/HdDyX5VGcoEneUpL5TafwUt1trEZ0cV4wyWTBNP9SWaKKUlf2IjOJB409UCykGZL/w3ByEMuo0+IrpBTSdNymjU+bk0g+jP27iMLmhJA1q6v3uP2UrdLl0KBMWEZdZBJqPO4P0pagCKNpfqxubedof9fUK2y6P8nELjR05w2K2TKaAhpIycbdm3ybyIl1WHLqt5YulxVeGkbT/WUkdhlKO2/E0JbRAdRAakPu3r7URC4jkdiJ+q29XFHXor00uqG4sryYHmRO7WjUhgskSLYymV9Sf3MTshYukcyJ2o5cR+fvCfkZqtTtNNRDQpJGw2jHDT1BMFnfWM1kLW5Io38t0qYowqaRn1RGbedEaf82Rd3sqI6yZHeGTfMjqawtzYliNlF6kea1k1UqR2ofQCM3XmRa1lBMB8Z6EHMzRvl0l8jclUJeXUkn9Y3AiMwv+5O5yPT9Or20pZHrzlO5WFWptH0oK1PSiIbtuMEkWYHqxmrqZSamhqN/FepnTAHtGiYnUdmz3QfQ2mhBYkVhNCfEmunRm8btz9Z7rpISlnUhmaQxjftD1y9q3T/rQN10a6QrbX9uRzKje0VSewoYuZEuaoWh6d89iQ1yBnk0dW7Y5SPaf6usxfn0w3AHEss60eIrhr2cbm+kp1kfkA/bJSRUpvayUdCJSd6sDX40vcIxMbObR8EyGQXPv8RapUOVupLpVUIeYw9o/zbsK9n01UCmN+PyNHLz6EMf65zgfZdVieKD9Bbr07IuyyhBK54i+uVVJ2KDurZMibwdvfdLmV0a6ak2/ppRpQw1NuvSgd79PrG8vqYoTT9FX88YSiHujuTibENyl4bk0KwHjV6wi6Jyqu6L90cR7R7tTcGjP6fTmfm05zUXZjtd6ZNEI9upAh6A1AO6DiOl1u/vpSvXkig5OZmuXT5PR3cuoBc8zUls3ZWWxeoprDSPbqWmUEqKcCUn0uXzR2j7/EHUkjkAczZgn9VaoIryM29Qalm+lGt05fzvtG6kL5mJLKjXqhSW5Rat68uCA7shtKPci5dSxAw2OMk60qJyJ6Oi5BU9WABS4WiNUSZ+Ql1lzAEN/a5iQNCSQxueYu2QD9f9WXyBlvWUk1jalEb9mF7uzJXxS+kJFoA0fedwFQEIq0XSWuprKyYzjybkZtOSBq84SRmaKirT6MdRTdnA05zGh5bVT0VJa/uSrdiMPJq4kU3LwbTiZIY24FCm/UijmrLBv/l4Ks/O2p13K7VCrinJlMj0cGT7fBrUksnInDkKnWBNUEy301Ipceco8pDIqP3sk5TEnpGcGEtnj+yghS/5kBVzsq0+PKlrmxYVZex+g1qwNrsM3CA4LA0sAFmlCUBcafTe2gcgdbWjusnSeFArppTzJyjsQiwlJCVTUtwFOr5rAQ1qwQI76x70aZyuHFV+JqXGbKIXXSRkFvgh/XFNI5MYCv/9W/r4ZX+yE4vJ8al1FF9RLUOKb1NaaiLtHMWCCll7mn0ySaeX2LN0ZMdCesnHigUFrejDk3pSzdhNb7B6SFwG0oYKobIAZJU2AHEdvbeKAIQ1Pe8WpSYnUMQ3r5GXVELuLFjJF34rvrCMesrFJG06in5ML7dail/6BAtAmtI7h4U61Lp/1p666dZYV6zuKefpRNgFik1g9ybF0YXju2jBoBYs0LSmHp/GafMoM69QeMQFiolLpCT2/MSYU7RrRi9yFkup1Udn2FO1uSjxk67sPjkN/c6wl1POBnrKXEzy4T8KCSaog++6ta4vCz7taEiFY6LSiBnkz4KCjosqJjmq5BXUgwUFmomLBuO+orHBG3plXrtynn5fN5J8zURk0WsVpajuv6xKlEbQzAAZSVtNodNCRFiqtal4ivhhMnVi9iNp/p7gc4z1VAt/rcFYhuzS9L9j22ZQHzcJiR1foh05uqymuP3La9TYMZje2nqWdoxsSP5Tf6fjK4eSD5s8TD9TEcY+NJh8dRTxAORxRL/DGPulOz8MJyexjJ5YmiCkVEce7XndnTnqdjTvYtUervjo+9SCDZJt5kRq/qI/xjVm9+ivdhTR3tGuJLF6ljbfFpJYF7y8qCPJpN406UQVRlp8lN5rLiFp66lkYMeqDPqirxmJnUYJCexpCRtooAvrjG6DaWuyzhgVp6aQL5NDwIwInRxMBCBsTkxf9mfBAJvhDv463kBexYffpaasXSEfRwspDGFlQtJoMH0db5CbDr/LBllZCH0cXXNnyNvzOrmzZ7ebd1FIMU3xH+OoMcvXZVlCudPSUsBmRo1NyIYFZ7uGNySxWE69PosWnHwpRX8czAa15vTeUd2gVvsApC52VBdZVh7UKsMCqk0DyFpkSU+tzxDSWAu3DSa52Ip6r0lhOfRQpdDGgWw2LfWhD09V5/jKbLQLLdMLKDQUHHyLyZsNzFPLBkgdObuGs1kiGwx7fUZlixil0R+zGa2Emr93VC8IrALFGZraWsoGko/09KWkhA0DyUUsIbfBW0lntgo6NcWXySWAZkRUJZcyatc/TVE33dZGV5puuYkGsBm35VPrhRQTFOymUc5iMn9yHZXFXMVH36PmJmSuyviC+rIAz2nUbiGlLlSWTVlf0l+B0Mz+XSVW9GyFYyLl5UXUUSYl70kntH/Xpq9ofNX7LSQkazOHItnD77esSjCbXtGD+bqGo0mYO+iRTz+NdGIDcFkba6cnQ39dHQo681ErkjIfPflkdf2piPLy2O+ayeeTFuTM9KWpalFeXiXberjUPQB5uK+DOHXGJiAAnhI1biQnCSnVYY2gQE9IVOm4fr2q7cwq3Dx/AWkkh19QS/a3DJ5ezSBWJSMhQXeP6uYe7DycBUlAJ3Sy0yYxVMjKyAGJnODqWsW7O/MghARaQnUtClG5aiFRQzGKSwCRpaXwNyBpOQbr1wyHR9ZuTH5nA66W3MaRLb8gAU3Rq69/+V6USqjykV+ghtj1Gbw13NMgn7R5czQSq5F+/bqQosmejwK1GK7PvIXhnga50bx5I4jV1cmqAuugQKYHlcGz64RFEIJ8JFClpUC/OGXcDmw8lMUC/bs4NvdNLIkoBBQx+GlvDFT27dElsMYXurXCpB3VUZY1I4bc1wceEiXSb9wU0hSIOB6Oe5JW6NHT3fD9srgJXhzSFZaqJJyLyIC+xdQWi6Ag+DC9pKVcrzg5oIzDjo2HkMUmUHePzcWbSyJQyOoR89NexKjs0b5LoMEeDpOYtUaAL7PllMuILRDSIEHLMeuxZrgHsnZPxjsbrqLk9hFs+SUBaNoLff2rtFqB2vTPulM3H1GBWO4LHw8JlOk3hBQTSB3goNnXkn8HdzUL/QzzoBAEWqpwLSoKht28GCUQwdLSSkioC5VlI/P0QjOxCskJCTrdqm5iz87DyJIEoFOFY4IqKwM5JIKTq6uQUjOqm+dxIY0g9wtCS6a2h1aW2BHODjLQ3WxkV9rPKYObmxPElI+7d2tr7cb+unpEYtbDRJawsqpu6LaAra0Zq6sVOo1djNlD/VjNWKqtbdV+92+CByB/MyJbG1iKCMVFRUIK86/Ry9DbzR39V8Yx89RHzAzPgrmAYhQVC0nGKM5h05bTKPV4HiP6abboscHZswXscQcH5zyDvj1C4OU/EjtzfDB29ljm3HW3QX0Hl+NuQm3vBR/3qjYP2aJdWx9IS2NwPqpUSGOo7+JuPjGH5ygkaBDDfchqrH/LC3mHpmPEs8/hjc2paP7ackzvXrHlrRLs2TEJKki8/eCv6TV6iKysYMFkpWCOsIzSmBgkqCTw9vPXdrIKRDpZkYL5TcGzKqOxrLcb3PuvRJzRJm2x9tnMx1Yp2BoQ28LGmj2gRKF35j4HP89bgFBFB8zaPB0hFI7FYybi4/EjseS8JXrOnIMhDkLWB8SUHdVVlrVBbG0DK8195XIqwo0bWVBL3NGkcWX3ZuXuBgcx4U5O7n0FIGLWLp1Y9aT68zwsCFWgw6zNmB5CCF88BhM/Ho+RS87DsudMzKmVUC3h7dMU0pIEXLnKoucyxO4Ysno93vLKw6HpI/Dsc29gc2pzvLZ8OsrM9oH6531gUre1QWwNGysRSFHdfWKImXyhVFW0xbYd2vpImfmch2E3v4t8NmeVO9oLKZWpi2zErp5owR515+AcPNO3B0K8/DFyZw58xs7G2ArHhDuX43BTbQ8vH3chrSYUOLdpC06XeuD5Ef20G5UfXllSODrJ2YTuNrKyjZwINP1CwSZxVrC1qeXQWslfVyND9W1ERiVBbeMLf4PJVlXYou3QiXh/AAv8hJTHDR6A/O2I2P8x9A4jqQtzkZmdjazcYu3uI0O0uXXbkiqhxvVtC7EhVoaO705EP+GEg8zTE03ZDCqPzYYdGgfimfGf4pfwk1g9wLnCAPKOIjSiBNbtu6FTlfGBFF4hQXCkDFyKSqnoHMpUXE9TQ+LeREgQEDvgqaVfYXKbUpz/nXWynkvw49rn4VqN1aluxCIuRwRX39ZwMs6n1p1ekcrKOp8KN2LjkCNyhW9rNvMQUstQa3eRS1GeXV2I3Ew2c8nKNTh1UYZOsiYFWwsEPeqTH4qfD2bBss/b+N+oufhqTjdYxGzE3M1J8Bz3DbZN8HuIM5LKdlQ3WdYSlWagEsHMvGzPPvubGQIR+18ToqOSUihZurmleWX51AaR8V35CP35ILIs++Dt/43C3K/moJtFDDbO3Ywkz3H4ZtsE+NWqSVLtyqBUdR1XrxoO0GKHp7D0q8loU3oev58uRc8lP2Lt867l9nX//fN+MdYtG8zlznBwcIJcEzVXiU43IrM6rrJJvRAS5AjKuISolIohUJl6HWlqCdybGPVzPeokG5knPJtKoM4rgNqhMQKfGY9PfwnHydUD4Fxur3k4GhqBEuv26Fa1YzJAfX0bFm6Ihazju5hY4QQfUlkSOLs4QEwsADE+asomYvGJGVBbNGdl1cYITfvrqmSoztyPfaeLYdOlH3rczyLUY4ixW+L8k7lzCAsW7cfdZq9h/viKwU3S1AvNNQbrORxrvtmMtQsm4HmD41gqJGxdjwN35Og7bKBeh6yMWbtg+JupcDkyis19dSjjzyIyW4QWbdoIKXrYdGEDLhsk5MC91HjcZEFQdWhWNOJVLNDx0y0bGlBSAiVzYjJZmUMtRUxMPFTMYfr5VcrNsiuZz5NBZl6dk350qDJTcKNABKfGTWAjNkPApA1Y2I8FSmJHtO0dYnjE8RFQN1nWDnVhAYqYVzSzKHvdZo2GDe0gVt9ESrLxawc1bl1NQA6biTX3bPRwZmGqTKTcKIDIqTGasFmmWcAkbFjYjwVYYji27Y2QWgm1EFd/+giDZx1igagCiVfiK17vCNh0mYvNLGCU4x5S42+iBrOtZ6Twn3oUGbd+x6Ty2bsJWMBdoFOWkFBbzNAu2B9mqstsxl3eyxF/NhLZohZo08bE8dT7QdIUXjrHhOFrvsHmtQsw4Xk/6H8BQJWwFesP3IG87zAMrM4xlXMHhxYswv67zfDa/PEVwehDK0sMZ2dHiNS3kZ1taBTqzH34jQUIVh16o3sDIbE6qvDXplEh+fttOHKvAfoMfbZaH/1P4l/SjMcLRWYcLlxOx0Ncha0FJTi3cja+SZFj4KyZ6K3/gQTzlvBqIoUqNQGJxp6WDRK5pxZhzPzjULWbgBkvNazWKMSO7dCuuRj50ZGI1TyLzSB/Xvo1LsIbAwe11WUywjxoMr5a8jQaJGzE2xN+YLMoXXplWCeLjcMdkTta+bFZhpBahlqz34NEsLKx1iWokhEbdwci91bwc6iUG/n5BdrlUO2rkYeE6l4+G4BFbEZvWTafq5qiIii0g7xMl1fqjbe/XI7nXW5i+/vjsU1vdvnwqaMsa4lmGf6eWoQGDmWvOczQvnM7WCovY+9PUcwK9VBE4uvtYVDKe2FAj4r9QZVR4V5+kebcLiwta5JqEYoUmriSBZY6ocL77S+x/HkX3Nz+PsZv01uZM4E69yzWj34CHYeuQIxHMLzMlEiJu1oeTFdgjqDJX2HJ0w2QsPFtTPghjVnUw0KBzLgLuJz+iD2E5tXoPTVEDer6no8Fc+3aobk4H9GRsdrgTHX9Zyz9+iLgPRCD2patfj0o5mjp1QRSVSoSKjsmpqtTWDRmPo6r2mHCjJdqFbCXnFuJ2d+kQD5wFmYaOsGHVBaTjbMDZHSXBSB6m0DUGdg3ezEO3HPDi+OHo3GNda3GX5tCeRFbtvwFhftgjHlBb+W6Xnn4dlurxUpOHdDsMxjQDnOjPDHlRBSWdir/vAyyzn6HVStCDY0n/wxuPgTPpkrajFmrIyEKno/5Iz0My5B6wrO5DKoj53Do6CmYebjA3rIUt1Mu4MTurfh88++47jwY676ZiuCqJsSF0dj99WEklRQjXSqCKm4vlkzOgvrkfhyIvAPPsd/hgw6atrKB7/Bm7L6Ub7gES0Ho3OR37P1uIiYN7Imdw00FOgpcjk2AShYMv1Zszq7OwumdOxGWqdI+S512Euls8HOXCzMwxWXEJqggC/aDLvtp7NwZhkztuwA10k6mQ80GYLneh4HuG037v/oVB3YewG1xEwQEVn7lYwwJrzlEeq8RJE1fxeerDuPciB34gA2cHX8bD5869cLa2lEdZWmEOjcCu75leYzeqygvRiGXLOHkVLZxTwz3l9/HiGWh2LT8FbxiswSTn20N29yL+OWT6VgaaYYO86djSBVTtsLo3fjq1wPYeeA2xE0CEFjpXZERpNZ99IzJtFyqbHb76uercPjcCOz44G182fE3jDch1JKL6zDshQ+x+3oDdJ/yE7bMcsLa4B5YnRiHREUysr/ZjUv5hu2loM5o8vtefDdxEgb23InhD2HZSvOOf0C7uYjynIITUUtR7iLu10eocxGx61ucTNfpthw2aEXlEiydnISEmtHo4+vDSSgpTodUpELcXqbPLDVO7j+AyDueGPvdB9B284eCFJ6ezSFTHcG5Q0dxyswDLvaWKL2dggsndmPr55vx+3VnDF73DaZW6Zj0UCVh86zViBQFY/78kfAwEOLDK0vq6AS5WIW0q1FITHJDXuJp/LJuET7bcwMtmR9c+rxjjb6hWn9tgsI/N2HbJcBn8lj01ft4YH1i2m7VyAn7DttPZ0BFKlyJYxMJuoVTW1dhhVwMq1bP4e2nNB+ZrALhNAznYaFMpLX97EnWoDstjdYdelLGLqbOml1kTNwmL5GMvCb+qc2roTRqLgWbW1KnRTGGRz0Zt7cOIjuZO435Tf8MmIKOT/QimbU/TfzjjpCmTylFLexENpU++CQiiW0z6j5mBR1Lq/7YlPYbIGZCG0QiEkvNyc65GQX2GEpTNp7WfV9CSwHtfMmOza2NyxIu1tbAWWd1x8FKo2hesDlZdl6svZOUCbS8uyWZ+08j7alNxXGa6Ck1uF8ktqfB32YL2ZdTd0tz8p92SntcUHF8InlK9cpi7RPbDyYhu7a8uZryOi2imMqCpUF2MnIf85uQYIgycTl1MxeTzK4p9Zz8Kxl8V0xLgfYjV1L7EfSjoBrllaXUhdUvcGa44fE3VTbtf9+fbKT2NHBjqjapNGqeVuedF8dq/zZFneyojrLU2si8YDK37EyLY5WkODOVWhvIUu8+80CaGWZ4DPBe5Bc0MoC1v9zGmOytm9NTsw/QzSpNS0mJy7uRuVhGdk170uRfDT8spqVgFw2TS8l+xI/ao4RMqLS0C2tX4Ey9D+tpUFH2/vfJ34blHbiRUis9SPfxN2uP3jRrX4pwvDSHvh3M6uz2Bu3N2Ukv2VUtW5EskGYJH/eoe/80RJm4lvrZy6hB96UkuIg6+wgDhCPFpu/T2F+YkNEEpRE0K4j1iW7LKV6p+waImaBDkUhMUnM7cm4WSD2GTqGNp3Xf2KmOusqmNGohdbKp3G6RxJaadR9DK46lVXpOVX1F0/+9ZNbkP/EPMukF76MsUyhjFlCHMl+ovURk5tKOhi89QoZu1LBPVVC9v658JLuI9o1xJ5m8D60Uvr/zd2DKbsvawsJ9PXlUyMXmua+FfKbhn2L/z6DCvbSruJKQivSsPChEFrB380RAUCs0/JdsaOL8zajzkRoZhqikXKhs3BHQsSM87R+f/feqm5cQK22NgIaP65mA/yaqe2m4eiUBqelZyFOIYGHvBs+AILR6BI7p4ZRVgozYcETG30JeqQwNPHwREuxj+J8MeABKwqejXZdPYTYjAuHzg/7Vryl4AMLhcDgczmPCfykAefAXmhwOh8PhcDh1hK+AcDgcDofzmKC+HYadW05B0mM0hgU/pCPPjyk8AOFwOBwOh1Pv8FcwHA6Hw+Fw6h0egHA4HA6Hw6l3eADC4XA4HA6n3uEBCIfD4XA4nHqHByAcDofD4XDqHR6AcDgcDofDqXd4AMLhcDgcDqfe4QEIh8PhcDiceocHIBwOh8PhcOodHoBwOBwOh8Opd3gAwuFwOBwOp97hAQiHw+FwOJx6hwcgHA6Hw+Fw6h0egHA4HA6Hw6l3eADC4XA4HA6n3uEBCIfD4XA4nHqHByAcDofD4XDqHR6AcDgcDofDqXd4AMLhcDgcDqfe4QEIh8PhcDiceocHIBwOh8PhcOodHoBwOBwOh8Opd3gAwuFwOBwOp97hAQiHw+FwOJx6hwcgHA6Hw+Fw6h0egHA4HA6Hw6l3eADC4XA4HA6n3uEBCIfD4XA4nHqHByAcDofD4XDqHR6AcDgcDofDqXd4AMLhcP753N2PaX174KWVkVAKSf9a/ktt5Wi5u38a+vZ4CSsj/10a5wEIh8P5x6MuTMLZ43/hr0tp//pB+b/UVo4GNQqTzuL4X3/hUtrjp3H17SjsWjweL/XrguA27fDEU69i5jeRyFULGaqBByAcDofD4XDqTsmf+LBzJ4xYtB83LZvD39cJd8J3YvHrPdB//hkUCtmqQkQM4d//QgqQcOwQLkna4IVuLXRJdy/j8O8XkKXUNFsEkVgCC7uGaBEUgkB3K10eAXVWFA6EXkGeWhCRSASJzAr2bt4ICvaFi7kuWUNBwjEcuiRBm6e7oYUFS1BnIepAKK7kqaEtSSSGxNwGTo18EBTkCQcz7W2mUachbM9xXCvWUw0rWywxh42jB7yC2sDbUf8BamRG7sefSdYI7NsLPrZCshYlbobtw5m8lujdxx/2mpCzIAHHDl2CpM3T6KatrCHq21cRduEasu8UoLhUBZG5HVw92yDEzxVluZWpp7DnVApKqrAekbUXeg0MQUPcxbWzkYjPuovC4lKUqghSSzlcWwSgDXuegcQfRGZa1Lh77Swi47Nwt7AYpazuJLWE3LUFAtr4wdWwMORGH0Fogi06PdsJHhKWknkO+0LjUWRmh0aBT6Cjpxwsmf2Qi+g/QpEo74QBHT0g1d4PFF87gQMXgKAynTOU18/gt/B8ePXpDT+5cXyvRlrYHhy/Vqxtnw6dDZrbOMLDKwhtvB1hoNnMSOz/MwnWgX3Ry1CxUN4Mw74zeWjZuw/8tYo1htnFuX0IjS+EzLYRgrp0gqdc2yLNzQjbfxqZLh3Rr1Nj6JkySphu90cUwbtPL7RmbTDsB2X1dUIjnyAEeToY1LfWGNmgMjMWZy4kIOOuGjZN2uCJkGawLW+SCrmJ53AxIQO37xVBKbGBS3N/BAc2gY2QR53+Ofo1m4BzXadh9Zv+kDHb0diZm3dbtG/lItRRhbTw33Dylhu6PNMB7kyRhUmh2LblF4SnKmAfMBBj3noOvjbazJVR38bVsAu4ln0HBcyWVSJz2Ll6ok0Is60y/T+KfmFErdr60GyWSS03EecuMt3cvocipQQ2LmygCQ5EkzLhl6GuW5sMfKZZzbLVUoPvMqWjBm7sOcF+aFiWvRZ61GE8ftTRzxqhzo3GkdAE2HZ6Fp10Dgfn9oUivsgMdo0C8URHT5R1T8OymyH9835oNuEcuk5bjTf9ZawPSmEpd4N32/Zo5VLWA9XIijqA0Ct5qBiyJJBZ2TPbCEKwr4tBP38olIRh3bwIBLw/Dt3cdFZWeG4eenb7GOcsX8KOa9/j5QbaZNNoApB/LYowmuYnJVnbOUIC0b1vXyBrkdb/G1wiqZz8XtlEMcVCRkbR3tHUUFw5L1MryVw60LvfJ1KpNqeCwqb5kVTWluZE6VLYzTS6odj0vU7taNSGC1Sgy1mZzC+pv7nIxL26SyRzorYj19H5e0J+UlHq9qHkIZFQo2E76IZKSNagukGre5mRuOFo+rVIl6QIm0Z+Uhm1nROlSzCAPWtlT2ImbViuSEYNu3xE+29pHq6iG6t7kZkJOZZdYvlw+pGVV3p+FgXJTOQRSUnu+wIt+TObPU3gQWSmofQ8zQqSmbxfKvelF5b8SdnlhRXTwbc8SCLrQssSlNqUol9eJSdB3yKJnNq994tOlooTNMmb2ZHfdAoX1MsKo4vzgkkmC6b5l8oSNbJjcpF40NgDeoZUTiZ92d+cRJXqJ1xMxk5tR9K6CsWSKnU7DfWQkKTRMNphqFidDsQNaXSZYitRQLuGyYXymAzdB9DaaIXup6IwmhNizWzJm8bt19MBKSlhWReSSRrTuD90baiyH2jq224UbbhQrVZMYmiDpRQ+3Y9kes917fspRZaJsDSSZhvrVSQmW++h9MVFoe3ZX9FAaxN9RmROHn0+puO5mkylFDbdn2RiFxq68wbFbBlNAQ2kZOPuTb5N5MQGcnLqt5Yu68yhEqrUldTTzOj5Grk27EIf7b/FZPiI+oUxtWnrQ7PZUoqcHVShG+0lIrGtNw394iLpW17d2mToM2uWrXBXtb6rGh25dKYPf0vXPqe2ZVUeP+rmZ40pPvgWu1dGXZYlsF7GKPqFXnUS/J1IQvJ279EvZQ81Kjv7q4Gmxy1zD+rz8XHSmjfTxt7RDYnFPpXyafqUS4d36fvEcmN4dJReoLntWH+VdaLFcVV0JoH/WACipMRPupJM6kPv77tGKSkplJKcQJdO/kxLBrdkztyW+q1LqTDA0jy6lcryaPIJV1LcBTq2bQb1cZOQ2PEl2pGjyWgiAGEdN+9Wqt69yZR4+Twd2T6fBrVkg5A5y3u2KmMopttpqZS4c5TWYNvPPklJ7BnJibF09sgOWviSD1kxg2r14UmWU0CVQbvfaMEGDhcauEEwcA2sY6zSdAzX0bRX6Bg1dWJl5hUKj7hAMXGJlJTM6h1zinbN6EXOYim1+ugMay2j+DalGckm4Zth5CI2o55LL1BK+h1tPl1ZUmr9/q8UE695XhLFXzpNv30xnjo5ikni8Trt1vUexoPIjCHoW9r6ffo1Jp4Sk5IpKf4Snf7tCxrfyZHEzMm+Xl5YKUXMDGC20IqmnBYGZa2+kyk+4gea3EnO8jen90KZhFW3aF1fVr7dENpRHhuw+2ewwUzWkRZdKZO2ipJX9GDOvGLwNqb4dhqlJu6kUSyokLWfTSeTWDuTEyn27BHasfAl8rFijrDVh3SyQrGUsfsNaiGTkMvADSTESgw22K3SBCCuNLpMsSZQ5t2iVGbjEd+8Rl5SCbmP/pXyhd+KLyyjnnIxSZuOoh/Ty6xeSfFLn2B21JTeOSxUwrgfsPpePn+Ets8fRC1ZoGzO+ld1ajGFsQ0qbsUz+7hG1y6fpI0jWpCUtev1PWWBTTGlRp6gM1GXKYHpNDE2jPatGUV+liwI6f8FpWqrrqL8zBuUWm471+jK+d9p3UhfFhBYUK9VKdonqZLWUl9bMZl5NCE3m5Y0eMVJytDIVJlGP45qShKm8/EanZtCmUlXwiPoQkyc1raSE2Po1K4Z1MuZybDVR3RGY0aPpF8YU4u2PkybTY2kE2ei6HJCktYHhe1bQ6P8LFkQ0p++0AlfS93aZOQzayNbzV01+C7tcyLO0sVY3XOSEqLp5HcfUTdWvrTVFNJ29VqWVeZP9CewdfGzxpRGzKQAGfOhU07rfKjg75LjI+iHyZ1ILpZQ8/dCtb9UKluVT5k39HzjtSt0/vd1NNLXjEQWvWhVik4PpZr+Xm4XmiuJ4i4co20z+pCbREyOL+0g7ZD1KFGcpA99pCSyfJo2ZgppVfAfC0CY0U9tTVKzHrQiuaLjaFDdWk9PMedvM+gbuiOkVY2CznzUiqRSb5p8UutOTAQgVZO353VyZ4FFu3kXhRTTFP8xjhrrR8xlFByktxpL2EA7taKzaMjZRcMbitksqxd9VjbTLY2mj4NlJGn+Hh0V/EuNndgUBbtpFOug5k+uo/KxygAVJX3ajXXMJvSOniPTL8tQMkqKXdBeOxt9bU/VA2gZtZKZnr6N1aCMXUDtZWJyeW2PkKKiFI3j1awgmPAY+T+NJCdxWXnF9Me4xiQxmDlqZhuuJLF6ljbfFpJYmy4v6siCGm+adEJfMUYU/0HjmP5kXZbpBRQaCujgW6wcaWuaaqhY2jWczWzEcur1WXS584r+mM1mNUFSmWKrQ3GGprZmwZm+g2X1TdgwkA2OEnIbvJWStXVR0KkpvsyWA2hGRE22nEd7XndncmlH8y7WbPf6VGeDxUfepaZM1x0XXhZSTJFJ6/tbsEnASPq5GvMpPvo+tWDPajMnUkgRVqEkjWjw1/EGNll8WFduyMfRQkptKKDdo5xJbP4krTPZMR5tv9DHsK0P2WaNyFzfnyzEjjRST/h1a1NtfGZl2d6X72LP+ekVNgExe5I+N+28GCb0aCoA0VBLP2uMKmUF9TATU8PRew1WjrTk/0QjncQkazdP93dVZRtQTEffb8F03IbmRFYlQwHW/z9qxfq/92TSDlmPEMX52RQkE5Fl9+UUb+DfKmPiTdW/m5ISJUAKFCs0K1MViO194O0mgSL9OtJVQmI1iMRMdCJLWFnVXYTWQYHwlKiQfv26kFJHLIIQ5COBKi0F18s3RSsRt2MjDmWxoPLuMcx9cwkiCgFFzE/YG6OCffsuCHyQF4BSBzho9gPk38FdQ9EJKJGWngkSO8DZqfxFZjVI0DzQDw64g9SUHCGtah5UZpLmgfBzAO6kpggpYjg6O0BGd5GdrRDSKpC5uUGzOpp/967mL3h6NYNYlYyEBJ3AVTf3YOfhLEgCOqGTnTaJoUJWRg5I5ARX19rIwBgLBAX5QKJKQ0qFYqGM24GNh7LYZOEujs19E0t0isVPe2Ogsm+PLrVRrFlrBPhaQpVyGbEFQhrTQcsx67FmuAeydk/GOxuuouT2EWz5JQFo2gt9/ct2DlSFNYICPVl903Fdr74PisRODjuN7O/lCSmmsIWTkxWQn4OcIiGpEircPH8BaSSHX1BLISkf+QVqiF2fwVvDPcv3RmiQNm+ORmJ1HW1MCgcHOcTqfNwx2TEebb+owLitj9ZmbZ2cYIV85FQtfD3ut001yba2SOHkyJ5D93DnTlXPqW1Z9+9nxY7OcJAR7mZno5LHkbnBTfP+N1/jb2qJ6ibOX0gDyf0Q1LKmviqCbsiywn0MWbVHlYStc77AJWqKVz56g/lsIb0K/mMBiBTebf1gpwrHJyPGYd3JW6z7CYhZMKHZgKRgwYlgf8roZejt5o7+K+Mq8mlQ30ZkVBLUNr7w96xC8cpoLOvtBvf+KxFnFNCIraxgIQKKi4qFlDoitoWNNXtAiaLCkHN+xrwFoVB0mIXN00NA4YsxZuLHGD9yCc5b9sTMOUOYA3gQxBCzIqFUGcpCj1JFKQhmMDPXZKwZkY01LEWEkmJBDo9SZiIbWFuKQCUV90sdnSAXq3A7K7tSm0hRBAWJYGWr2ZEohqtnC9gzB3pwzjPo2yMEXv4jsTPHB2NnjwWLBXWo7+By3E2o7b3g434/AYgYtkwmIpRozFAgBz/PW4BQRQfM2jwdIRSOxWMm4uPxI7HkvCV6zpyDIbVSrCW8fZpCWpKAK1dLhDSG2B1DVq/HW155ODR9BJ597g1sTm2O15ZPR3dhQ16V/YDV14p1GhGKcb9qMYlUonVMKlX15/gkEiZjKmHdoIp8inPYtOU0Sj2ex4h+wo7B0hjEJKgg8faDv0yXVIZIa2MERZk91hKxrmOw+ur+NuaB+0VtqNTWR2yzTPYS1qoS5oNqcdry/trEqEm2tUXCbEoTbKmrqWytynoQPyt1hBObxKluZyG7ssNBEZsUi6wMN5pXh+LcJmw5XQqP50dAZ95KRC/rDTf3/lhp5EDVtyMRlaSGja8/qhqyHpxiXFo9FtP358FzzFosetpeSK+a/1gAIobLiDXYNrMv7GK3YOm3FyoGcGaZWn/HOlaZftSFuchk0WpWrv6pBZaeuR/7ThfDpks/9NBu7WaOWM6iWwc2oGlGSQ3qQuRmZiM7K7c8oNFHl6u6SLs6RML9FeSH/oyDWZbo8/b/MGruV5jTzQIxG+dic5Inxn2zDRP8HpnVCbAZgfCv2mPUjkcqM3a/kdAkzi5wYDPt21lZRgOrGnfjE5GhtkBzz6baFJmnJ5pK1Mhjs2eHxoF4Zvyn+CX8JFYPcK7oRHlHERpRAuv23dDJxAb92mBcR6ZY/HwwC5Z93sb/Rs3FV3O6wSJmI+ZuToLnuG+wbYJfub1Wj1Q7I5aqruPqVcNZq9jhKSz9ajLalJ7H78yh9VzyI9Y+71rerqr6gQ6hwnVUi9hKDmcHB+aQ71NQjDJZmT7Hp8b1bQuxIVaGju9ORD/hZIvqRizickRw9W0NNuE0hPkAzaOksofZVx5Cv6gR0219pDZbvfBNUNc2PZ48kJ+VOMPFQQxiAUiWUQCivhuPxAw1LJp7Cik1oL6ObQs3IFbWEe9O7AedytUozM1EdnYWcg0cqBqZ+/fhdLENuvTrUe0Jq/tHhZRd4/DitGMQ916M7z8bAOdaRBe1yPIvQ+KBpz8+iJjL53BoYd8KZVAhCoqY0jRLVNX2FBWSv9+GI/caoM/QZwUhS+E/9Sgybv2OSeVTi/pEhcyUGygQOaFxExuIzQIwacNC9GMeVuzYFr1DGv4HFV0zYmdnOIrUuM0GV4OJkToT+347jWKrDujdXXeGTNLUC801xuI5HGu+2Yy1CybgeT+5nlxVSNi6HgfuyNF32MBadb7aoMpMwY0CEZwaa46cmiFg0gYs7OfEZmuOaNs7BA1rVU4hrv70EQbPOsQCOwUSr8SzuZIhNl2YE2XBjRz3kBp/E2zMeqRI/afiaMYt/D7JR0ipKyJYWVpCRMUoLDQxCN45hAWL9uNus9cwf3xFkFYaE4N4lRRefn4wWgDRvJ9lchFBJnvohxUfLVW09VHarMjKUruiUVxYeB8B1j+VB/SzYmc4O4qgvs0mWYYOB5n7fmMBghU69O4upFXPnUMLsGj/XTR7bT7G1zS5VCXj+21HcK9BHwx9Vi/4fGiocWvfRDz3xjZkhczET7smok0to5yHX5e/EUVmHC5cTkdtFvmsmgbC11Gv+XQXeXkEcQMHOFQXQygvYsuWv6BwH4wxLzwKZVagupePIhLBXONohbSqKCpSMK8gY85Tl1Pq/Ta+XP48XG5ux/vjtyGlumXF/yim38mqkbFvNhYfuAe3F8djeGNBw+Yt4dVEClVqAhIrbXdQI/fUIoyZfxyqdhMw46UaHJHqHvJZsCsy1zhxIa0qiopY3TSDokxnA1JvvP3lcjzvchPb3x+PbTUoVp17FutHP4GOQ1cgxiMYXmZKpMRdReU39+YImvwVljzdAAkb38aEH9IMg7IHQoHMuAu4nP4w39NI4OrG+h9lISPDWAYlOLdyNr5JkWPgrJnoXb6qzSYPsXG4I3JHKz+HSjpS5+ejQPPazcZaSPknUFVbGQ/TZo2QuLqxgIWQlZHBpPrf4YH8LJs0ODvI2FDDApAKhwN1xj7MXnwA99xexPjhjYXUaig5h5Wzv0GKfCBmzeyNml7aKC9uwZa/FHAfPAYvPNDMyFQ/ZhO4Y7MxaOQXSPadiF2/zEU3k98kMs2D1ObxQrN/YEAA2gb2wdwzeu+4DVAj58wOrF65AitWGF2rd+PiPcDWwaH8Y1umKPxzE7ZdAnxGjEXfqj5Y9KAURmP3mkWY9MkB3BY3QUAgm/EKP5mGoC77SFT5gCZB01c/x6rhHsjc/QEbtOIqzXr/85S9k027iqjEJFyNPIytc4ag+/DNuNHyTaxb+jzKY1SpJzyby6C6fg6Hjp7CuegEXEu8jLOh32HFhAFo328ezjR4Aau+mYrgKifQhYjevQaLJn2CA7fFaBIQWPk1gBEkvBYQ6b2bkTR9FZ+vGg6PzN344O0vEVeFYksursOQkO54Z3sGgqb8hPDQT/FsMwmKEuOQqEjG4Y0rDfvAmr0oCOqMJqIb+G7iJHyf8XBCEM0ekgEBbRHYZy5Mdk11Fk5vX42VQj1WfXcWOXpFq7NOY/tqo7quWIP911QQqVIQumklVn39J9KEe1RJmzFrdSREwf/D/JEeen1HgcuxCVDJvODXSla53K0nka4WwVYuF/I//lTdVsbDsFkjGZVda/Zfg0qkQkroJqxc9TX+LBP+v5oH9bNSODrJIVal4WpUIpKuRuLw1jkY0n04Nt9oiTfXLcXz+pNik6iQtHkWVkeKEPy/+RjpUVP+Qvy5aRsuwQcjxvYVXtXcH6b6sfr6N3jz5SUIL2qGPv3dEb19VYWdrFyFTUfKNv1XgXAa5p+PMpHW9rMnWYPutDRaOJJUGkXzgs3JsvNi3d+koL8+8CapxpJMXSILCp4bWX6ErPKxsiLaN8adZPI+tLKGD6xoyp6rKbvTIooxznp7Kw2yk5H7mN+EBEOUicupm7mYZHZNqefkXw0/eKOlQPuBKan9CO1HjTTH3K4s7UKW5oE0s+KrQ1pU2fvpfX8blncgbRTO7JdGzaNgc0vqvDhW+3etKI2gWUGsPd2qOlqloFNTW5OZVQ/6TO9sqX5ZxrcpTk6hVmZW1Gd1si7hAWSmRU/fsZULoymtzMiqz2ohgaGMoQUdzAw+DCYyc6F2w5fSkTTjB5RS1MJOZFPpY0Aiktg2o+5jVtCxSvcYwWx0eTdzEsvsqGnPyfRrZcVSwa5hJJfa0widYkl5ZSl1sTSnwJnhhkcbVdm0/31/smF5B25MFRL10X0Uy9qjN83alyIc3c2hbwczu3F7g/bm7KSX7ERGbam4RLJAmiV83KM0aq5Wh50WxVTS4e2tg8hO5k5jfqt0sLAcZeJa6mcvowbdl1JZ1zRA89EsL6lhHVhf7LjwkvDzJPKS6v1m4hK7vC58AEpBxyd6kczanyb+YXSgXplAy7tbkrn/NDqlEYjiOE30NCxXJLanwd9m6/LXilKKmBVE5pbdaLnJjvEQ+kWVVNNWLQ/BZk3pxvgSu9DrTPh1axOr27xgJrfOtLhSZy2jsmzvy3cxOWn9viyE/q+SYynDhB4rjR9187OVUVLMgg6GH6oTmZFLu+G09EiaocwqlS2gsVkvGVn7T6TKKjdxtLloH41xl5G8z0qqaciqCVP9uDR8BgWYVeVHRNRgyE5dxir4l3+K/cEoCZ+Odl0+hdmMCITPDyp/t8r591CSEYvwyHjcyiuFrIEHfEOC4WPwmXt9VLiXdhVXElKRnpUHhcgC9m6eCAhqhYaPZmfXA6G6eQmx0tYIaPh37EviPB78s2z20VCCk5MD0HONHeZGncGs1n9jfyjJQGx4JOJv5aFU1gAeviEI9jH8zy/cPyUIn94OXT41w4yIcMwPevxHLB6AVAMPQDgcDuefzmMUgDxS/nkBSE0vkDgcDofD4XAeOpJ5DOHfHCNElraQO/uiW/+eCHS//+8VcDgcDufvQgRLO3u4tOqO/r0C4PoPO2Vde1g7beVw9u2G/j0D8U8YsvgrGA6Hw+FwOPUOfwXD4XA4HA6n3uEBCIfD4XA4nHqHByAcDofD4XDqHR6AcDgcDofDqXd4AMLhcDgcDqfe4QEIh8PhcDiceocHIBwOh8PhcOodHoBwOBwOh8Opd3gAwuFwOBwOp97hAQiHw+FwOJx6hwcgHA6Hw+Fw6h0egHA4HA6Hw6l3eADC4XA4HA6n3uEBCIfD4XA4nHqHByAcDofD4XDqHR6AcDgcDofDqXd4AMLhcDgcDqfe4QEIh8PhcDiceocHIBwOh8PhcOodHoBwOBwOh8Opd3gAwuFwOBwOp97hAQiHw+FwOJx6hwcgHA6Hw+Fw6h0egHA4HA6Hw6l3eADC4XA4HA6n3uEBCIfD4XA4nHqHByAcDofD4XDqHR6AcDgcDofDqXd4AMLhcDgcDqfe4QEI52/iLg7MfAq9h69GpFJIemx4nOvG+Udy9wBmPtUbw1dHgpvUf5R6tgH1rR/xv74D8PGfCiHl8YMHIJy/B3UhroUdxZ/HLiDtcfPIj3PdOP9I1IXXEHb0Txy7kMYDkP8o9WUD+Zf247dLdwGLe7h2+gJuFAGqzDDsOZr0SMpV347Cd4vexdCnu6NDcAi6PvMaZn17DrlqIUM18ACEw+FwOJx/BVnYM/9VDHqiE0ZsTIelgwskV/4Pz4R0x0tjPsPxh70YUnIS07t1wshF+5AqcYdXC3vcPrMDi17vjWcWnUNNxYmIIfybw3m0FCTi+O+XIG7zFLo2zcXn/ZphwrmumLb6TfjLRBBLreDQyBfBId5wkLL86lxE/xGKRHknDOjoAU2ShuJrJ3Dgohhtn+qCZha6NOXNMOwPy4dXn15o1cA4rlYjLWwPjl8rRoWxiyASS2Bu44RGPkEI8nSAmfAL1Ok1102Dfnuas4qo7yAp8iKupuXgXpESEhsXNPcPRmATm0qRfmHicRy6JEabp7pCcyvUWYg6EIoreWqhjqx+Ehms7D3g064dfBzLaqdGVtQBhF7Jg1qTUcTqJjGHjVMj+AYFoaVDeStMok5jM6Hj11Cs1+tFIjEk5jZwauSDoCBPGDxCnYmogyeQZB2AJ3t4w1ZI1qJMQ/j+M8jz7IXere1NzmbUmeewLzQehWZ2aNKmCzq2aCDkU+Jm2H6cznRBx36d0Nhcm6ij5DrOHIhAgXcf9GnVoJJsKurry+rb0rC+jAIm29/1ZWuAGrevhuHCtWzcKShGqUoE8wbuTMbB8HXWr4SRjszu4NLvhxDDpnVlotPUQ2phC+emrREU0AzyMrswgTr9c/RrNgHnuk7D6jf9IdPca+WARr7BCPF20Nq2Ojcaf4QmQt5pADp6lFs7rp04gIvitniqSzPomqOTXVi+F/r0aoVK5q6hDvaUHrEXf6W7ocszHeDOii1MCsW2Lb8gPLUEDoHPYsxbA+FjLWRnGMtXef0MfjuTjcbdn0FwQ/3KqJB+dj9OZTXBi08HaVMeim40fuFIKK416IwBHdwhYfdlntuH0PgimNk1QuATHeEplwiZTZRZa9mY4AHKbppbsw1oUGdF4UDoFeRpOziD9XGJzAr2Hj5o184H1VVPS8kthO36Ap8uW42fou9C0rATRk2agoljn4e/vSljeQBKwvDF/Aj4vTcO3d10LVBcWow+nWfijOPbOHj1Czxp2K0M0QQgHE59oAibRn5SGbWdE8X+yqavBliRiJmgxgwrLhFZNO5Hi/66w244QZO8pSTzm07hpbpnEJXSxXnBJJMF0/xLZYkqSl3Zi8wkHjT2QLGQpk8mfdnP3KgcvUtkRi7Br9OGqHwhfy3qxjBsD6tZ1BxqKzO8RySxI99h6+mSQbUUFDbNj6SytjQnSmhD0a80uqHY4N7yZ5i70RMTfqQkpTYj/Tq6ITE3UjmfmQuFvPEVXSrSPtEkmV/2I+YPKt2ru0Rk5hJMr2+IojJJkCqFvh3iThJJIxq24waTdAWqG6upl5mYGo7+ldXKNAW7Xia5SPd8kcyDnvsilrVeQxGdmdWOrEQy8h63n7L1HqxMWEZdZBJqPO4P0oqtStlo6htCb3x1Sa98E7LVR5VMn/Uwq/Qskbk7dZ9+kG6V18PoOcUHaKyHpNJ9uktE5q4h9OrKkwbtMCD7KxpgJap8r8iCGvdbRDpzn0TezJ78poczKxcovUjzgmUkC55PFeaeSit7mZHEYyyZNHcNtbYnBZ2Z2ppkYhd6eedNiv12DAU2kJGNuzf5NpGTTCQh56fX0RVtXg2V5Zv/w3ByEMuo0+IrVJ5Ny23a+LQ5ieQvC38/JN0UH6S3mC5kXZZRgtAnfnnVSegTIpLIg2nCnpuCrT5IXzPBg5RdCxvQUPTraGJxXOV8Gjtze4Im/JhkJGd9SunWma00e1h7cndwJicbOTm7OFCLXmNo8U+XKLcq+3yYlEbSnDYyElm9QNvKHYlpeADCqTeMB2xVfibdSE2hlBTdde3KeTq4dgR5m4nIsvdqSim9Rev6MgdmN4R23NPewiiliBn+LADpSIvKvaKKklf0YAFIYxr3h2mPXHw7jVITd9IojfNoP5tOJrEykxMp9uwR2rHwJfJhjkHmN5VOCbfXWDfWkY3bQ8UpdPbP0xR1OYGSNM8O20drXm1NlmJbeurLVL3B25QjLqW8W6nl5WmvpDi6cGwbzejjRhKxEw39LkeXM+8WperlS068TOePbKf5g1qSucic2s05WzGAGVN8m9JSE2nnKA+SyNrT7JNJ7BnJlBh7lo7sWEgv+bDAS+ZHU8sEwVDd+oVGN5eR2GUgbdB5XS2qG6u0AYjr6L1VBiCkzKNbqcmUEPENveYlJYn7G7S3zCkVR9GS7nISS5vSqB/Ty+WjjF9KT7AApOk7h3UBSCXZsPpePk9Hts+nQS2ZfZi3ozlny1pcwyDHXHfm5XCKuBBDcYlJlJycQNEndtJH3R1ZPVrRR2d04VHl56goPzOVYja9SC4SMwr88A+6pqlHTBgd3DKXhrS2JbHYkZ5aF1/F4KC5/4ae3q7RlfMHae0IbzITWVLv1SlMzuuor7mI7IbsoApzj6AZ/iwA6bioIghgA/UKNlBLGo+jKsydUXt7Uiatpb62YjL3aEYeti3ohc9OUoamLGUa/TiqKQs+m9N7oWUFVZavMvET6ioTkXzodxX11pJDG1gAIpYPF/5+SLphMpkZICNpq4/odFmSpk8kx1PED5Opk1xMkhbv01FtlR+sr1Xigcqu2Qa0lGr6jF7d2JUUd4GObZtBfdwkJHYaSlVVTxP0/fJaY3IMHktbwrfTSNcAmnrwGH02xJvsA6ZTuXk/Sm7vouEuYq2MaiqPByCceqPSgG2K4qP0fgsWJLSZQ5GlxfTHuMZsoNRf7SiivaNdSWI1kDbfFpKY47q8qCPJpN406UQ1Fl/8B41rrD97KaOADr7FypG2pqnV9RiDutWuPaqML6m/hZgcR/5c+1m6EYozH1ErqZR8Jp8UUqogbw+97s7qFzyPLlb72DK5dqFlhoKggoNvUWOJlFpPPcNqWUH298PZrExM8l6fUbTwgzL6YwphgULz944KgUJ16GbaUoNBnvna+C9pgDNz2m6DaWuyri6K01NYe2XkPyOi6kBKIG/P6+QukVHwvItCSt1kW0bB7lHkLDanJ9eVBUKmnpND2wazgMmqN63RRKB6qFI20kAH5nR9PqRT1ZiQMcVH36cWrP5t5kRW2Kf+akfRXhrtKiGrgZvZ0CKgvEyLOrJB0HsSVWfuVVHZnjLpy/4skJM0osFfxxvIvPjwu9SU1S/k42ghxYRcWL94r7mEpK2nGg44qgz6op8ZGzBHCQkPSTeqFG0AJnYdTXsrRb759NNIJxLL2tE8bSd4yH3tEZRtYAPVwvrQR61YH/KhySerUXxRHuWxnzUB7ZMWzjRqt6aiRZSXV3uZ3x9Kyos/SMteaE5mskY0ZGt1KzU6HvILIQ7nwVDdPI8LaYQGrQPRUiqDp1cziFXJSEjQ7d9W3dyDnYezIAnojI522iSGClmZOSCRIxq6Vrx/rT0WCArygUSVhpTrVe8TN6ybkFgDYjtnOFkB+Tk5KBLS6oxIDDFEsLBiD6oO60AEekqgSruOappRLRZBQfCRqJCWcr1ix7wyDjs3HUIWm7DcPTYXby6JQCEUiP5pL6JV9mjfJRDVvebVYYbWAb6wVKXgcmyBkAZIPcdi/ZqX4Z61G5Pf2YCrJbdxZMsviEcT9Hyydfl78aqwDgyEp6a+168LKfeH1MEBDcRq5N+5q13vNokiAsfD70HSqgd6uhu6TnGTFzGkqyVUSecQkVGL7f9aVLh5/gLSqAFaB7YEZJ7waiaGKjkBOnNnv+/ZicNZEgR07ogKc89CZg5B5NgQ92Xuxvakykd+gRpi12fw1nBPA5lLmzVDIyaX9Orkax6EkEDW9mtRiDI4+lCMYgUrztJS+Pv+qKQbsSOcHWSguznIqbTLUQY3NyeIKR9379ZWD3rU1NceetlGNlADIjGzO5EFrKyqGbotbGFrxqpq1QljF8/GUD+ZJhG2trV0WnXlzk4Md7WBNdOz3PspTD2kRp+5O7B+ZDPUZJ48AOE8RihwbtMWnC51x/Mj+sGWmaerZwvY4w4OzhmAfr3aw9t/JHZme+PN2WPhW2bd6ju4fOUm1HIv+Lrfj0cWw9bGmrmdEiiq3LZtXLfaIoGEVYlK2LOr80nKaCzr7Qb3/isRpxLStKiRGxWFJLUNfP01DkqJ6GW94ebeHysNM7JmWMPKQsT8fhFz/feH2JY5EvaIEj1B5Pw8DwtCFegwazOmhxDCF4/BxI/HY+SS87DsORNzhjgIOavH0tsHTaUlSLhylUm6DDE8XlqD9W964u6h6Rjx7HN446tUNH/tU8zsIQwCVcpG02Qr6Jp8vy0WYI5d4wyVKqMC9Cm6gRtZakjcm6BxJV9uBXc3Bzb43EFObc4falCcw6Ytp1Hq/jxG9GMWJXaFZwt75tAPYs6AfujV3hv+I3ci2/tNzB7rW+7M1Xcu48pNNeRevqjS3GttT4zSGMQkqCDx9oO/ZqzSQ2RtzeRLUBRXJ19btGvrAyl7zvmoUiGNob6Lu/kEsdxRSLhPKulGCkcnOcTKHGRmG+uL1bVIwSYjVqxPVzG81UU2lXjAso0xtgGGMnoZeru5o//KOBae6KHORVRUEtQ2vvCvzQzIti2GTnwfA9ik5JFi2wXjln2K5Z9+iiWzx2OQTyEOz+6H4BfX4WIN3ZIHIJzHBvX1bVi4IRayjuMxqb+uM8o8PdFUokZegRIN3PzQ7+2l+OHMSawZ4FxhvHlHERpRAuv2XdGx0s762iFig1h1mKpb7RCx/9NAejNrMazkznBwcIJcM3pqUBciNzMb2Vm5BidUNKdQ9u87g2LrJ9C3h+YoghqFuZnIzs5CrkFGAeFxVc7ia6KSIPIR+vNBZFn2xlv/G4W5X81BN4sYbJy7GUme4/DNtgnwq+XESurphWZSFa5fvWq4GsRmlU9/8hUmB5Xi/O/MGfdcgh/XPg/XMgVXJRuBMvk+XEzoiA2AKo0e2f9WLo1QUqpk/785LM2NZWgKNa5vW4gNsTJ0HD8JOpOSwdOzKSTqPBQoG8DNrx/eXvoDzpxcgwHOFa4672goIkqs0b5rR+FUjAlqbU+sWTdiEZcjgqtvazgZjwhq3UkRqaw6JUvhFRIER8rApaiUikFTmYrrabqA7eEigbOLJti7zdpnHATkIeFaBtQWzeHZtIo610E2lXnAsg0wZQOa6uWy4CYbWbn6p/Y01duPfWeKYf1EX1RZvb8DSRP0GPU23nn3fUyZvxY/h4fhy+fluL5nGj7cnCJkMg0PQDiPCXdwaMEi7L/bDK/NH18+qEmaeqG5ZiLsOQKfb9uCL5Z8gBcD9Y98qpCwdT0O3JHjyWHPweWRWLTputUKNhuytBSBigtRWO5NpPCfehQZt37HJJ/qZyeq5O/x7eE8NHjyZTynNwjVG6pMpNwogMipMZqyWZ1ZwCRsWNiPDVRiOLbtjRCDY5dVU3j1J3w0eBYOMY+vSLyCeONXRDZdMW/zbHRtANxLjcfNgvtYPn+omNCRdUM0tBNDfTMFycb1V9/C1YQcNhtkg0+jWsw47xzCgkX7cbfZa5g/3o+VpkGCpl7NoTP3z7FtyxdY8sGLCNQ/OqlKwNb1B3BH/iSGPedSZwduyp5KY2IQr2JBhJ8fC4GMKCmBkoV4Mln1L9nM2gXD30yFy5FR5cGlMv4sIrNFaNGmjZDysBDD2dkRInUusrIN7USdwQbp08Ww6tAb3Zkt1YXa9bWHWLZJG6gKFZK//xaH8xrgyZefw9/hCmqNtDleHtYdNihEzPlYIdE0j3MzOP9kFJmIu3AZ6bVcGS85txKzv0mBfOAszOytt8Jg3hJeTaRQpSYgsdK+BjVyTy3CmPnHoWz7HmYMbVi9QavuIb+IIDK3BIsJak2VdasNEle4MW9BWRnIMJ4w1YgSF7dswV8Kdwwe88JDdDoq3Msv0pw51AZH1VOEIs17fJkZZNqsUni//SWWP++Cm9vfx/htejNeUzBHfXb9aDzRcShWxHgg2MsMypQ4XDWxIca8zYfYtOQpNEjYiLcn/AA2eX68MGuPzu0soby8Fz9FVbxE0qCI/Brbw5SQ9xqAHjVueSjBuZWz8U2KHANnzYShuXuhiVSF1ITEij04ZTBZnlo0BvOPK9H2vRkYWsvgrwJT9sQGttg43BG5o5Ufm9lr81Wgzs9HAYlgaVP9lFvs2A7tmouRHx2JWE3FVdfx89KvcRHeGDiorS7TQ4MFv84OkNFd5OhvxFBnYP+cRdiX54YXxw9H4zqJp7Z97WGVXbUNmER5EVu2/AWF+2CMeUFv9bdeUSAz7gIu6zv1ghzkFAr/LofZb2IK8xxiNPTwENJM8/e0g/MvR7NPYQAC2gaiz9wzeu/7q0CVhM2zViNSFIz/zR8JD32rlHrCs7mM+bNzOHT0FM5FJ+Ba4mWcDf0OKyYMQPt+83DGbhBWfTMdIVVO0goRvXsNFk36BAdui9EkILDyUnNVVFc3A9TIOr0dq1euwIoVetea/bimEkGVEopNK1fh6z/TWM5aUvgnNm27BPiMwNi+NkLig1EYvRtrFk3CJwduQ9wkAIE1CYLU5R88Kw9VJE3x6uerMNwjE7s/eBtfxlUaKnWUXMS6ISHo/s52ZARNwU/hofj02WaQFCUiLlGB5MMbsVJfVivWYF9hG3RuIsKN7yZi0vcZtZdVfSB2x8vvj0AzuoDlr7yCpb+cQWxcDE7+sAAvv7wUkWYdMGn6kBoDRVXSZsxaHQlR8P8wf6SHgROWenqiuUyF6+cO4eipc4hOuIbEy2cR+t0KTBjQHv3mnYHdoFX4ZnpILTb+GmHSnhS4HJsAlcwLfq1kzIyzcHr76nK9rNp6EulqEezkciG/EYXR2P35Sqz4/BjSpczO4/diyeQ3MahjR7y6MxOebyzGBx1q+nJW3ZE6OkEuVuJmXBQSk64i8vBWzBnSA8M3XUfLN9dh6fOOdRvc6tDXHkbZ1dmAKQr/3ARd9cbiIbmCOqPZmzIgoC0C+8zFGcGpF+4dB7/Afnjvsx9w4lIirsWdxf41b+GVZRFQNuiO10f46TJWhXAahsN5iCgpcW0/spc1oO5Lo8uP9ZVGzaNgc0vqvDhWSNGhOD6RvGTW5D/xDxK+xaNHKUUt7EQ2wsesKi4RSWybUfcxK+hYWg2HvZSJtLybOYlldtS052T69YbhEUoNBbuGkVxqTyN+NDxbV13dDNujoBOTvEhqUEfjS0wur1fx0S5FGE3zk5Ks7RwqO7FXtG8Mucvk1GdlnN5xNiaPucFkbtmJFsUYt/s2bR1kRzL3MfSbyUKYXpZ3I3OxjOya9qTJvxp+WExLwS4aJpeS/YgfdfVUXqGlXSzJPHCm3sfgNKgoe//75G/D8g7cSKmVRar7UJm1B/WetY9ShFODOd8OZnJ2ozf25tDOl+xMfOxNuEQyCpwlfM+kNIrmBpuTZadFVLnJW2mQnYzcx/wmJDD5zNPIpzMtjq3pEGAFpRGzKIjpstvyqr7jUcY9ivxiJAUwGZXXXSQm6+ZP0ewDN2s8dqixk+MTvUhm7U8T/6hs7Zq2LuxkU1kuIgnZNutOY1Yco5rMXUtt7UmZQMu7M/36T9MdH1Ycp4meUoOyRWJ7Gvxtti6/kXy13wAxEz6uJRKRWGpOds7NKLDHUJqy8bTueyLlPDzdKGMWUIeycrWX5qN07Wj40iNG8jFRZq37mmkeqGwt1duA/vF+XfWKaN8Yd5LJ+9DKuJpq9+hQJq6lfvYyatB9KUULclMm/0gTezQmK7GePJitNvB5nj4+XPFtn6rgn2Ln/ANQ4V7aVVxJSEV6Vh4UIgvYu3kiIKgVGlZxWu4fR0k4prfrgk/NZiAifD6C6rLP5HFFdROXYqVoHdCw/ATHvwV1fioiw6KQlKuCjXsAOnb0hP3DaqTqHtKuXkFCajqy8hQQWdjDzTMAQa0aaveH1Ip/oz0ZUIKM2HBExt9CXqkMDTx8ERJci8+Ua3hg2TxA2bWgJHw62nX5FGYzIhA+P6iGvSGPA2rkp15AxIVryCk1h1MLzbHsxqjNQSAegHA4jwP/+gGDU69we6qax1w2/7wA5P6p02syDofD4XA4nIeBZB5D+DeHw/m7EFnCVu4M32790TPQvervO3A4tYHbU9U85rIRWdpC7uyLbv17ItD93605/gqGw+FwOBxOvcNfwXA4HA6Hw6l3eADC4XA4HA6n3uEBCIfD4XA4nHqHByAcDofD4XDqHR6AcDgcDofDqXd4AMLhcDgcDqfe4QEIh8PhcDiceocHIBwOh8PhcOodHoBwOBwOh8Opd/iXUDkcDudfijrnAnZv+wkn4u/AokVvvDp2EFrbCj9yOH8zfAWEw+Fw/o2o07Bx7EisvyxBo6ZWiP1yBHq88hVS1MLvHM7fDA9A7peCE1g4uC/GbUsREjjVUpKLmzdzUSL8yeFwHjFid4z5LhKHvpyLyVOWYOvcp1B67CBOFwu/PzbcxYGZT6H38NWIVApJnJq5/Ss+7D8AM/bn4J8aU/JXMPeFGumbB6H1OzcwITwc84OkQvp/F1XOWXz/1V4kNR+GqS+1goFEVAn48tkn8NHt/+HEXzPBxfUQYLPb0HXr8ccNBQgiiMQyWNq7o1WXZzDgiSawErL9N1HjdtQufLnhZ5yITkZmoRka+vXE8AmT8Uqwfe1nXfcu4cf1PyLGeSA+eK09qn1zkc/yfvEjou5ZIWDIe3g50Fr44VGgRlroOqz/4wYUzHuLRGLILO3h3qoLnhnwBJqYVL4aGeufgeeSlthz5XP0NheSHwfU6fi8XzNMiBmJX5O+wgD+n+6tHaprWNU3ENMVs3Hu+FS0kgjp/yQ0AQinjihjaFEnC7LotpwSlELaf5ZSit3yBgW72JCFmZjshn5PBcIvOkopZkVvsrfrTP93vkhI4zwwBTtpiK2IROYNyMnZmZwd7MhcImKxiAU1e341nTdUwn8KxV8fUWtzCVk36UgDXh5BQ55sRfZSEYntOtH/nS0WclWHktKPLaMXva1JxFykrOsnlFhtPy+i0zPakIWI6UMko85L4tkTHiUFtHOILSvLnBo4Md07O5Aday8LQ8mi2fO02pTyi8/T3JAGFDj9NNVGAvWKKo3W9jEjsesb9Bt3EXVARembBlIDWSuaclohpP2z4Csg94Hy4jx0DFkMy4Ux+HOKJyTq27gadgHXsu+goLgUKpE5Grj7oF2wL5z1Zhrq3GgcCb2GBp0HoIM7C1fVmTi3LxTxRWawaxSIJzp6Ql4exRYg8fjvuCRug0Fdm2tT1FlROBB6BXlqQWUiESQyK9h7sLLa+cDRTJesme1kRR1A6JU8aLOyfGKJOWycGsE3KAgtHcozMtRIj9iLv9Ld0OWZDnCXAoVJodi25ReEp5bAIfBZjHlrIHyqnNApceGHDbjm1RHx7z+Bhe7fIv37oeUz8JKLS/FkjyUQzzyB3z/0h37JlVBnIepAKK7kqdmsXgNzqRIZrOw94NOuHXwqGsjEk4jjv1+CuM1T6NpcN2UqTDyOQ5fEaPNUVzTOPIU9p1JQUoV1i6y90GtgO5inROLi1TTk3CuCUmIDl+b+CA5sApsapsnqzCgcPJEE64An0cPbcG6sTAvH/jN58OzVG63tNQ+qSZeaFQwJzG2c0Mg3CEEtHaqXk4bCnRjS8BX81m0D0ve/CXuWVHLrNNa9/RI+3HsbnZdG4tgUH1Q7KTIhw8cXZtNHF2LMe2txJP4urFoNwqwNX+J/HeXsNxXitk/D8pvP4JOPesEq7AvMj/DDe+O6w0272qbApcV90HnmGTi+fRBXv3gSVS4AsNn4wTmvYMyykxB16AKHi8dwJWgZrhz7EC2qEKYyZhl6df4YBb274c6+I3BdEIsTU5lfEH5/+BRi55CGeOW3btiQvh9v6pSP0+vexksf7sXtzksReWwKfMoqwPxT6EdPYsRfz+Lnw/PxhI2QbsSD2XRdfI4RZSsg57pi2uo34S9j90qt4NDIF8Eh3nAoXzGtXGbmuX0IjS+EmV0TtOnSES0a6HfcQpb/kF5+Ja6f+Q1nshuj+zPBaKifVZWOs/tPIatJdzwd5CwkGnMPyWcjEZ+Ri3zm50tVBKmlHG6egWjbqiEMepA6F9FHQnGtQWcM6ODObKGsrkWsro0Q+ERHeArOXjMu/BGaCHmnAejoUdbYYlw7cQAXxW3xVJdmwrOVuBm2H2H5XujTqxU0TVXf2oCBnuORMDYU0Su61ew3Hje0YQinDigpbklnMpP50bSwUm2KKvkz6mGmHTP1LhGZu3en6QdvsThVR/HBt8hDIqMuyxJ0M6SiX+hVJ7Euv0hC8uAJtOemkFsRRtP8pCRrO0f3N6Po19HEOo1ROZqLleX2BE34MUmYeRXRr6MbErPPSnlFZi4U8sZXdKl8pqGgM1Nbk0zsQi/vvEmx346hwAYysnH3Jt8mcpKxejk/vY6u1DSlUybSJ13NDFdAiiJofkc7cnhyNV3Wiap6in6l0Q0FeRjX29yNnpjwIyUJ9VCETSM/qYzazonSJbB2hE3zI6msLc2JUtCN1b3ITFT5OWWXWD6cfrwXRXPaygx/Y+218x1G6y9VP09UpXxLQ9wlJGk0jHbcKNOwBpWubHFDGv2rIOS66FJkRi4hb9BXFQoyTcEOetGG6f3pjXRbSNJQqpWLiKxe+JbuCWlVUVmGdUFFxXk5lJ2dSZmZxlc25dx7yDMyxV/0gbeM5B3foZVfLqJRQQ1I5j6Q1l7MZ7/F0tKuVtRg8Da6I2Q3pjRyDrWRaeSyjdgdVcP65OvewTT689OUmb+HXnMRV78CorxG659xJPPWH9Dh3yeRN5Png6yAqIrzKCc724RMMyk7p0yjBbTjRRvWJ56mjYbK19qZyOoF+rZc+fcoYlkfauT7Bv2QUn2tHsym6+JzjMmmrwZYaVebDO8VkUXjfrToL0GrlcosoF0vy4X7RCTzeI6+iNWzu0r58+mH4Q4klnWixcYO7fZGetpcRPKXdwkJlSk9P4uCZMZ1ZJdISvZ+Q+iTEznlvp45e3rLQ0KyLsuEVfIi+uVVJ0E+IpLIg2nCnpva/IoTOrvxmx5O5W6y9CLNC5aRLHg+XSpLVKXSyl5mJPEYSwfK3JMyjhZ3kpHUbxoJw9E/Cv0YkFMr8nDmTDSUNgFo56eLVsWNRuLLvyJwISYOiUnJSE6IxomdU9BR8Rc+mfQZIoSdlxJHZziw8fV2dhabszEsBuLzaJY/PgI/fNAeiPwck5Yc1+Y1hcXTq3AhOQUpKRVXUtwFHNs2HV0RhrXjpuLH29qceHrVBSTr5UtOvIzzR7Zj3jO2uPT1u3ht8TkWT2swQ8i4d9HTOhu7P+yCvu8eRcu5x5CYGofL12Kx89VGuP37J1h7XKHNXXsKcHrB21h2rSsWffkufMtnMdVg8TRWXUg2aF9KUhwuHNuG6V2BsLXjMFXXwBoQw+Otnwzar7kSvhkGF7EZei69gKTLX+BZG1+M2XgYp6MuI4HpLTE2DPtWj0CjlF34cMoWXK9mZ5e4yQis/XwUmmTswsRxXyFRq1ABjVsCc4vs/1VFJV0mJ+Ly+SPYPu8Z2F76Gu++thjn7ntDnggWVlaG+3AeIuqbezCxkxvsGjjCyckFLi6VL/+Jh4XcRqgzEXVwN3755ReT1+4/LiHHhNzVOZGISnXA8zOW439vT8fXB7biDXkoJnRohibNO2PWuWZ4bdwANBDyG3MvPh5pKgmaenlCJqSZxOI5bIoNx+Z3O8G5xiUMNW79OBMf/2GLkUtnoqulkHw/qG9iz8ROcLNrAEcnJ5MydfGfKGSuHpGFFay0ylcgdsOrGLrBCQv2foEhTapv0IPZdF18jjGOeP37ZFxPrbj32pXzOLh2OKvLH/i/Od8g1WRftMLgjVdY30lAxDej0CxjH/5v+e/M81SFBdq1aw2J8goio4qENAHtiwDWOHHVQ6K6VAklSdFq/C+4eCUe15KSEH/pNH5b9zZ8bv2MacMm47c7QmaJI5wd2AzjdjaydM4eAz+PRnJyPCJ++ADtEYnPJy2Bxq1KvbzQVKLE9fgEVOwPVqBE43KlMsjKZa4GaeQgllT0bUlTtA1sCIo/jZM3/4FbUYVAhFNbFKfoQ18WVQfNpshqI84C2j3KmcTmT9K6dF1crEpZQT3MxOQ6ei+Lh43I/4lGOrHZVrt5ur9NzJqrRkFnPmpFUqkPTT5Zw8wzbw+9zmY5suB5dLG8/pn0ZX9zEkka0eCv4yuicEbx4XepqURGIR9HCylVYLQCkvfnhxRo5UovfF22KvNgKM58RK2kUvKZfFL3d7UrIKYUo6KkT7uRTNKE3vmjmtUNVQaThQWJHUfSzzUsQmhmbt8PZ7M+sZx6fRbNaqBBSdEfh7BymtN7R4Vy6qTLPNrzujtJZME0r0JBlTGxAqJIO05Ln3IjibQpjflVf2psmvtbAcmhn17zp7YvjKOJr3Qgj7ZD6cOpU2nqlFHU0dGJOr02haZOnUYLfrwi5DdElb6OnmQzTY3rMXWJLJ+lr3OFzPqocikx6jKl66lOdfsi/bRqPs1ZuIZ+PJ9dMfvUR5lH8QeX0QvNzUjWaAhtLVtCqw1FNayA5B6gt1vKyHXINtIsXJbNZO9nBSTnp9fIv+0LNG7iK9TBoy0N/ZDJdOoUGtXRkZw6vUZTmIynLfhRyG1iBUSRRseXPkVuEik1HfOrziaKj9L7LaQktbAhOzs73dXAjYbvrGqdSMMjsGmTPqcWaOvP7mszR+drqytTcYamtmZtbfURnSlzgSbyFx99j5ozGbWeekZomw5VxhfUj/lmp1G7hZTK6PcXw2YoKXZBe+0q8mt7BKehSqEVPTT7WkbT3srOnn4a6URiWTtdHy/+g8Y11shHb7WjaC+NdpWQ1cDNFSucysu0qKOMpN6T6ER55ZV0bXlXVrYbjfkHbqDhKyB1RXkdqekqiJxc4Vqt9KRwcGgAsTofd+5qfCsLXDUrIDLC3ZwcFt8aIXODmxOLmPPvCgl1Q6SJ3EUWsLKqQaXWgQj0lECVdh3Xy6YjqnzkF6ghdn0Gbw33NJg5S5s1QyOxGunXrwspVSCyRtO2XdHV3w2SO4cx8+21yHn2M6wZ1QzKrDiE/3kUp2IzK7e7tojEEAsz+/tDibT0TJDYAc5O1cwExXbsd1ZGfg5yjCZJxijjdmLToSwWxN/FsblvYklEIZu4ROOnvdFQ2bdHl8D7OWpgjcBAT0hUabherqCqKTk2DQGNG6OxhxMcmvTA3Est8ObGX7HyWc3GgEfAvfPIeOJrnPj5Cyx+OQCNur2DBUuWYMnHg+Bl5ovBsxdjyZLFmPmij3CDIWLXN/Bd3BVcuVLVtRUjNNs6jBHL0SLIF656IhXbB2DwhDmYP+M9vNjW0eB0y52dw+FqYw1LSzm8n5qKQ+o+mLtjPUY2q3FZo5YU4tSSj7D1di/MXjIM7g/kSe/hfMYT+PrEz/hi8csIaNQN7yxgMl3yMQZ5mcF38GwsZjJePPNFIb9AyTFMC2C6b+wBJ4cm6DH3Elq8uRG/rnxWuycI5j2xOrEUpUX3cPfuXd11Jw07hlW1TvSIbNqUz6kFqpvncSGN0KB1IFrWtJxn1hoBvpZQpVxGbNVLIDAPCkGgpQrXoqKQq79gUFzMfJOI2cv9+BcJmgf6wQF3kJqSo0sSa1ZAZKC7zI9UdvZwc3OCmPKZTlglZJ7waiaGKjkBCVr5qHBzz04czpIgoHNH2GnvYaiykJlDEDk2hGu5GUvg4uoMM7qNGzfvCWn/HB6o2/wnUdxDfjEzAivrGjcqirXLeUqoypYypY5wkouhzMlEtv7ypgZSoEiheW7Vh/2U0cvQ280d/VfG6V7hlKHORVRUEtQ2vvDX9lQlopf1hpt7f6yMMypIbA0rCxHrcEUVy32lMYhJUEHi7Qd/o/VpkbU1LNiEVcE6aLWIG+Kl1Uewb2ZrHJn6LjYWDcWqlS/DKXQCAv36YvT41/F0YAsE/+8gcoVbKqGMxrLebnDvvxKG1VYjlzmMJLUNfP1bCml1p1RRyqbZZjAzr3IdWYtEwno3laBEUd2SZg5+nrcAoYoOmLV5OkIoHIvHTMTH40diyXlL9Jw5B0MchKwmqFKXrEtaW1kwV1iMolp8r0HiFoLnXhyEp7u2gpOZGOYOvujR3Q/l+wxLwvDpy0+hf79+6Ke9+uPZqXuQeb+rtbZP4p23QliYBBRlZgNyuXazpfruLWQUO8O9YU0DvDkcm3rDx8fH5OXdxP6hbKSz7TIOyz5djk8/XYLZ4wfBp/AwZvcLxovrLuotc98/JZdW4cPPk9B2yid4s+WDBjW2ePKdtxCiEyqyIddtRlffxa2MYji7NzS9oVXihpDnXsSgp7uilZMZxOYO8O3RHX5VbDKtmQex6Tr6nBpR4NymLThd6o7nR/Sr/gi0Fkt4+zSFtCQBV65W87Uh23Zo6yNlLu88okqFNIaaBWf5bD4ud7y/wF2kCXaZnywp95NSODrJIVbmILOys4eiSAESWcFWM4iIXeHZgpV75yDmDOiHXu294T9yJ7K938Tssb7lulffuYwrN9WQe/lCc4ahDAkbi8xFahTcyxdS/jnwAKSusKBCKzS1qor3mdUgcYaLwXtBPfIScC1DDYvmnkJCZdSFucyY2b25xdr16jLUmfux70wxrJ/oix7a0ypqFOYyR5adhVwWLFVCGH/LflHdiEVcjgiuvq3hZGwRat2JFKmspimIBjUy9nyI8d+oMXLNcrzgKoas7Qc4dDUZMdEXsO55KeJ2/4rzVS2DqAuRywa17KxcGFRbnYn9+86g2PoJ9NU10ARiWMmd4eDgBLnG2VWCDGRWHaIy+VR3Q34ofj6YBcveb+F/o+biqzndYBGzEXM3J8Fz3DfYNsHPYCXJmKp0qcNIQdUg8RmChSvXYMP3fyLih7FoGPc1xr+3Ccll9iU2h62DIxwd9S47i2rrVjuUSLx2A3ZOLtr+oM7MRK6NA+Q1PViVjNAtX+KLL74weX257ThuGveN+0DSpAdGvf0O3n1/Cuav/RnhYV/iefl17Jn2ITY/6KdA1enYOWc5IlgwNqTtbZw6dgzH2HXiUjqKmM7yU8/i+F+XcOs+vrqnTLyGG3ZOcNEJFZm5NnCoSqgSHwxZuBJrNnyPPyN+wNiGcfh6/HvYVK78OvJANl03n1MT6uvbsHBDLGQdx2NS/5rDD82A7+nVDFLVdVy9Kixdiq0gd3aAAwsEypF6ISTIEZRxCVEpFXJSpl5HmloC9yZNhJS6IiprooAEzi4OENNt5s8qOXskXMuA2qI5PJtqJCqDp2dTSNR5KFA2gJtfP7y99AecObkGA5wrHHLe0VBElFijfdeOwqkYATYWqVnpugnvP4t/Xo3/bszZ7MSaBRH37uBOXf2Y2BnOjiKoc7OQbXAvG7j378PpYit06N1dSKstKiR//y0O5zXAky8/Bz17rTWlMTGIV0nh5edXeYNeSQkbakSQyWpeelWn/YBJE76D2RufY9mzzlrjEjs2QzM5+1duBE5GF0Ie3Bl+1e4CrIwq+Xt8ezgPDZ58Gc9V2UAp/KceRcat3zGp/Pzh/SCClaUlRFSMwsKq3aUqMwU3CkRwatwUNmIzBEzagIX9nJgTcETb3iGGR/zqBTGcn5qHOc854u7hVfiibOeztA3e+mI7duzciZ3aawe2zOwPFgc/GOpsnD2XBkdXNsvT/MlmkPfMzNksUPdzVaizf8cn49/Fu+9Wda1A6CNYSZY2fxnDutsAhTE4H6s39b0flMmIvpwHZfpuTH66F3r10l1PvvsdrqtKcWndcPTuNRhLw+oagaiRffYc0hxdoekymhWQu/fMYF6TUBli56cwb85zcLx7GKu+iLivLw4/PjZ9B4cWLML+u83w2vzxEPb6V0Mhrv70EQbPOsQmLgokXonXTQ6l/ph6NAO3fp+kzaXDDO2C/WGmuqy3EVWJ+LORyBa1QJs2pt7/3Q+sPzo7QqTORZahs4c6g00YTxfDqkNvdNe+DdNsjm6u/XSB54jPsW3LF1jywYsI1B53FlAlYOv6A7gjfxLDntMF/WUU381j7ZZA7vCw6l5/1JtJ/VNRZMbhwuX0iqVDKRtQG0nYJKhu7zO1VPFeUGOQcxbtQ57bixg/vLGQWkuUF7Fly19QuA/GmBd0g37dYAFMbBzuiNzRyo9F7EJqGer8fBSQCJY2VX4IRIc6Fdve/wC75e9i/aL+unfQAurbJ/Dx4FewzWw01q96pYa9M8YocXHLFvylcMfgMS/cV4BVNyRwdWNypCxkZFQzkywq0r4zlpnJdDMfqTfe/nI5nne5ie3vj8c2vdlVvSFuiBfGvYSm6qvYvv4g7m83kTFq3Eu9hIvJd9i/KlAl78IPYQ5oqp3BMYhABfeQp2m2Oh1nI5J16UaIG76F327nI5/Zlckr60e8+oB+tCAnhw1JRqhSkZjCBhwmIw+PsgBVgcy4C7icXseXMmYd8NGvp3Dm9Gmc1rv+2vQKmkhkCJrwM06d2ocZT1T9MqmSX9GgSsauH8Lg0LSpsNLAZEoFuKcTKtLPRmhTTSNGwxfG4aWmalzdvh4H70f5j4lNl5xbidnfpEA+cBZm9q5+9UOdexbrRz+BjkNXIMYjGF5mSqTEXUXV27fEcGzXDs3F+YiOjNUGKqrrP2Pp1xcB74EY1PZhfUmDlePsABndRY6hs8f+OYuwL88NL44fjsaCPzNv6YUmUhVSExJ1wZM+LIg5tWgM5h9Xou17MzDUIBJU4vr1dKjErmjS9HH/lk9lHrk7/0ej2ZMwIABtA/tg7pmyGaUXAlvbQH3jCi7XeQmk7L3gTcRFJSLpaiQOb52DIT2GY9P1lnhz3VI871g3lRT+uQnbLgE+I8ai7329+1XgcmwCVDIv+LWSMWPPwuntq7FyxQqsYNeqrSeRrhbBTl7dqKDCtc3vYcohF/zvy/noqbfHTXX9V0zsNwgbpO9hz++r8ZwbGQxkNVL4JzbpGoix99fAKlFnncb21Su17ay41mD/NRVEqhSEblqJVV//iTQTFSbh1ZSo7H0NQ9L0VXy+ajg8Mnfjg7e/RFyd39E9OFY93sAIPzHSd2/AD6YqXlcUf2J6j7Zo+8SHOFA2WqrTsGvGMhxXe8PfW+ewJe5ucMrdh+UzN2HHqpnYdK5qO5aYW8Ha2trkZWX+IKtXGgqxd5wfAvu9h89+OIFLidcQd3Y/1rz1CpZFKNGg++tMPrrhXbMPZ0BAWwT2mYuy7g11DsJ2CPa/dh/iilgQcOsUtq5if69kAzuzDU2Q6uzdHh07dUInvau9jws0b/+s3APQob131cd4TfkV1ivSds3AsuNqePt76/bBSNzh5pSLfcuZPHeswsxN57Q5q8SqB94Y4Qdx+m5s+CFNSKw9j4VNq5KwedZqRIqC8b/5I+FRjTssubgOQ0K6453tGQia8hPCQz/Fs80kKEqMQ6KJehZG78bnK1fg82PpkIpUiN+7BJPfHISOHV/FzkxPvLH4A3R4WPEHQ+roBLlYiZtxUUhMuorIw1sxZ0gPDN90HS3fXIelz1dsnJZ6eqK5TIXr5w7h6KlziE64hsTLZxH63QpMGNAe/eadgd2gVfhmeojRR/SKcfnyNajMWyHI7342vf/NCKdhOKZQJtLafvYka9CdlkaXnY9S0Y3PnyQriRuN3lvd965LKWJWEJlbdqPl8WWH8pQUs6CD4QeyNB+eajeclh5JMzy6VxpF84LNybLzYiHB1DGwIto3xp1k8j60Mk7/7lKKmhvMyu5Ei2KMDwTepq2D7EjmPkb32WNlAi3vbknm/tPolOZol+I4TfSUVtSPXSKxPQ3+Nlt7tymU8Z9Tf0dbaj8nTHsEtwIlJS7vatheWQDNPGt4iK0cvWNzZSdpi/aNIXeZnPqsjDOQT2nUPAo2t6TOi2OFlJpQ0KmprcnMqgd9Jnw/X3Ns0kuqVzcTl9jldSr79pI+yitLqYulOQXO1Pt4kAZVNu1/359spPY0cGOqLs2ELkuj5mrr32lRjKHeGbe3DiI7mXv1x+qKfqFXnaVkV+njW0pKWNOP5FJbGrAxXUgzTa1kWPQbveEqJqnvFCr72rPqxmrqZS4mlyHb6VbZ2VdlDK3s7UBiiMis+Wu0K83kodh6QEnJP06kHo2tSKxndyJJA/J5/mM6LByJ16BMXEv97GXUoPtSKu/eGvv3MrT/8ktkQ899nSNkrIwibAYFmFlR71VJpo8El2HKr6hu0Ope5szehtD2CqFSzMrepNk2JjJrTq/tShPSNR+1ciap3WDaZnSiVpmwhvrJpWQ7YKOQUnsezKbr4HOqQXF8InnJrMl/4h+VPypnUKbu42jWHr1p1r4U4UhtDn07WE5StzdMHH1lvuiTCl8kEjGbNrcj52aB1GPoFNp4OqNSPzRGv78Y51WcnEKtmO77rE4WUliJMQuog5n+kXPWN1za0fClRyjN+AGsbQs72VT+GJtIQrbNutOYFccq36NB+4E+5jM7LqLLNTXgMYR/iv0+UCWtQl+/D5E69jBiV/Wo2679kgzEhkci/lYeSmUN4OEbgmAfx1o9oyR8Otp1+RRmMyIQPj+omg1h9Ys6PRy/nQVCntZ9yv2+KQnH9HZd8KnZDESEz+f/0brHgPxD4xDw7Pdo+WkYDr3vXb4jn8P5u1HdvIRYaWsE1Hjy6u+iBBmx4YiMv4W8UhkaePgiJFj/P5lhhOoe0q5eQUJqOrLyFBBZ2MPNMwBBrRpW+R+XVF6ah47BiyCadR5n5vg/NmNCbeEByP2gvomNz/lh/JVR+D1mNXrW08rX4xqAPDR4APJ4oUrC2qfaYo5qHk7+PhGtuD44nMcIJS7M7YD2n9hg8cWjmOz5z5se8D0g94PYA8PGD4V76s/Yel+7vTicxx9V0iGcUjyHZeve48EHh/O4UXwKX++Mhv3Ad/BqVf+lxMccyTyG8G9OHTBv0Q5B7rZo0MQPbZvUcELkISGytIXc2Rfd+vdEoPs/b8dzjYgsYSt3hm+3/ugZ6G541p1T74gdQvDi6BfQrtLHYTgczt9OfiZyxAEY9t4otKnj4YXHBf4KhsPhcDgcTr3DpzYcDofD4XDqHR6AcDgcDofDqXd4AMLhcDgcDqfe4QEIh8PhcDiceocHIBwOh8PhcOodHoBwOBwOh8Opd3gAwuFwOBwOp54B/h/nT1GS1Kv2bQAAAABJRU5ErkJggg==;" vertex="1" parent="1">
          <mxGeometry x="260" y="1610" width="544" height="167" as="geometry" />
        </mxCell>
        <mxCell id="XX_flJjxw-XXJBpBVuil-119" value="" style="endArrow=none;html=1;rounded=0;endSize=14;strokeWidth=6;" edge="1" parent="1">
          <mxGeometry width="50" height="50" relative="1" as="geometry">
            <mxPoint x="34" y="1550" as="sourcePoint" />
            <mxPoint x="804" y="1550" as="targetPoint" />
          </mxGeometry>
        </mxCell>
        <mxCell id="XX_flJjxw-XXJBpBVuil-120" value="" style="edgeStyle=orthogonalEdgeStyle;rounded=0;orthogonalLoop=1;jettySize=auto;html=1;" edge="1" parent="1" source="XX_flJjxw-XXJBpBVuil-121" target="XX_flJjxw-XXJBpBVuil-122">
          <mxGeometry relative="1" as="geometry" />
        </mxCell>
        <mxCell id="XX_flJjxw-XXJBpBVuil-121" value="start" style="strokeWidth=1;html=1;shape=mxgraph.flowchart.terminator;whiteSpace=wrap;fillColor=#d5e8d4;strokeColor=#82b366;" vertex="1" parent="1">
          <mxGeometry x="180" y="1800" width="100" height="60" as="geometry" />
        </mxCell>
        <mxCell id="XX_flJjxw-XXJBpBVuil-122" value="" style="verticalLabelPosition=bottom;verticalAlign=top;html=1;shape=card;whiteSpace=wrap;size=20;arcSize=12;fillColor=#dae8fc;strokeColor=#6c8ebf;" vertex="1" parent="1">
          <mxGeometry x="180" y="1890" width="100" height="60" as="geometry" />
        </mxCell>
        <mxCell id="XX_flJjxw-XXJBpBVuil-123" value="&quot;sum is&quot; sum&lt;br&gt;&quot;avrage is&quot; av" style="strokeWidth=1;html=1;shape=mxgraph.flowchart.document2;whiteSpace=wrap;size=0.25;fillColor=#e1d5e7;strokeColor=#9673a6;" vertex="1" parent="1">
          <mxGeometry x="180" y="2080" width="100" height="60" as="geometry" />
        </mxCell>
        <mxCell id="XX_flJjxw-XXJBpBVuil-124" value="stop" style="strokeWidth=1;html=1;shape=mxgraph.flowchart.terminator;whiteSpace=wrap;fillColor=#f8cecc;strokeColor=#b85450;" vertex="1" parent="1">
          <mxGeometry x="180" y="2160" width="100" height="60" as="geometry" />
        </mxCell>
        <mxCell id="XX_flJjxw-XXJBpBVuil-125" style="edgeStyle=orthogonalEdgeStyle;rounded=0;orthogonalLoop=1;jettySize=auto;html=1;entryX=0.5;entryY=0;entryDx=0;entryDy=0;entryPerimeter=0;" edge="1" parent="1" source="XX_flJjxw-XXJBpBVuil-123" target="XX_flJjxw-XXJBpBVuil-124">
          <mxGeometry relative="1" as="geometry" />
        </mxCell>
        <mxCell id="XX_flJjxw-XXJBpBVuil-126" value="a,b,c" style="text;html=1;align=center;verticalAlign=middle;whiteSpace=wrap;rounded=0;" vertex="1" parent="1">
          <mxGeometry x="200" y="1905" width="60" height="30" as="geometry" />
        </mxCell>
        <mxCell id="XX_flJjxw-XXJBpBVuil-127" style="edgeStyle=orthogonalEdgeStyle;rounded=0;orthogonalLoop=1;jettySize=auto;html=1;entryX=0.5;entryY=0;entryDx=0;entryDy=0;entryPerimeter=0;" edge="1" parent="1" source="XX_flJjxw-XXJBpBVuil-122">
          <mxGeometry relative="1" as="geometry">
            <mxPoint x="230" y="1980" as="targetPoint" />
          </mxGeometry>
        </mxCell>
        <mxCell id="XX_flJjxw-XXJBpBVuil-129" value="" style="edgeStyle=orthogonalEdgeStyle;rounded=0;orthogonalLoop=1;jettySize=auto;html=1;" edge="1" parent="1" source="XX_flJjxw-XXJBpBVuil-128" target="XX_flJjxw-XXJBpBVuil-123">
          <mxGeometry relative="1" as="geometry" />
        </mxCell>
        <mxCell id="XX_flJjxw-XXJBpBVuil-128" value="sum=a+b+c&lt;br&gt;av=sum/3" style="rounded=0;whiteSpace=wrap;html=1;fillColor=#fff2cc;strokeColor=#d6b656;" vertex="1" parent="1">
          <mxGeometry x="170" y="1980" width="120" height="60" as="geometry" />
        </mxCell>
        <mxCell id="XX_flJjxw-XXJBpBVuil-130" value="" style="edgeStyle=orthogonalEdgeStyle;rounded=0;orthogonalLoop=1;jettySize=auto;html=1;" edge="1" parent="1" source="XX_flJjxw-XXJBpBVuil-131" target="XX_flJjxw-XXJBpBVuil-132">
          <mxGeometry relative="1" as="geometry" />
        </mxCell>
        <mxCell id="XX_flJjxw-XXJBpBVuil-131" value="start" style="strokeWidth=1;html=1;shape=mxgraph.flowchart.terminator;whiteSpace=wrap;fillColor=#d5e8d4;strokeColor=#82b366;" vertex="1" parent="1">
          <mxGeometry x="380" y="1800" width="100" height="60" as="geometry" />
        </mxCell>
        <mxCell id="XX_flJjxw-XXJBpBVuil-132" value="" style="verticalLabelPosition=bottom;verticalAlign=top;html=1;shape=card;whiteSpace=wrap;size=20;arcSize=12;fillColor=#dae8fc;strokeColor=#6c8ebf;" vertex="1" parent="1">
          <mxGeometry x="380" y="1890" width="100" height="60" as="geometry" />
        </mxCell>
        <mxCell id="XX_flJjxw-XXJBpBVuil-133" value="S,P" style="strokeWidth=1;html=1;shape=mxgraph.flowchart.document2;whiteSpace=wrap;size=0.25;fillColor=#e1d5e7;strokeColor=#9673a6;" vertex="1" parent="1">
          <mxGeometry x="380" y="2080" width="100" height="60" as="geometry" />
        </mxCell>
        <mxCell id="XX_flJjxw-XXJBpBVuil-134" value="stop" style="strokeWidth=1;html=1;shape=mxgraph.flowchart.terminator;whiteSpace=wrap;fillColor=#f8cecc;strokeColor=#b85450;" vertex="1" parent="1">
          <mxGeometry x="380" y="2160" width="100" height="60" as="geometry" />
        </mxCell>
        <mxCell id="XX_flJjxw-XXJBpBVuil-135" style="edgeStyle=orthogonalEdgeStyle;rounded=0;orthogonalLoop=1;jettySize=auto;html=1;entryX=0.5;entryY=0;entryDx=0;entryDy=0;entryPerimeter=0;" edge="1" parent="1" source="XX_flJjxw-XXJBpBVuil-133" target="XX_flJjxw-XXJBpBVuil-134">
          <mxGeometry relative="1" as="geometry" />
        </mxCell>
        <mxCell id="XX_flJjxw-XXJBpBVuil-136" value="orech,&lt;br&gt;rohav" style="text;html=1;align=center;verticalAlign=middle;whiteSpace=wrap;rounded=0;" vertex="1" parent="1">
          <mxGeometry x="400" y="1905" width="60" height="30" as="geometry" />
        </mxCell>
        <mxCell id="XX_flJjxw-XXJBpBVuil-137" style="edgeStyle=orthogonalEdgeStyle;rounded=0;orthogonalLoop=1;jettySize=auto;html=1;entryX=0.5;entryY=0;entryDx=0;entryDy=0;entryPerimeter=0;" edge="1" parent="1" source="XX_flJjxw-XXJBpBVuil-132">
          <mxGeometry relative="1" as="geometry">
            <mxPoint x="430" y="1980" as="targetPoint" />
          </mxGeometry>
        </mxCell>
        <mxCell id="XX_flJjxw-XXJBpBVuil-138" value="" style="edgeStyle=orthogonalEdgeStyle;rounded=0;orthogonalLoop=1;jettySize=auto;html=1;" edge="1" parent="1" source="XX_flJjxw-XXJBpBVuil-139" target="XX_flJjxw-XXJBpBVuil-133">
          <mxGeometry relative="1" as="geometry" />
        </mxCell>
        <mxCell id="XX_flJjxw-XXJBpBVuil-139" value="S=orech*rohav&lt;br&gt;P=2*orech+2*rohav" style="rounded=0;whiteSpace=wrap;html=1;fillColor=#fff2cc;strokeColor=#d6b656;" vertex="1" parent="1">
          <mxGeometry x="370" y="1980" width="120" height="60" as="geometry" />
        </mxCell>
        <mxCell id="XX_flJjxw-XXJBpBVuil-140" value="" style="edgeStyle=orthogonalEdgeStyle;rounded=0;orthogonalLoop=1;jettySize=auto;html=1;" edge="1" parent="1" source="XX_flJjxw-XXJBpBVuil-141" target="XX_flJjxw-XXJBpBVuil-142">
          <mxGeometry relative="1" as="geometry" />
        </mxCell>
        <mxCell id="XX_flJjxw-XXJBpBVuil-141" value="start" style="strokeWidth=1;html=1;shape=mxgraph.flowchart.terminator;whiteSpace=wrap;fillColor=#d5e8d4;strokeColor=#82b366;" vertex="1" parent="1">
          <mxGeometry x="580" y="1800" width="100" height="60" as="geometry" />
        </mxCell>
        <mxCell id="XX_flJjxw-XXJBpBVuil-142" value="" style="verticalLabelPosition=bottom;verticalAlign=top;html=1;shape=card;whiteSpace=wrap;size=20;arcSize=12;fillColor=#dae8fc;strokeColor=#6c8ebf;" vertex="1" parent="1">
          <mxGeometry x="580" y="1890" width="100" height="60" as="geometry" />
        </mxCell>
        <mxCell id="XX_flJjxw-XXJBpBVuil-143" value="&quot;kibolet hasir hi=&quot; K" style="strokeWidth=1;html=1;shape=mxgraph.flowchart.document2;whiteSpace=wrap;size=0.25;fillColor=#e1d5e7;strokeColor=#9673a6;" vertex="1" parent="1">
          <mxGeometry x="580" y="2080" width="100" height="60" as="geometry" />
        </mxCell>
        <mxCell id="XX_flJjxw-XXJBpBVuil-144" value="stop" style="strokeWidth=1;html=1;shape=mxgraph.flowchart.terminator;whiteSpace=wrap;fillColor=#f8cecc;strokeColor=#b85450;" vertex="1" parent="1">
          <mxGeometry x="580" y="2160" width="100" height="60" as="geometry" />
        </mxCell>
        <mxCell id="XX_flJjxw-XXJBpBVuil-145" style="edgeStyle=orthogonalEdgeStyle;rounded=0;orthogonalLoop=1;jettySize=auto;html=1;entryX=0.5;entryY=0;entryDx=0;entryDy=0;entryPerimeter=0;" edge="1" parent="1" source="XX_flJjxw-XXJBpBVuil-143" target="XX_flJjxw-XXJBpBVuil-144">
          <mxGeometry relative="1" as="geometry" />
        </mxCell>
        <mxCell id="XX_flJjxw-XXJBpBVuil-146" value="D,H" style="text;html=1;align=center;verticalAlign=middle;whiteSpace=wrap;rounded=0;" vertex="1" parent="1">
          <mxGeometry x="600" y="1905" width="60" height="30" as="geometry" />
        </mxCell>
        <mxCell id="XX_flJjxw-XXJBpBVuil-147" style="edgeStyle=orthogonalEdgeStyle;rounded=0;orthogonalLoop=1;jettySize=auto;html=1;entryX=0.5;entryY=0;entryDx=0;entryDy=0;entryPerimeter=0;" edge="1" parent="1" source="XX_flJjxw-XXJBpBVuil-142">
          <mxGeometry relative="1" as="geometry">
            <mxPoint x="630" y="1980" as="targetPoint" />
          </mxGeometry>
        </mxCell>
        <mxCell id="XX_flJjxw-XXJBpBVuil-148" value="" style="edgeStyle=orthogonalEdgeStyle;rounded=0;orthogonalLoop=1;jettySize=auto;html=1;" edge="1" parent="1" source="XX_flJjxw-XXJBpBVuil-149" target="XX_flJjxw-XXJBpBVuil-143">
          <mxGeometry relative="1" as="geometry" />
        </mxCell>
        <mxCell id="XX_flJjxw-XXJBpBVuil-149" value="K=H*D*D*0.7854" style="rounded=0;whiteSpace=wrap;html=1;fillColor=#fff2cc;strokeColor=#d6b656;" vertex="1" parent="1">
          <mxGeometry x="570" y="1980" width="120" height="60" as="geometry" />
        </mxCell>
        <mxCell id="XX_flJjxw-XXJBpBVuil-150" value="" style="shape=image;verticalLabelPosition=bottom;labelBackgroundColor=default;verticalAlign=top;aspect=fixed;imageAspect=0;image=data:image/png,iVBORw0KGgoAAAANSUhEUgAAAlEAAABbCAYAAABTeNCRAAAAAXNSR0IArs4c6QAAAARnQU1BAACxjwv8YQUAAAAJcEhZcwAADsMAAA7DAcdvqGQAAEMkSURBVHhe7Z0HXFRH9/d/e3eXLiCgUmJBAVGaCAZ7jWjUJzGJSdTHmBhT/6Zomr3liS3NEjXGrjEhPTHGFiPGXrCAIkXpKkhTRDq7e97Z3Qssu0vZxZa88/18NnFn504558yZM/feGSTEAIfD4XA4HA7HJATx/xwOh8PhcDgcE+BBFIfD4XA4HI4Z8CCKw+FwOBwOxwx4EMXhcDgcDodjBjyI4nA4HA6HwzEDHkRxOBwOh8PhmAEPojgcDofD4XDMgAdRHA6Hw+FwOGbAg6h/CLd2TcPgfk9j2TmFmMK569zahWmD++HpZefApf6gUYHjS0aiX/hM7C0ClKlf45WBA/HK16lQijk4d46K40swsl84ZmqFja9fGYiBr3yNVC5sTiP5t85hPIj6R6BCSeppHDpyBBcy+XR+r1CVpOL0oSM4ciGTB1EPHCrkJZ7AkSNxyJUAVJKGs2x8RKeXir/X5nbCH1gx9QX8Z0B3dO0Sgp4DH8NzUz7Gd1HZD45uK45j4dCuCB21Ukx4cFDlJeIEk2+cVthIO8vGRXQ6jEubw9HnnzaH3caFHz/GrLmbcOq2mFQHPIjicDj/QCRoZmsDqW0z2EmZI7Ozg51EAttmzdgvOqjycXjhMPh3eQxTVv6FTIuH0LmLP1rb5OHE5lkY2zMQz2y6Ima+z1RmI/HceZy/kCImPDhImtnCRmqLZlphw85OAgmTfbNawuZw/vkorx/EJ6NC0ePZqViwaCMO5dZ/u5UHURwO598NC640kZVKCYVC/VFoP5o/G8qCgQfGCxJU6japVOJ3DofzoMP/APHdRJGBY9uPIb2iDhFLbOE9YAS6Wqbj3PlLyMy/jVKFFHYtPeEfEog2dlXeXYWsVeFo99YZ9J62Ai/5y5njl8HG6SH4hoTCx0kmZitAKlvJXsrMx+1SBaR2LeHpH4LANnYNR8vFyTj05wUIXYait6eVmHQIf14Q0GVob3haqXAzdh8ikx3RfXgYPMQqUZaCw7vPQwgeil7ttNdBcQ0nd51EkfcgDOrUDDnRe3A41RYBj/SDTzNtFi0KZJ7ahROFXhgw0BeUdBIxKXkoKC5DpVICSwd3dOwaAt8WlmJ+NSrkRu9GZEIhm3DYVzZBClJL2LkwWQQFoYOThTabiCorCjuOZMGt1zA87M4aXZKKyG2b8eupDFQ4BeI/E1/BiI62Yu7aqLJWIbzdWzjTexpWvOQPOZttZTZOeMg3BKE+TqgSQS3Ztc5pnM4l57Az8jJKLOzRpksvhLV3aEBHJUg+tBcXhC4Y2duTLZdyEX88Gpezb0Fl1wZdeoaiXbMaezFPVw5Q5UZjd2QCCrXCZXYmhaWdC+tzEII6OKG2dI1wm9lyTDKyCwpRUlYJBYsH5LYuaN05GF08HWtkpkaVg+g9h5FqG4BH+vmgtmlk4tSuEyj0GoCBnZsbkY0CUTOC0fvbvtiVuAqDStZjmNsbEFZfxx8vOop5ynBucTgGzjwGi77TsGnTbAxrV2NLqtsJ2LHsf9juPBsb/89XTL2/qMpuo4TZiJ1lgyP2nqKImoHg3t+i765ErBpUgvXD3PCGsBrX/3gRVdKuBdPtmZ2RuFxiAfs2XdArrD0cxC4prp3EruM5aBkWju6tdcd2Ba6c2I2oYh8MGtQJzBpNGutsILIx8mfNGKmD2+nnEJOcjYLCEpRVKlgtcti6tEbn4C7wdKxloWzYsbG9V8cvqm4h/UICMvLycaOgGAq5PVw7BCHEzxXiiILqxiWcjElBHvu9rFIJiaUD3Dt2RYhvC+j2VnHlBP44kYfWfYchpJWuvpXIOr0Lx3Lb4KlHg8Q0fUzwB6qbiN0XiWTH7hge5lE9BstSDmP3eQHBQ3uhxh0w3ZwsgvegAehUpTAdVDdjsT8yBQ49hjN/Kq3RcynT80OB6BnmBUeWrEVXH20bN4fp65whkUght2kODybDrh2dG/ZBZsPm2T1z8N+JH+Oo5GH0cjqPvxOC8HHC33ivfXWnDFEHUZy7g/LqChpgIVGbgvGP4EhjfrpN0XOCSV7rNwlJ7X1p9FcXqEwsK2/DcLKR6ObRfiRWrSl84REqYHkqo+dQsFzvd6k9+Y7+ii5UFVQH5SenkZ9MTsFzoqtS6OQ0P5LJg2lOdKXm++EpPuy7H00/pf6upfL8PAqRyylk/gWqSlVmLGP9lpLHy7vV3yj961HkLpXSQ6O/patKbR4Nyqu0YoAFCa0m0O/FafR5P4tabde039Kd+k7fQ9erryul3ye0Ija8DfNatKTQFzfQhVIxK6P8xFTqLBeo5bMRdC3ua5oY6EByO3fy8W1DjnIm5xaP0uoEhZhbj7wNNNzGiP4kVtQ6fCEdUQudoSu7xum8lIp/eJYcRX1K5B702JdxTML1UH6SpvnJSB48R/zK+iWrKldCcvehtCymqgRzdcWk+/sEYv68pr1VH4kFtQx9kTboCteASjo3O0jPlquutyL3XpPou8s6vVSm09ej3EkqfYhGf3uVWUoNWjkK1GrC70zjxlBQ/IIwsu48lU6qiyyOoFH2DvTM98XanxmKlJU02F4guffrtOeGmNgAN2N+o40RRymz/Crt+/hVevqJMfTON/HV8iJFDp36dhFNfuEZeuKJUfTcG/Np0+FrNborvEC/b9hAv567Uas/ivS/aeu6CDqaqZtKdDv2D9q4YQfF3lZ/K6Dzv2+gTbsTNL9puBlDv21UX6eg4ss76dO3x9FTT/6X3lj0C13UXKOLkvKittGH//df1rZn6eUZH9PK1atp9eovae3282SQ3QQU8QsozLozTdUKmyJG2ZPDM9+zf9VB8Q/0rKM4DiRy8njsS4oThVR6YhZ1ZeNK7vMa7crTkYciiT7uJSdp69don8ZfmTbW9ceIUSrP0ewguUF5mjKt3KnXpO9I10T1/WLlhflsDOldK5FR84DnaJ2mMUpK+7wfsYleL48lufedTntqHBkV/TiGnAQ5dV+UwKxZlxu07lFLkjg+K343gin+oPwwTfFhef2mU407qKTz80JILg+h+ReqvQFlLBtAFlIPenm38QmjbM8r5CGVU6+Pk7RtLv2VnnMRxD5KyTHkLdp+TeyjXhsbM4fVp3O1DN16vkU/pdbhr5tMKf36gg+FTFhFx3OKaPvzLUmQ96ZPkuuvjwdRd5UyupGZQenp6TWfpK00uqVAFv2XUEx6FhUwOy9LP00Hj0dTfFIqpSXH0cmdX9Bzna1JaDaU1mSIBqksopyrOmWlJNDZPStprI8FSawH0op0lq8snU4fPE7R8UmUmpZMcSd30hfPdSZroRkNXZNRy6nr03AQpaTrqweTpcSeRn1b444ro2aQP5uYwxbWOAJl2lLqxybm1q/tExOu068TPEkutKQRa8XBp4YFUcvVQZTrBNpRqqCc+FMUFXOREpOZHNKSKPZwBH3Q15kEWSf64ESNZ6ssvE4ZOjJNS46ns/u/ofkjO7D2WVLXOad1Jr1UWjm4GQmWHtTOoxm1f+JzOpqtboGCMn8aT21ZcOf5RqQ2rwFKKsq5qlNXCiWc3UMrx/qQhcSaBq5I1+SqLbvG6ZwUhXQ9I42SorbS894ykrq/SDuKNMUZR3+CKMukhAsJlJIST0fXjaX2MoFcX/hdnNSaoKtKdbt02s7sKP7sfvpm/kjqYCkhy65z6HS1cPURbYbpa9L2i5SUotZjCrv+AEV89AR5WQpk1+cTitPxScrrv9IETzkJLUfQ2qSaH5RXl2uCKNcJO+oIolhTs2Lo4Nmr2oWGsoASjx2jxIIqK2dB1sIwkktsaMDy1Bqbqxdt++WOj9E7/xdAdo4dKCTUlzq9tF3bhuKztPRRD1amnJp3CKFePYOprb2ULVRaUP+Fx7VBSt4WGukgkO2QNVQ1l6jLPf5BJ5KhdgDLIiT69unmJHV8gr7OZ1+rdBy2UPszQ2Nbckca/t571MPJhlz9wqibjzNrg0DOg1dQXHVhSsr543XqZC0jJ/9hNG7CGHrEx54ECZtQLW3Ise9iutg4IRinMotiDp6lq1phU0HiMTqWWMD+VRcKKryeQWlJUbT1eW+SSd3pxWoDL6PoxX3JUZBR2/E/UVa1yi7Tkp4siGr7Ov0lzuEmjfXGBFFiHlmnSbT9YhKlpKZRGhtDZw9E0EdPeJGlYEd9PokTM4vy1/WLZWkUxXzsuYuXmY9NpcSYQ/TDRyPJky3IbPt/TpeZjBU58XQqKoYuJiazPGyMxx6miA/6kjPrb6cPTlQH3IrkT6g3u87xme/0Atx8WsuCKMFxjPjdCKb4A+Z/Vw9mQZn9KKpxB5UUNcOfBVFhtLB6EckCwKUsAJS2pte0UawBlVEzKUCu7sdxsR+VWj1fjqIf3+3OdCql9m8e0Pxi0MbGzGEMfZ2np6vl/DdtmzGI3KQCuTB5qYfL3UCpUIg2XcqDqAcVZepn1EcupTav76u+y2SIkrLXDCErwZnG/VLXFKKmjA682Z6k8i4055zxmU2ZvYaGWDGHO+6XOicjNQ0HUay2fa9Ra7YK0Z0ISndMIFepDY3YWLPUV8QvpDA20HymHBZTGHnf05hWAnMMA+jzWNGNKGLpw1DmND3foAN1CKP4t/HUQrCkR1Zn1eOwRQq30wvuUpKHzKPzOuLIYbK0ZKukh57cRJd1xVT2F/1fW5Y/9EMxoXGUHXiT2jM5dJlzTvPdUHa1qV/n5XRiamdN4KEbKBpQ3wRRtl/bj7AFFC+O9ybpyiiFtP0Fd2ZrITRPV7i1MLSZGgroxzEuzCn1pCU6wZKavO/HUCtBIMcBn1ONaXxIoUxmnm8cqGec1EcBbRlpSxJ5N/pfo6MHMYhik5281aP0RazuiKmks2zlbi04Uu+5RyhfNEZF1h6aHGxDghVb0av7rMyitcPsSHB4nDbnaPOQIo4+elh990NCFr0+1ky0Gm7/SuNbScl+xAbtndYqHesHUTIJSSw70LPrxLtJinTa8qQrW1x405TDVQJLoMU9LEnm8xYdKNQmUf52mtBGTh7P/0qNvBF3V9DcDZbVDiCo8jKtGd6CBKkbPbklTRvklh+n9zux/vvPoKi6TKwKY2O9vjFShU4eQxP9kca4CCTvuURMqJJ/3WNbgzKb1g1jtmY9lNZmi2n6FP9G41sIZPnI6pqgsewAveEpJVnnqVRr6LPyvgxni0uX8WKCEUzyB2W077XWmrFbc9eplHZMcCWpzQiqcQfiwkPmU2NXeijT1YuuOhY3RT/TOLX8us7Tfm+MPhoxh1VTfoI+YPYh6/guHTXevDtI44Mow4eenLuKIjMLOUzsTi1cUPdTVgH27HcbFCE/v55NxMprOBuTCXLojMAOes/yRQT7FnCxAYry85u8HVnu5Y12ghJpSUnabeGs/u0RfyFXGoAeYfaaPGqUuTnIJwmcW7mKKQokRqzH3lwWtN/6G3NfWoyoEqA89mfsiFWiebdeCNR9WUAHmZMTHAQVigpuae7p1ottIAK9pFBmXsGV6l20ShQVFUMluGLYK2PgpSsmWTu0e0iAKsuU3VlKXDsbg0xyQOfADmJa/dSvcwt0DvCFtTId8XHFYpqJSO3haC+Aim6jUBSS+bqqC1sEBnpBqszElRrhmoAdAgLY9aqrSEvVuV6RiIj1e5HLFnS3/p6LlxZHoQTliP15B2KVzdGtV2Ct90gajTIP2bkVbAC0wkOtq6SuQsb6p+HdpjVat9Z+2rTthLGbM8TftRCaYeDclXjdr+otF0bFcWz9JgaVXhOwaHovOImeU+o6BPNmjIRzxXls/zUOCqElhg7rDqvbh7E7skCTR5W5HwdirRAQ7AU6uxd7M7Uvjpcd3Y0DeVboMeJRtKjXE0vRcdJmbHwpgElR/bUNnhrTHw6qDMTF3dLkQGUiEpKVcOoxCN2rXi5z6oOefgKyjx9BPBPF/cKicwB8rZVIj49DtYXLvPDyV1/gWfdc/Pbu61h7qQI39m/Gr5eBNv0fQWfj7qwGo2O9idgFIICVqbqaJiY0EsERnXw9IFVk4cq1Ohojc4KTA/M1RQW4VeXILIMQGmgNZUo0om/qbiYoQ1k5C7mtrcXvJmLgD+Tw8m4HQZmGpCRt+5TXtiPir1xIA3qgxh0okZuTD5I4o5Wr8dlJcG4BJ7YeuMXmE9bE2sjd4Oairle0ycbQiDmsBgkENk4kVjaweYAiFx5E3Wsqy1HJDNvCwrL2Vmx9pFLmOgkVFeXM9Run/Mx6bD5eCffHxyK81lu5urBy2HigigqUN3HTj+DqhfbNgYI9czA8fAC6+fhjXEQefF6ajZd9ayaqgvgEXFM5wtvXXZuU/wvmfRSJ8odnYeP0UNCpRZg4+UNMGrcYZ637Y+acUXDS5jSEjRq1kSqUVdtMFYj9eCDc3IdgWaLe1lPBFjZWTKplpcwNVVGJixeToJT6wM9fLqaJSGxhy/JTeU3uBik/g/Wbj6PS/XGMrVvotWlA59Y+HdFWVoGkhEswb66TQaoWEpNR1cYuc3WliP0YA93cMWRZInOpugiwtbFi7S9DqQniqkECOztrSIhdX1o1i6hNYx4+iizHw7M2Ynoo4dSiiZj84SSMW3wW1v1nYs6oOi2jfiRqu2e6pQpmDlWGL6C5/2A89dRTms8TvVqh6GoyYpNyxN9FmK30G9C2VsCryovB+XQlbLt0R7BeVGcX0hW+UgVSLqn1J8B92DB0s7iFg7sPaoKGgr8jcZoexoszh8NTcQp79uUxyVcgas8BZFmEYfijrRpwxBI4uLjUCiZlTs5wkBDKitlqRA0L3lo4S1CYmoTMKsWVnEcsC6yEVu5wMz4n3husfdCxrQwVSQlgsVI1gsfT+OKrl+B1ay+mj/0PHntxAzI8n8dnM/uxBaQaU8d6E5HYwc6a2Qwr0zTY2LCzYbZdzsZGXU6W+TGtI9MZV83QNbgjZJUXcTa6UkxjqG7hVpH69UlnMcFU9P2BAFev9miOAuyZMxzhA7rBx38cIvJ88NLsl5ntqvMwVAWIT7gGlaM3fNUvjRtD5gwXRwGK/Bzk6amEOVKUlhMkNo30iwzDOaxunatusmAzVQU7X380GG/dQ+ofu5w7TqP3Qqq3Zaup6wLVFWxbsBZx8jBMmjKk9s6mWkjEiZsavpPTEHIveLVlK7XCYigc3OAX/iqW/HgCR78YrrOSLsSByChU2HZD7zDtSr4o8hfsybXGwFfexvi5GzCnjxUurpuLjaleeG3rNrzlZ8qIUKHkJhvAebm4WWakR1Vi0/6POZKriEvMh8TVF53ZKqk2Ku0OEJlecFUnKlzZtgBr4+QImzQFQxrpKxrSuUx910imxBU2CdfpvgUbOLZgq1kXo3uhDDFTV6qSm8jJy0PuzTIj9qIvXNOQiDZdI48iRP6yB7nWA/HK2+Mxd8Mc9LG6iHVzNyLV6zVs3fYWTDINXVhQ0a61HVt9X8bFuJoJqln3V7B46TIsW7YMn07qA+dGekC6fRvFJIE1myz1pxeJjQ3U83llhbYeaZthGBosRW7kLhwpK8aRyGMo9euHwUOGor9rKY7u3o9bFeex5680SLsNx3APM9wwk6VamtWj2iIUzz7ZCcoj/8OT42bhsxVLMOWpCViT0gpPvDYazBTuHzIveLeTQXnlEi7VMnABzo9+gg3vBqHy7J84Xtkfi39aicddq+Rh4lhvMkymmjJrShRsHNHCyYkFDjp3JY2gVC/yJBawtDBFlzJ4hwbBmbJxITq9JrhSZOBKpgpS9zZighFM9AdyLy9mAyoUFivg4OaH8FeX4McTR/HF8BY1QUDhAURGVcC2W2+I7sAQaQu0dBJAN5iP0A+iCpOQkq2ClaeXmNAARuewunSuQs6unThRZoueg/vB+H7q+4MZo5dzL5DYWMNavdIsKTHqJAr2foSFu26h3fPzMam+mUZiA2vN6qoEJU31NtK28PZUrxG9MHbVNmz+cjHeeSoQzXWsSJm0BV/tLoDjI6PxWEv1D0rkpF9FscQFrduySc0iAFPWLkA4C2gE52AMDG1oFd5E2Crv4mUlZN5+8DOIlSpQoWAikjcyiCrYi48W7sKtds9j/iS/2tv1zaTk0s/44MlZ2MscRnlyAi7X9WhC5o+pB7Jx/c8pYkIDmKWre4wyB+lXiyFxaY22dgIsAqZg7YJwuLAlu3PwQITW2vZtKlboNbAXmqkysOPbSDRw6HCDSBybw0EgFObkGgS6qqzryCUBLV1dtQGWtANGDA2AkBWJ3UePY//hm2jXZwC87XphSL/muH1oNyJjduPPRAm6Pjr8zgQ4JYex5fsEuA1+CgG5u7FuxQYcKA3D+9/uw4ax7vfP0Zdcws8fPIlZe1lQXp6MBAMDt0PveRsxu7cDcDsDl68Vs+nywUHmPxUHsq/jzykdxRRjsIm/uJT5aQtYMV9rChZdQ+BvoUT8uehqu1JcPo1zeRK079JFTDGCif5A2tYbWncwFqu2bcaXi9/BU4G6R4cokbTlK+wucMQjox9Dne5AaKG546m6mYu8WopSIZsFOcfLbPDwwL5iWv00eg5To0zD91//hUKHR/DsYzqB3wPAg9SWfwXlOYmIic9q8i1mqasbWjCnnZudrfdYhVFxBstmb0W64wjMmjmwnrtQDKkr3FqwlUNuNrINCjIVS3TwbgOZMgNJyYazvermMSycOB+HFMF4Y8YzqJoDS0vVD/jlsJBrHYzM51Ws+fRxtLz2Dd6ctA3pTW5X3SjT4pBYIIF7J7/q91iqURWhqJggsda8adIAFTizbDa2pjtixKyZGNjIu1B1orqJ019NQM+wZ7D0ogdCvC2gSE/UW6k3BfN0dW8phdY0LKA1DRl8Xl2DTx9viWvfvIlJ23RW5yYjoNXTb2Gcl4CMre/i/R1ZTZqcBedQhHrLUHZyF3az1XYNFbi4fSfilM7o0T9YfOQmg+/woegkScOelauw/4ozeg3oyqZYO/QP7w3bG5HYtHAnLiAAj47oYHBnyxwUqUdwLF2KDkNnYtNfZ5CQdAnRf0fgf0930lu1lyM7MQaJ2TVvtChuJCPm4rWa95U0ZyFdQPrtpkhMhZunv8KEnmF4ZulFeIR4w0KRjkRjBm7ZBe+tX4yhDklY9+pb+FF8Z+yfgwq3bt2GSuIAJyfTgijBuSu6egooij2HOPUwVV7BL0s24Tx8MGJksDbTncCyA7zbyKDMSIKhO2C6OrYQE+cfgiL4Dcx4pp6FreCMFk5y0K185Ou8FKXK3oU5zKYL3Z7CpDGtxdR6MGUOYyjOb8bmI+Vwf3Iinqj/BcJGUo4cNg7is5r+MPi+uM5/LYpYfDw8AMGBgzD3RCPfblHl4vg3K7Bs6VIs1fl8sSsFSokS6ZHrsWz5JhysdixKpG6chRXnJAh5ez7GVT8KUCH3+DdYsax2OUu/2IUUpQTK9EisX7Ycmw5mNmEykcHLyxNyNtDP7D2AY2dikZSSjPjTkfhu6VsY3i0c807YY+TyrZgeWvUGB0FVdXBjtX+Rou1zq7B8jAdyfnsHr65J1L78fBcoj49DklIOb79OkOvLaPkWHM1SQWLf8C1xZepGzFpxDpKQtzF/nEfTBk7FeaweFYq+r3+D7KD38fOpSHz2n3aQliYj0UjAY4h+P77D6Xx9rZqjqzsEs+nT3y2vbYdLl2PD4Wu1bY/Ex6nioykN0rZ4btVyjPHIwW/vsGA7sQmW0ewR/G/dB3jYOhFrn+mBIW+vwC+Hz+NSUjzOHPgRqzYdQg5rkPowvwaRBeP5V/rBPv9XvDN6GrYduoikxNP44/MXMObjc5B3fR2TR9TYkSxgOMI7AJe2b0e8dXcM6KV9y8dxUDjCLDKxa/spqDoPw39878T9TFZfh3A8zvR46N3OaPlQe/j4+iMohNX7+ETM2XYOVe8tK2KXYHhAMAKGL0GsWrSqLKwfG4jgLv0w45DWZxX99Cq6BHVB19d+hfjGlYlU4PzqUQjt+zq+yQ7C+z+fQuRn/0E7aSmSE5NRnvYX1un5qS92lqBLjzaQXP0Ok6d8j1px6l1AlXsa3y2v3Yalyzfg8LX6KmbBRtR3hj526Rf4OfomyNoFLvaN9Awlsfht1TIsXfU3smTMP1/egcXvvoSRYWF4LiIHXi8uwjsPN/ZYyUb4A5kXvDzlLEY7g70HjuFMbBJSkuNxOvI7LH1rOLqFz8MJ+5FYvnU66ncHMji7OEJQXENidDJSL53DX1vmYFS/MVh/pQNeWr0Ejzf4jLyuOawuSnBw/Ta26OiIsS8P1m6uaCLqdz/V4yBw0FzUTNUq5J/8VpTjSuxMLAXRdRzbovZly/DVnjr+HJO4S49zJ1Ak08rw5iR36EtLYo1v1yw/NpU6W9hQv8/F85LUB6F5y9RTSd0foSW98Lu4obT8EE32lpOt/2TaJx72qEV9wKI3MZdsvAzNR6CWLxg/vNBwK28lRc8LIUvrHrRI52CfyugF1N3O8DBJibQZtes7kZb+nal3Jo+CEpb0ImvLQJqpc/CjGmXeLnrT345kzUfQuqrzsPSojJpFQZbW1OfTy2K5rF1z1e3qTgsNtq7foC0j7UnuPpH+0HRSQUmf9mV1+9O0Y+o9seV0aLJXbRlJBGr+5NfqzPWgvs6b5Lb+NLm20DVURs+jENbGHotqzpfRRV/nmoMkbT1o4KydlC5u1c3/+klylLnRizuMaUcfY7qWkFXYAqrewcwwXVfqa+Zq+tJ94UWD325sGUn2cneaqBWuERQUt6gHqZ8e69dZ9ZHIvWnyQbHTigRa0suaLANn6hwCqEZJebveJH87GTUfsY7qMI1GUxC9hd4e7K05XLV2W5zId/Ak2ny+qj9am7ey6U9LjW1rVlyjXTMGUWsrnXLUB68OmErb0/Xzl9PRaQFkLbA+DP+qpg8aH+FIUsGGQuZEVR8/oaEymuaFWJFN/6VigmhbVjbUf2lyLX2UH/2AOlnY0ZAvr4kJcbTmMQ+ydOtPr86aTTOmvkdTXn+ehgU4k0xwpAFL4zXXK5JX0VBnS3IauopSNAXm0XdjXcmiWRj9T9xiXvrnG+RlY0M+b+8373gJzSG6tuQxcBbtrDFwetJRRm4v7qD8iKfJvk4bkZA8cJZ4FpkpY52hkZ8lWfdYJCYYQRFHi3pYEwvajdSt/rD6vSeLmfURjyOp4zq1HWvOIjVGZRTNCmJt6/Op9iwp9RlRVYfySiQkyCzJvkU7Cuz3DL2/7jhpjrJrNI3xB0yWC7qTnYHcJSRt1o76TlxKf2c2plIFXfzoYbLQLUd9EG/XMbRkv54/qUsfdc5haowck1K6kya6y8lx0DJKNEkudaNIXknhzeXk0HcJ1UzVWj9fl37tHtsk5qsN/7MvHA0Vp6aja6/PYDEjCmfn1/WnBrQob2fiUkISMrJyUVgugVVzN3gFBKFTK+1qm9MAymu4ECdD54BWd+RRTn1wXdVQnhOPs+eTkXWzHHKnNvDrGoz2zZnLNJGK3HicOp2I7HJLuPqGIcxX508A3SfyvxkF7xdOYMT357H1SZ0djbd/w/M+T+E7vxVI+3MS3Jp0C7WxKHHtQhxknQPQ6m4bOMcElLideQkJSRnIyi1EucQKzd28EBDUCSa5g4psxJ06h8vXC1Epd4CHbyhC7tifY6nAqeld0eszC8yIOoX5Qfd7ZDUMD6I4GkwJojgczoOEEvELeiBo3k28ti8GK/rXzIgVCZ8ivNs0JI76BUmbHnugdjVxOIb884Koe7Iu4XA4HM7dQgrvEaPQ3S4FX47qjuEvvIH3PngPb04YjtDeM3DMcQTmTx3GAygO5y7A70RxNKhunELE5qOQ9nsRo0McxFQOh/NPoShxFzZt+gUHz6cit1gFS0d3+HR7FONfHoOH+XM1zj8CFW6cjMDmY1L0mzAaIY08Fu9+woMoDofD4XA4HDPgj/M4HA6Hw+FwzIAHURwOh8PhcDhmwIMoDofD4XA4HDPgQRSHw+FwOByOGfAgisPhcDgcDscMeBDF4XA4HA6HYwY8iOJwOBwOh8MxAx5EcTgcDofD4ZgBD6I4HA6Hw+FwzIAHURwOh8PhcDhmwIMoDofD4XA4HDPgQRSHw+FwOByOGfAgisPhcDgcDscMeBDF4XA4HA6HYwY8iOJwOBwOh8MxAx5EcTgcDofD4ZgBD6I4HA6Hw+FwzIAHURwOh8PhcDhmwIMoDofD4XA4HDPgQRSHw+FwOByOGfAgisPhcDgcDscMeBDF4XA4HA6HYwY8iOJwOBwOh8MxAx5EcTgcDofD4ZgBD6I4HA6Hw+FwzIAHURwOh8PhcDhmwIMoDofD4XA4HDPgQRSHw+FwOByOGfAgisPhcDgcDscMHpAgqhiHFzyJwa9tQ7pSTOJwONXc+P09DBk+A7vyVWLKv4Nbu2di6MAxWHFOIaZwOJx/H7ewe+ZQDByzAv+2of5ABFGqrO/xyac7kd8qAB5SMZHD4VTj4N8alQeXYcH6RPx71hkqlKScxIGDfyMmkwdRHM6/FlUJUk4ewMG/Y/AgD3XVjRj89PHbGDOsHx4O7Ya+IyZgzjfRuFnP2vUBCKKUSNi8DvvKwvDf8f6QiakcDqcGabtn8d8BFojasglRFWIih8PhcO4MFYfwfo8wjP7f70iTusG7XTNkH/0aH43vh6EfnkSJmE0fCTHEf98fFOcxLywUi6wX4OLB9+FVdSfqdjrOxSQju6AQJWWVULBIUG7rgtadg9HF07F2sKXKRfTuSCQUqqDujEQiQGppB5eHfBEU1AFOFtpsGlRZiNpxBFluvTDsYXdWTglSI7dh86+nkFHhhMD/TMQrIzrCVsxeGwUyjm3HsfQKTT2GSGDrPQAjQltBuJ2G0+cuI/tmEcoqK6EkGawd3eAVGIxOrazE/FpUOdHYczgVtgGPoJ9PMzFViyLzFHadKITXgIHo3Fw/5lUh8+R2HEop02mPBBJBCks7FzzUMQhBXk7Q7T6rDNF7DiPVNgCP9PNBrdoUmTi16wQKvQZgYOfmRiNsVW40dkcmoFClkXRNXb6srg6162psv3wpCSdjUpBXUMxkpYTE0gHuHbsixLcFLMX8akyp2yjFyTj05wUIXYait6eoAyNpJcmHsPeCgC5De0OTZCRPMcvzZ3UeFW7G7kNksiO6Dw+DR5VxlqXg8O7zEIKHolc7sT7FNZzcdRJF3oMwqFMzFKSew/lLmci/XQqF1A4tPf0REtgGdgbCV+H62hHwmpSElyNjsbSPsd6qcOPSScSk5KGguAyVSgksHdzRsWsIfFtUSdIMm2HU7q86pQTJh/bigtAFI3t7smILkHruPC5l5uN2qQJSu5bw9A9BYBu7elZqKmStCke7t86g97QVeMlfztohg43TQ/ANCYWPU80or1W/LAPHth9DeoXxUQiJLbwHDEObq7sRebkEFvZt0KVXGNo76LZEhdxo9ntCIbTmJIEgtYSdC6s7KAgdajkNfYzJmY3tLiHwqx7bjdEFQ3EFJ/44gbzWfTEshPkNMVmNMus0dh3LRZu+QxDUAk1oL2tN5klsP5SCMh2R1fjJjsxPeun5yab4CRVyzuysQ/YKXDu5C8dzWiIsvDta6w7wCiaL3VEo9lGPDQdWjAl+nWFoo0YwZV5h6PsC1a10XEjIQF7+DaZXBeT2rugQxPTuerf0bihdNbXbpURu/HFEX87GLZUd2nTpiVAWAFRdqboZi32RyXDsPhxhNc4JKYd347wQjKG92kHbeq1uThZ5Y9CATqg1XDSo/dx+RKY4oMfwh+HO5mpVzhnsjLyMUgt7PBTYE2Fejqh+mKTrN9vexKrwdnjrTG9MW/ES/OXMfmU2cGK6DAn1QdVQr+3jGczOpXIbNPfoiK5dO8K5fjNvGhUnsXreKfi/+Tr6umkbVBw1B/37foSzNs8gIuU7PMPM0gB1EHU/USQuph4WcvKbdpIqxTRi/zo3O4jkrHnqJtb6SKzIvdck+u5yuZiXUfo7TWglGOZlMaJFy1B6ccMFKhWzUvkJmtpZTkLLZyniWhx9PTGQHOR25O7jS20c5SSRtqBHVyeQQsxeC+VVWjHAgiQG9VR9BHIc8xOrq5LOzjLefomsOfmN+oQO5yvFQlmx6V/TKHcpSR8aTd9erUlnv9DVFQPIQmhFE36v7oEOObQm3NKgjuqPxIJahrxAa6OLxPwMZTp9PcqdpNKHaPS3V1kNNSivrqABFgK1mvB7jbz0KP19ArUS6qgr9EXacKHmysb1q5jSPu9HbGzolWdJ7n2n057rNdeZUrcxyk9OIz+ZnILnRIspxtLK6eQ0P5LJg2lOtNYiG85TToen+LDvfjT9lI4Vn59HIXI5hcy/UG3byoxlTMZS8nh5N8sQTXOC5Xp9kZK972j66kKZeEUNisRF1F0u0xsrOijT6PN+FrXLYx+JpTv1nb6HtKI0w2aMyIQJhab5yUgePEfztTJ6DgXLa5clkdqT7+ivyEhXqsnbMJxsJLWv01xr1ZrCFx6hAk2u2vVr7VRicE31R3CkMT/l0w/POopjVUJyj8foyzgdn8Es/PcJrYjNEwbXSyxaUuiLG6hOc6pLzvKW1OO9nZSllnOjdMEo+pHGOAkk776IEvSczo11j5KlxJGe/aGYfWtCexk5a8KJTeEG12o/aj8ZQi+sjaZqrTfJTxTXI/tSOjGrK9O5nHxe20V5OgUrkj6mXnIptX5tH2lMxhS/bsxGDTBxXjEos5IuzA8xuF7t0wOeW6eV/x3XuzH02sXG4tTOspq65O40dFkMyyXmPjyFfJj/8pt+qsZvVJ6neSFykofMpwtVicoMWsbmN6nHy7Tb6Jgtoz2veJBU3os+TtI2uvTX58hF9MkSqSOFvLWdrol9rO0382jDcBsjc6eErFqH08Ij2pFep49n+SzdetJbP6Uan5vvFpUxNLcr89Hy7rQo0XjN9z2IurFlJDUTmtPoH4w4bVknmrT9IiWlpFJaWgrFnz1AER89QV6WAtn1+YTiqvtUSYXXMyg9PV38pFFy/Fna/818GtnBkhlwV5pzuspSFJS6cjCr05I82nlQs/ZP0OdHszWKUWT+ROPbsknf8w2KrMPxl93IpIzqetSfJNo6uiUJFv1pSUw6ZRWoTVen/b+ep4TLKZSaepkuHP+DvpzUnZwFNom+sJ1uaotkKOn6rxPIUy5QyxFrSbRPBgs2lquDDVeasMO4u9K0JzmCxntISd5tNh1NZW1KS6a40/vp2wVPU0cb5sT8ptIxnf4or/9KEzzVgeQIWltTGXOOyzXO0XXCjjqcI6OykK5n6PSf1RV/dj99M38kdbBkht51DlWLupH9UuTE06moGLqYmEypaWmUFHuYIj7oy+Qko04fnKh2BqbVbcjdC6JYP1cPZo7PnkZ9e1ubhVEZNYP8WRAVtrAmKFemLaV+LIhSTxRqp5R++iAdj46npFRms3EnaecXz1Fna4GaDV1DGbozl5qyPfTKQ1Ky6Pc5pen/pkFBOfGnKCrmIiUmq8dMEsUejqAP+jqTwGzxgxNaSZpuM4YyUTtu3SCKytLp9MHjFB2fxHTIyjq5k754rjNZC81o6JoMJqE6UBZRzlWdsZuSQGf3rKSxPmyxYj2QVqSrr9Svv4xuZOqOd/ZJ2kqjWwpk0X8JxaRnkXoYKgqvUwaTQdTW58lbJiX3F3fUBAmMSvXvOmWkJcfT2f3f0PyRHZguLanrnNPGg1V9OacyOR/9jj7oo5ZzZ5qqkXPjdEGKZPqkN1u8OT5D39WYjob8tWwy1QSE2tFofnsZZTcoMyOZIsarJ8FuNPtoKitDbXOnaf+3C+jpjmyCY4uAqTqOoil+ol7Zl0XT4r6OTA5tafxPWdW2obi8hHqyIKrt639pgyiT/LoRGzVAzNPoecWwzLK0KDp4/BxdvKzWeyLFHPqBPhrpSXKJLfX//DLLcef1bojheMhMuEAJKawvR9fR2PYyElxfILY+1aC8vpoGM/9oP+pbqq6qMopm+LMgKmxhTRDHAsClLACUtn6N9hmd/yopamYAydX9OC72Q+OT0+hy1I/0bnemU2l7evOA9mJ9v6ksyqGrOv47JeEs7Vk5lnzYgsh64ArSDHV9H88+qYkx9Pe2GTTITUqCC5NXvqa4e0P5UXqvo4z5okdpXY6Ypsd9DqLK6dh7vswYgmj2OV3Dr29AFNCPY1xIkPekJToDuy4Kt79A7lI5hcw7L6YwctbQEGZU0oeepE2Xdcsvo7/+ry1zMqH0YWzDZWtQptJnfeQkbfO6juHV035FHH3UTe2YnqfttcZIHn0/hq002eAZ8HksK0GNgmI/DCW51JPeEA3TKGX76LXWbELs9bFOoKKmmK0cWpO02rHXkPf9GBbxC+Q44HOKrRrXsR9SKHNinm8cEJ2YKRTS9hfYylUeQvPO6/bZzH4V/0bjWwhk+chq7cq+XuqquzZ3L4hSq+A1aq22M527TqU7JpCr1IZGbLwhprCexy+kMLmMfKYcFlP0UGbTmiFWJDiPo1/0fagihT5ljldwm0h/1OVfjVD823hqwRYNj6yumbBMsxkj9qwfRBlBmc3GmZVAzuN+qTsoN0oZHXizPdNnF5qj8Qv1+QMtytTPqA+z3Tavi3cxdNHcfZaRrNMHpDcMjFO4nV5wZ7IJmUf1mJMBxT//lwX+enLWw1AXrK9veBoZo0rK/jKcLTRcaPxvDUiv0e0to32vMd3q3EmoonjPK8x+ZdR5qs6ihdFkP1GH7Csvr6HhbHxL3Z6kLWnatpQff586sXHmPyOq7mBQxNCvN2wj9ecxNq80pky1na+jYbYsEBi6Vkwx5M7qvb52ldF+zRwWRgvixX5UjXXdu06lO2iCq5RsRmykau+kiKeFYXKS+Uyhw7pNqkZJ6Uv71bmoL/p5HLkIcuoq6sSYvzWg7AC92Z61rcscqhUCGFBOJz7oxALgjvTuUaONuyuUn51NQXKm276f0uXaQ6Ya4w9c7xkKXMnIglLiAlfXxjbFDgEBXpCqriItteHX/G0DA+ElVSLzyhUxBVAWFaFYJcB12CsY46X7FFyGdu0egqDKwpUrjdxCoMhEVg5BcGoBl8bsLJR6ItDPCSjIQLrOdnVFYgTW781lQe0t/D33JSyOKgHKY/Hzjlgom3dDr0DdlwcaixWCgjpCqsxEum5/FImIWL8XuSyIvvX3XLy0OAolKEfszzsQq2yObr0Ca72L1DhsERjI9MLq0pWd2f2SOcHJQYCqqAC31Dd068V43fcSuZc32glKpCUlMatmKK9he8RfyJUGoEeYvSaPGmVuDvJJAudWrmKKHoI9WrjYAEX5yC8V06qQtoRrCwvQjau4dltMawQyJyc4CCoUFdzS3BuvnzpsxgwEezYmNF3Jh35X6oXJ7mxMJsihMwI76L+lYhxFZhZymDtzauFS805GFRadEeBrDWV6POKKxbT6sA1EoJcUyswrMEUEMhdnODI53y4oqFPOhrqwRFBoIKyVKYiOvgndTUBlZeWAxBrWNhIxpQ7MbK8uVkFB6Kj2k+lXtPar5k74iTpkL/N6GV998Szcc3/Du6+vxaWKG9i/+VdcRhv0f6RzgxuMjPn1pmHavKKL4NgJvh5SKLLqbstd0btRpLB3tIdARbhdKFqh3Ave7QQo05KQpOmaEte2R+CvXCkCeoSh2jspc5GTT5A4t4Kr0blMgHMLJ8iZL8/PZ23UQ+7mBheBUHTrlpjSMMprZxGTSXDoHIiGhrpEYDGCxAo2NvcobFGmYsucL3GB2uK/H7xY8762Hvc5iCrH7aIykMQGtoZv0taBBHZ21pBQGUpLRSNRxOLjgW5wH7IMiXr7vwVbG1gxWywrLRNTgMqLF5GklMLHzx9yMU2LBLa2VqzscmbIdblBfSpRXsnyWljAslE2z9pvq25/hU4d+fhl3keILH8YszZORyidwqKJk/HhpHFYfNYa/WfOwSgWd5mOgGZ2tqzGCpTr2Hz+L/PwUWQ5Hp61EdNDCacWTcTkDydh3OKzsO4/E3PqqUwR+zEGurljyDL9rfYCbG2Y7MD0Ui3qpvRLgHrMQKGsrse0uu8tgqsX2jdnsfGeORgePgDdfPwxLiIPPi/Nxsu+VaNPhYL4BFxTOcLb111MM0QqZfmZfVSU67pWNVLY2FpCoipm48aEgw6YILWibMw1xm3GPKSsL+qusLL0u1IP5WfWY/PxSrg/Phbhtfcj1E1lObTDkMlHTKrBGj4d20JWkYSES1VbGxWI/Xgg3NyHYJmh04CN1mkwizIBqUwTwCmV9XTWiC6adQ1GR1klLp6NZt6kChVu3SoCCY5wbq4u9S60VwehmR1sWREVOkpvip+owZjs1QjwePoLfPWSF27tnY6x/3kML27IgOfzn2FmPxZ5qzHRrzcNI/NKY2Hyt1O/2Fdez1LBbL2bjkyqron5TZVoh4IrvLTOCXOGh2NANx/4j4tAns9LmP2yb/WiQ1UQj4RrKjh6+2peGjeGzNmFLRQUyM/J0/PBbJyz/pezBaINs6XGUY4z6zfjeKU7Hh8brtm8UKePV91kwWYqVHa+8G/kwqpplOPCF69g+q5CeE1ciYWPMvnVgVra9xFxomSGozQh+JdItG6yel+hqgQ3mVLzcm/W2n1ShZhb81+1cV2NS0S+xBW+nV0MBKDS7AqQQd5YPVU3wgTE9ldTFIlf9uTCeuAreHv8XGyY0wdWF9dh7sZUeL22Fdve8mtwZVYX+lWxyhD5yx7kWg/EK2+Px9wNc9DH6iLWzd2IVK/XsHXbW/CrpzJVyU3k5OUh96bu7q4qxMqqfrjD/TKpbrMRYOPYAk5OzFmovXRjYas9r7ZSqAqLoXBwg1/4q1jy4wkc/WI4ajbYFOJAZBQqbLuhd1hd24dqdGbMtFTqCVqiHjcmtM1EDG3GCIINHNmq1MnFUUwwhqR67DVaLaor2LZgLeLkYZg0ZUjtXWH1UP8wlMHLux1kyiu4dKlqolOh5GYO8vJycbNup9F0c2oEMu9QBDkTsi9E6xw2rEDGlUyopO5o00ZtQHe5vQZKb5qfqMGY7EUEZzz6yQa8G1SJs38eR2X/xfhp5eOofihhkl9vOgbzSqN9AQtYmN4kLIA3hcbp3Rim+ig5vLzaQqoqRLHCAW5+4Xh1yY84cfQLDNfZ/Vd4IBJRFbbo1jtM3K1niLRFSzgJhBvMDvWDqMKkFGSrrODJ6moMqivbsGBtHORhkzBliHak1+XjVTm7sPNEGWx7DkY/41vn7yBKpP/wKkZNOwDJgIX4/nNdH25IPT/dCyzh6GgLgW6joMCEpWqTYJH/xctQyrzh51f7PpSaigoWzUnkkDfuttIdQZmTjqvFEri0bgs7wQIBU9ZiQTgL8JiTCR4YilZ3UkvKHKRfLYbEpTXa2gmwCJiCtQvC4cKiWefggQi9g5Xd037dMWTwn3oA2df/xJSOJqwEpW3h7aleQXth7Kpt2PzlYrzzVCB0T6VQJm3BV7sL4PjIaDzWsq7Os5WctXZFXFKiP0GU4VYhcy5SRzg53mfhyfwx9UA2rv85RUwwgsQG1tZshV5WAoOu1EHB3o+wcNcttHt+PiY1bpZugBJc+vkDPDlrL5uIy5GccLnmcdWDgkVXhPhbQBl/DtFVcYbiMk6fy4OkfRd0uR+6viN+ohGyt+uNeRtno7cDcDvjMq4V36t5oDE00hewYK9YfffKou6FkVHM1rupPkqKtt6e0HinsauwbfOXWPzOUwis7Zyw5avdKHB8BKMfa1lnYCC0aAFniQo3c/NYWK+DKhu7dh5Hmc3DGNjX2DkA+hRg70cLsetWOzw/f1IDAbkSad9/jb8KHfDIs4/VG9A0HRWu75yMx17chpwu0/DjD1PQRbwxWhd3tTkGlOcgMSYeWdV3YLXvIElNeQepqSjTEJdYAIl7J/g56XdfhaKiYpDEGnbqe9v3itJSlLPJU24h166uZD54dc2neLzlNXzz5iRsa+hv4Shvo4gNYomlNdic1QClKFU/cpdbQK6tDD6vrsGnj7fEtW/exKRt6QYrDLNpar/+UViig3cbtuLOQFKyoS2rbh7DwonzcUgRjDdmPFNPACmFq1sLtrDIRXa2nnwUV3AlSwnBtQ3amuivDTDJZsxE6go35vEoNxv6XTFKxRksm70V6Y4jMGvmwEbfhaoL1c3T+GpCT4Q9sxQXPULgbaFAeuIl097PuhewRUXXrp4QimJxLk5tO0pc+WUJNp0HfEaMRPAdOxtHidtFper99prgtn6a5idMkb1ll/ewfvFQOCStw6tv/YjMBymOagyqW7h1WwWJg4nvXNwzvTMZd/BGG5kSGUnJhoGs6iaOLZyI+YcUCH5jBp6pJ0AWnFvASU64lZ/PfHsVKmTvmoOFOwvh9tQkjGndcFhRcWYZZm9Nh+OIWZg5sIGRrjiPzZuPoNz9SUx8gvlGMblplCMnMQbxNcEIQ4Ubf8/GyHFfIrXjW4jY/iH6G8QIhtyJpV4jUT/TH46uc6Ph9f5hRC/pDgtWvXdgZ9iptiMhvgCqPnoRsCoXp79bjqWRtTtSdOJa7SjYFMrjEZekhDzED53k6iqOIyLiJHKU6qWyCplHs6CSuMPR0YS7EE2EVFWHydU4Nmnb57Bq+V84M/ZbvMOcV9gfk9DRQFsliP1tA37fHYHdNwS0CQhkK0Xxp7ogVfVhfdW1SdviuVXL8deZsfj2nVexJuwPTDKszGTM79c/ERm8vDwhV+7Hmb0HcMzCAy2bW6PyRjpiDv+GLas24s8rLnhi1VZMD9Xe9q9tezVUpighUaYjcv0yLE8Mw9PP94O7Wq9l8Yhnv1n2DIKf6W/+i5hhMw2iQu7xCESczEHtrlQiRSmBMj0S65ctR2LY03i+n3sdTlCJ1I2zsOKcBCHz52OcR9MaVXF+NUY/8R5+u+KAvu//jM2zXLAypB9WJCdCHeN2eSBsTq2LTfgrtQJlWTKm80TsWPwuclVHsWv3ORR4vYzv3nm44UNkG0FJ7G/Y8PtuROy+AaFNAAIbUnoT/ET9slfC8e+N+O1CUe0HcdQFPdrsw47vJmPKiP6IGFP7AMo7irnzCgs2on74GkfZQqZW29kkH32TYO3iIiY0xJ3Vu/4cln06n/239ntJMi8veMqV2H9mLw4cs4BHy+awrryB9JjD+G3LKmz88wpcnliFrdND698sIHOGi6MAxbVERCenwq0wGcd/XY1FS7fjSgfW7iWPw7khxSlTsXHWCpyThGD+/HFoaKiXHFyPbReAju++jMGNfd2qAdTvXg3vOhfRXu/jcPQSdGfCVl3ZipeeXYxTpZ54fOhDiP92OeLF/OpXKJoFjMRLg4w8qhR36d0DFJS8Mpyayx2o75LY6i2syqur6BEbKblN2EE1R4spKG5RD1I/CVA30dhHIvemyQfFrY6V0TQ3xJKsuy+ki/rbEG9soZH2cnKf+IfmqyLpU+prbUn+046R+uryQ5PJS6ZbtoSE5k/S13ma7A1TfoymdrYgm36f62wVr6ToeSFkad2DFtUcOiJSTkff70QWNoNohXjYjyJhCfVibQqcqXMYmhplHu1605/sZM1pxLoMMVEHRTJ92seSBLk9te3/Lv1e60BLLcU/jCZHdv3YqjNHFAm0pJc1WQbOJJ1zIRlKytv1Jvnbyaj5iHWGZxSJVEbPpRBLa+q+8CLTUm3UZ37Zy91porj/3ux+qamMollBTKd9araWmlK3MYxtua2Mnqcps8eiODHFEMM8xvVbGb2AutsZHgIpkTajdn0n0tK/M2u1W30Innct2zP8CC1foKpzVsuPvKM5NC9sYbxB/+ujMmoWBbH29/n0MinMsZl67VmN+rBRb2LTqdE+aD8CtXyh7kNc2UCkyd5ysvWfTPu05+7p0FD97PJjU6mzhQ31+zyJyUZ7mKutx0CatTNdM86J8unrJx1J5vYiaXdnszLnqsvsTgsNnQZtGWlPcnfTjpKo0k/o/wztswp9XXzSu+rwXglJBBlZ2regdoH96Jn319HxbN1SmtJe5ns/7UOWgpzs2/and3+vfXimhuIfaLQjG/tj1YcFM8z2Ew3JvpginrY3cuii+JHIKXCWeN6VCX69MTailoNJ84o+4nENxq5THw4cOPOkmNEQ8/XeMMb8iMQqjBZUn2fAYLJc0N3OUO4SKTVr15cmLv2bMhtTreIiffRw7QOn1Ye9dh2zhPbrFVCXb1XPud5yW/KfvE88TLcGXR+tbX0p7ZzoTnLHQbSsjsMuzUGRvJLCm8vJoe8SihXFVHlqBgXUeYivhBxGRWgz6nH//+wLi0qXD/bDexkv46+45eh3B29hcji6VJyajq69PoPFjCicnR8kpt5ZlLczcSkhCRlZuSgsl8CquRu8AoLQqVUDD9YbRIEL88IQslCCWWdPYI7/v+L23V1Dee0C4mSdEdDq3t1Rrjj6LgL6fwH7udE4Matz9a6n/9+4H7LnNALlbWReSkBSRhZyC8shsWoON68ABHVqpXlfqrFUZMfh1LnLuF5YCbmDB3xDQ9DxDv09Fl0ffYr56H+Cl7v/QRRUuLbuMfhNSsD4Py9iRX+zn1NwOPVyL4Kou4YiBnMf7oZP7Bbh/IF36zyzhHP/4EEUh9M0/olB1F177Nx4BHiMnoRn3DPwy5Y9aPwxXRzO/z+UHduEiNjmGPH6c2jPZ2cOh8N5IJDOY4j/vn9YtkfXIHc0c2gDv6A2mkPfOJw7jcTaHo4tOqLPkAHwd2/q9rZ7S1FOPoSA0XhjfJeGX9zk3BfU9tW8ZSf0ZfYV4MrvqHM4piKxbsZ8tC/z0f0R+A/x0Q/A4zwOh8PhcDicfx58TcvhcDgcDodjBjyI4nA4HA6HwzEDHkRxOBwOh8PhmAEPojgcDofD4XDMgAdRHA6Hw+FwOGbAgygOh8PhcDgcM+BBFIfD4XA4HI4Z8CCKw+FwOBwOxwx4EMXhcDgcDodjBjyI4nA4HA6HwzEDHkRxOBwOh8PhmAEPojgcDofD4XDMgAdRHA6Hw+FwOGbAgygOh8PhcDgckwH+H2XWwayCJmNPAAAAAElFTkSuQmCC;" vertex="1" parent="1">
          <mxGeometry x="190" y="2350" width="593" height="91" as="geometry" />
        </mxCell>
        <mxCell id="XX_flJjxw-XXJBpBVuil-151" value="" style="endArrow=none;html=1;rounded=0;endSize=14;strokeWidth=6;" edge="1" parent="1">
          <mxGeometry width="50" height="50" relative="1" as="geometry">
            <mxPoint x="34" y="2270" as="sourcePoint" />
            <mxPoint x="804" y="2270" as="targetPoint" />
          </mxGeometry>
        </mxCell>
        <mxCell id="XX_flJjxw-XXJBpBVuil-160" value="" style="edgeStyle=orthogonalEdgeStyle;rounded=0;orthogonalLoop=1;jettySize=auto;html=1;" edge="1" parent="1" source="XX_flJjxw-XXJBpBVuil-153" target="XX_flJjxw-XXJBpBVuil-154">
          <mxGeometry relative="1" as="geometry" />
        </mxCell>
        <mxCell id="XX_flJjxw-XXJBpBVuil-153" value="start" style="strokeWidth=1;html=1;shape=mxgraph.flowchart.terminator;whiteSpace=wrap;fillColor=#d5e8d4;strokeColor=#82b366;" vertex="1" parent="1">
          <mxGeometry x="150" y="2480" width="100" height="60" as="geometry" />
        </mxCell>
        <mxCell id="XX_flJjxw-XXJBpBVuil-161" value="" style="edgeStyle=orthogonalEdgeStyle;rounded=0;orthogonalLoop=1;jettySize=auto;html=1;" edge="1" parent="1" source="XX_flJjxw-XXJBpBVuil-154" target="XX_flJjxw-XXJBpBVuil-155">
          <mxGeometry relative="1" as="geometry" />
        </mxCell>
        <mxCell id="XX_flJjxw-XXJBpBVuil-154" value="" style="verticalLabelPosition=bottom;verticalAlign=top;html=1;shape=card;whiteSpace=wrap;size=20;arcSize=12;fillColor=#dae8fc;strokeColor=#6c8ebf;" vertex="1" parent="1">
          <mxGeometry x="150" y="2590" width="100" height="60" as="geometry" />
        </mxCell>
        <mxCell id="XX_flJjxw-XXJBpBVuil-162" style="edgeStyle=orthogonalEdgeStyle;rounded=0;orthogonalLoop=1;jettySize=auto;html=1;" edge="1" parent="1" source="XX_flJjxw-XXJBpBVuil-155" target="XX_flJjxw-XXJBpBVuil-156">
          <mxGeometry relative="1" as="geometry" />
        </mxCell>
        <mxCell id="XX_flJjxw-XXJBpBVuil-168" value="true" style="edgeLabel;html=1;align=center;verticalAlign=middle;resizable=0;points=[];" vertex="1" connectable="0" parent="XX_flJjxw-XXJBpBVuil-162">
          <mxGeometry x="-0.352" y="-1" relative="1" as="geometry">
            <mxPoint as="offset" />
          </mxGeometry>
        </mxCell>
        <mxCell id="XX_flJjxw-XXJBpBVuil-163" style="edgeStyle=orthogonalEdgeStyle;rounded=0;orthogonalLoop=1;jettySize=auto;html=1;" edge="1" parent="1" source="XX_flJjxw-XXJBpBVuil-155" target="XX_flJjxw-XXJBpBVuil-157">
          <mxGeometry relative="1" as="geometry" />
        </mxCell>
        <mxCell id="XX_flJjxw-XXJBpBVuil-169" value="false" style="edgeLabel;html=1;align=center;verticalAlign=middle;resizable=0;points=[];" vertex="1" connectable="0" parent="XX_flJjxw-XXJBpBVuil-163">
          <mxGeometry x="-0.528" y="1" relative="1" as="geometry">
            <mxPoint as="offset" />
          </mxGeometry>
        </mxCell>
        <mxCell id="XX_flJjxw-XXJBpBVuil-155" value="a&amp;gt;b" style="strokeWidth=1;html=1;shape=mxgraph.flowchart.decision;whiteSpace=wrap;fillColor=#ffe6cc;strokeColor=#d79b00;" vertex="1" parent="1">
          <mxGeometry x="150" y="2690" width="100" height="100" as="geometry" />
        </mxCell>
        <mxCell id="XX_flJjxw-XXJBpBVuil-165" style="edgeStyle=orthogonalEdgeStyle;rounded=0;orthogonalLoop=1;jettySize=auto;html=1;" edge="1" parent="1" source="XX_flJjxw-XXJBpBVuil-156">
          <mxGeometry relative="1" as="geometry">
            <mxPoint x="200" y="2940" as="targetPoint" />
          </mxGeometry>
        </mxCell>
        <mxCell id="XX_flJjxw-XXJBpBVuil-156" value="&quot;&quot;" style="strokeWidth=1;html=1;shape=mxgraph.flowchart.document2;whiteSpace=wrap;size=0.25;fillColor=#e1d5e7;strokeColor=#9673a6;" vertex="1" parent="1">
          <mxGeometry x="40" y="2820" width="100" height="60" as="geometry" />
        </mxCell>
        <mxCell id="XX_flJjxw-XXJBpBVuil-164" style="edgeStyle=orthogonalEdgeStyle;rounded=0;orthogonalLoop=1;jettySize=auto;html=1;" edge="1" parent="1" source="XX_flJjxw-XXJBpBVuil-157" target="XX_flJjxw-XXJBpBVuil-158">
          <mxGeometry relative="1" as="geometry" />
        </mxCell>
        <mxCell id="XX_flJjxw-XXJBpBVuil-157" value="&quot;Growing...&quot;" style="strokeWidth=1;html=1;shape=mxgraph.flowchart.document2;whiteSpace=wrap;size=0.25;fillColor=#e1d5e7;strokeColor=#9673a6;" vertex="1" parent="1">
          <mxGeometry x="260" y="2820" width="100" height="60" as="geometry" />
        </mxCell>
        <mxCell id="XX_flJjxw-XXJBpBVuil-166" value="" style="edgeStyle=orthogonalEdgeStyle;rounded=0;orthogonalLoop=1;jettySize=auto;html=1;" edge="1" parent="1" source="XX_flJjxw-XXJBpBVuil-158" target="XX_flJjxw-XXJBpBVuil-159">
          <mxGeometry relative="1" as="geometry" />
        </mxCell>
        <mxCell id="XX_flJjxw-XXJBpBVuil-158" value="" style="strokeWidth=1;html=1;shape=mxgraph.flowchart.start_2;whiteSpace=wrap;fillColor=#f5f5f5;fontColor=#333333;strokeColor=#666666;" vertex="1" parent="1">
          <mxGeometry x="180" y="2940" width="40" height="40" as="geometry" />
        </mxCell>
        <mxCell id="XX_flJjxw-XXJBpBVuil-159" value="stop" style="strokeWidth=1;html=1;shape=mxgraph.flowchart.terminator;whiteSpace=wrap;fillColor=#f8cecc;strokeColor=#b85450;" vertex="1" parent="1">
          <mxGeometry x="150" y="3030" width="100" height="60" as="geometry" />
        </mxCell>
        <mxCell id="XX_flJjxw-XXJBpBVuil-167" value="a,b" style="text;html=1;align=center;verticalAlign=middle;whiteSpace=wrap;rounded=0;" vertex="1" parent="1">
          <mxGeometry x="170" y="2605" width="60" height="30" as="geometry" />
        </mxCell>
        <mxCell id="XX_flJjxw-XXJBpBVuil-170" value="" style="edgeStyle=orthogonalEdgeStyle;rounded=0;orthogonalLoop=1;jettySize=auto;html=1;" edge="1" parent="1" source="XX_flJjxw-XXJBpBVuil-171" target="XX_flJjxw-XXJBpBVuil-173">
          <mxGeometry relative="1" as="geometry" />
        </mxCell>
        <mxCell id="XX_flJjxw-XXJBpBVuil-171" value="start" style="strokeWidth=1;html=1;shape=mxgraph.flowchart.terminator;whiteSpace=wrap;fillColor=#d5e8d4;strokeColor=#82b366;" vertex="1" parent="1">
          <mxGeometry x="540" y="2480" width="100" height="60" as="geometry" />
        </mxCell>
        <mxCell id="XX_flJjxw-XXJBpBVuil-172" value="" style="edgeStyle=orthogonalEdgeStyle;rounded=0;orthogonalLoop=1;jettySize=auto;html=1;" edge="1" parent="1" source="XX_flJjxw-XXJBpBVuil-173" target="XX_flJjxw-XXJBpBVuil-178">
          <mxGeometry relative="1" as="geometry" />
        </mxCell>
        <mxCell id="XX_flJjxw-XXJBpBVuil-173" value="" style="verticalLabelPosition=bottom;verticalAlign=top;html=1;shape=card;whiteSpace=wrap;size=20;arcSize=12;fillColor=#dae8fc;strokeColor=#6c8ebf;" vertex="1" parent="1">
          <mxGeometry x="540" y="2590" width="100" height="60" as="geometry" />
        </mxCell>
        <mxCell id="XX_flJjxw-XXJBpBVuil-174" style="edgeStyle=orthogonalEdgeStyle;rounded=0;orthogonalLoop=1;jettySize=auto;html=1;" edge="1" parent="1" source="XX_flJjxw-XXJBpBVuil-178" target="XX_flJjxw-XXJBpBVuil-180">
          <mxGeometry relative="1" as="geometry" />
        </mxCell>
        <mxCell id="XX_flJjxw-XXJBpBVuil-175" value="true" style="edgeLabel;html=1;align=center;verticalAlign=middle;resizable=0;points=[];" vertex="1" connectable="0" parent="XX_flJjxw-XXJBpBVuil-174">
          <mxGeometry x="-0.352" y="-1" relative="1" as="geometry">
            <mxPoint as="offset" />
          </mxGeometry>
        </mxCell>
        <mxCell id="XX_flJjxw-XXJBpBVuil-176" style="edgeStyle=orthogonalEdgeStyle;rounded=0;orthogonalLoop=1;jettySize=auto;html=1;" edge="1" parent="1" source="XX_flJjxw-XXJBpBVuil-178" target="XX_flJjxw-XXJBpBVuil-182">
          <mxGeometry relative="1" as="geometry" />
        </mxCell>
        <mxCell id="XX_flJjxw-XXJBpBVuil-177" value="false" style="edgeLabel;html=1;align=center;verticalAlign=middle;resizable=0;points=[];" vertex="1" connectable="0" parent="XX_flJjxw-XXJBpBVuil-176">
          <mxGeometry x="-0.528" y="1" relative="1" as="geometry">
            <mxPoint as="offset" />
          </mxGeometry>
        </mxCell>
        <mxCell id="XX_flJjxw-XXJBpBVuil-178" value="a&amp;gt;=b" style="strokeWidth=1;html=1;shape=mxgraph.flowchart.decision;whiteSpace=wrap;fillColor=#ffe6cc;strokeColor=#d79b00;" vertex="1" parent="1">
          <mxGeometry x="540" y="2690" width="100" height="100" as="geometry" />
        </mxCell>
        <mxCell id="XX_flJjxw-XXJBpBVuil-179" style="edgeStyle=orthogonalEdgeStyle;rounded=0;orthogonalLoop=1;jettySize=auto;html=1;" edge="1" parent="1" source="XX_flJjxw-XXJBpBVuil-180">
          <mxGeometry relative="1" as="geometry">
            <mxPoint x="590" y="2940" as="targetPoint" />
          </mxGeometry>
        </mxCell>
        <mxCell id="XX_flJjxw-XXJBpBVuil-180" value="a" style="strokeWidth=1;html=1;shape=mxgraph.flowchart.document2;whiteSpace=wrap;size=0.25;fillColor=#e1d5e7;strokeColor=#9673a6;" vertex="1" parent="1">
          <mxGeometry x="430" y="2820" width="100" height="60" as="geometry" />
        </mxCell>
        <mxCell id="XX_flJjxw-XXJBpBVuil-181" style="edgeStyle=orthogonalEdgeStyle;rounded=0;orthogonalLoop=1;jettySize=auto;html=1;" edge="1" parent="1" source="XX_flJjxw-XXJBpBVuil-182" target="XX_flJjxw-XXJBpBVuil-184">
          <mxGeometry relative="1" as="geometry" />
        </mxCell>
        <mxCell id="XX_flJjxw-XXJBpBVuil-182" value="b" style="strokeWidth=1;html=1;shape=mxgraph.flowchart.document2;whiteSpace=wrap;size=0.25;fillColor=#e1d5e7;strokeColor=#9673a6;" vertex="1" parent="1">
          <mxGeometry x="650" y="2820" width="100" height="60" as="geometry" />
        </mxCell>
        <mxCell id="XX_flJjxw-XXJBpBVuil-183" value="" style="edgeStyle=orthogonalEdgeStyle;rounded=0;orthogonalLoop=1;jettySize=auto;html=1;" edge="1" parent="1" source="XX_flJjxw-XXJBpBVuil-184" target="XX_flJjxw-XXJBpBVuil-185">
          <mxGeometry relative="1" as="geometry" />
        </mxCell>
        <mxCell id="XX_flJjxw-XXJBpBVuil-184" value="" style="strokeWidth=1;html=1;shape=mxgraph.flowchart.start_2;whiteSpace=wrap;fillColor=#f5f5f5;fontColor=#333333;strokeColor=#666666;" vertex="1" parent="1">
          <mxGeometry x="570" y="2940" width="40" height="40" as="geometry" />
        </mxCell>
        <mxCell id="XX_flJjxw-XXJBpBVuil-185" value="stop" style="strokeWidth=1;html=1;shape=mxgraph.flowchart.terminator;whiteSpace=wrap;fillColor=#f8cecc;strokeColor=#b85450;" vertex="1" parent="1">
          <mxGeometry x="540" y="3030" width="100" height="60" as="geometry" />
        </mxCell>
        <mxCell id="XX_flJjxw-XXJBpBVuil-186" value="a,b" style="text;html=1;align=center;verticalAlign=middle;whiteSpace=wrap;rounded=0;" vertex="1" parent="1">
          <mxGeometry x="560" y="2605" width="60" height="30" as="geometry" />
        </mxCell>
      </root>
    </mxGraphModel>
  </diagram>
</mxfile>
